<?xml version="1.0" encoding="UTF-8" standalone="no"?>
<!-- Created with Inkscape (http://www.inkscape.org/) -->

<svg
   width="128"
   height="85.335754"
   viewBox="0 0 33.866666 22.578418"
   version="1.1"
   id="svg5"
   xml:space="preserve"
   xmlns="http://www.w3.org/2000/svg"
   xmlns:svg="http://www.w3.org/2000/svg"><defs
     id="defs2" /><g
     id="layer1"
     transform="translate(-60.997652,-98.503619)"><g
       id="g18719"
       transform="matrix(1.8285717,0,0,1.8285717,605.80534,-717.39445)"
       style="fill:#ffffff;fill-opacity:1"><path
         id="path18715"
         style="fill:#ffffff;fill-opacity:1;stroke-width:0.0321542"
         d="m -295.8839,446.19419 c -1.13505,0 -2.05776,0.92272 -2.05776,2.05776 v 2.05827 c 0,0.28296 0.238,0.5047 0.50488,0.5979 0.6045,0.209 1.0387,0.78463 1.0387,1.45986 0,0.67524 -0.4342,1.25086 -1.0387,1.45986 -0.26688,0.0932 -0.50488,0.31493 -0.50488,0.59789 v 2.05776 c 0,1.13504 0.92271,2.05827 2.05776,2.05827 h 14.40532 c 1.13504,0 2.05775,-0.92323 2.05775,-2.05827 v -2.05776 c 0,-0.28296 -0.238,-0.50469 -0.50488,-0.59789 -0.60449,-0.209 -1.03817,-0.78462 -1.03817,-1.45986 0,-0.67523 0.43368,-1.25086 1.03817,-1.45986 0.26688,-0.0933 0.50488,-0.31494 0.50488,-0.5979 v -2.05827 c 0,-1.13504 -0.92271,-2.05776 -2.05775,-2.05776 z m 7.20266,1.80816 a 4.3656249,4.3656249 0 0 1 4.36562,4.36563 4.3656249,4.3656249 0 0 1 -4.36562,4.36562 4.3656249,4.3656249 0 0 1 -4.36563,-4.36562 4.3656249,4.3656249 0 0 1 4.36563,-4.36563 z" /><path
         d="m -289.71018,451.13329 c 0,-0.45402 0.36913,-0.82314 0.82315,-0.82314 h 0.41157 c 0.45401,0 0.82315,0.36912 0.82315,0.82314 v 0.0462 c 0,0.28039 -0.14277,0.54148 -0.37814,0.69197 l -0.54276,0.34854 c -0.32412,0.20837 -0.51961,0.5672 -0.51961,0.95177 v 0.0193 c 0,0.22765 0.18392,0.41157 0.41157,0.41157 0.22765,0 0.41158,-0.18392 0.41158,-0.41157 v -0.0181 c 0,-0.10547 0.054,-0.20321 0.14147,-0.25981 l 0.54277,-0.34855 c 0.47073,-0.30353 0.75627,-0.82443 0.75627,-1.3852 v -0.0462 c 0,-0.90933 -0.73699,-1.6463 -1.6463,-1.6463 h -0.41157 c -0.90933,0 -1.6463,0.73697 -1.6463,1.6463 0,0.22765 0.18392,0.41157 0.41158,0.41157 0.22765,0 0.41157,-0.18392 0.41157,-0.41157 z m 1.02893,4.11574 a 0.51446677,0.51446677 0 1 0 0,-1.02893 0.51446677,0.51446677 0 1 0 0,1.02893 z"
         id="path18717"
         style="fill:#ffffff;fill-opacity:1;stroke-width:0.0128617" /></g></g></svg>
