<?xml version="1.0" encoding="UTF-8" standalone="no"?>
<!-- Created with Inkscape (http://www.inkscape.org/) -->

<svg
   width="128"
   height="85.335754"
   viewBox="0 0 33.866666 22.578418"
   version="1.1"
   id="svg5"
   xml:space="preserve"
   xmlns="http://www.w3.org/2000/svg"
   xmlns:svg="http://www.w3.org/2000/svg"><defs
     id="defs2" /><g
     id="layer1"
     transform="translate(-54.94809,-104.64252)"><g
       id="g18713"
       transform="matrix(1.8285717,0,0,1.8285717,131.16424,-823.466)"
       style="fill:#ffffff;fill-opacity:1"><path
         id="path18709"
         style="fill:#ffffff;fill-opacity:1;stroke-width:0.0321542"
         d="m -39.622941,507.55927 c -1.13505,0 -2.05776,0.92272 -2.05776,2.05776 v 2.05827 c 0,0.28296 0.238,0.5047 0.50488,0.5979 0.6045,0.209 1.0387,0.78463 1.0387,1.45986 0,0.67524 -0.4342,1.25086 -1.0387,1.45986 -0.26688,0.0932 -0.50488,0.31493 -0.50488,0.59789 v 2.05776 c 0,1.13504 0.92271,2.05827 2.05776,2.05827 h 14.40532 c 1.13504,0 2.05775,-0.92323 2.05775,-2.05827 v -2.05776 c 0,-0.28296 -0.238,-0.50469 -0.50488,-0.59789 -0.60449,-0.209 -1.03817,-0.78462 -1.03817,-1.45986 0,-0.67523 0.43368,-1.25086 1.03817,-1.45986 0.26688,-0.0933 0.50488,-0.31494 0.50488,-0.5979 v -2.05827 c 0,-1.13504 -0.92271,-2.05776 -2.05775,-2.05776 z m 7.20266,1.80816 a 4.3656249,4.3656249 0 0 1 4.36562,4.36563 4.3656249,4.3656249 0 0 1 -4.36562,4.36562 4.3656249,4.3656249 0 0 1 -4.36563,-4.36562 4.3656249,4.3656249 0 0 1 4.36563,-4.36563 z" /><path
         d="m -29.470171,511.66255 c 0.17179,0.17179 0.17179,0.4508 0,0.62259 l -3.51842,3.51841 c -0.1718,0.1718 -0.4508,0.1718 -0.6226,0 l -1.75921,-1.7592 c -0.17179,-0.17181 -0.17179,-0.45079 0,-0.6226 0.17181,-0.17179 0.4508,-0.17179 0.62261,0 l 1.44859,1.44723 3.20781,-3.20643 c 0.17179,-0.1718 0.45079,-0.1718 0.62259,0 z"
         id="path18711"
         style="fill:#ffffff;fill-opacity:1;stroke-width:0.0137438" /></g></g></svg>
