<?xml version="1.0" encoding="UTF-8" standalone="no"?>
<!-- Created with Inkscape (http://www.inkscape.org/) -->

<svg
   width="128"
   height="85.335869"
   viewBox="0 0 33.866666 22.578448"
   version="1.1"
   id="svg5"
   xml:space="preserve"
   inkscape:version="1.2.1 (9c6d41e410, 2022-07-14)"
   sodipodi:docname="ticket-xmark.svg"
   xmlns:inkscape="http://www.inkscape.org/namespaces/inkscape"
   xmlns:sodipodi="http://sodipodi.sourceforge.net/DTD/sodipodi-0.dtd"
   xmlns="http://www.w3.org/2000/svg"
   xmlns:svg="http://www.w3.org/2000/svg"><sodipodi:namedview
     id="namedview7"
     pagecolor="#505050"
     bordercolor="#eeeeee"
     borderopacity="1"
     inkscape:showpageshadow="0"
     inkscape:pageopacity="0"
     inkscape:pagecheckerboard="0"
     inkscape:deskcolor="#505050"
     inkscape:document-units="px"
     showgrid="true"
     inkscape:zoom="1.4912879"
     inkscape:cx="61.021081"
     inkscape:cy="162.9464"
     inkscape:window-width="1920"
     inkscape:window-height="1017"
     inkscape:window-x="-8"
     inkscape:window-y="-8"
     inkscape:window-maximized="1"
     inkscape:current-layer="layer1" /><defs
     id="defs2" /><g
     inkscape:label="Ebene 1"
     inkscape:groupmode="layer"
     id="layer1"
     transform="translate(-48.5956,-50.848576)"><g
       id="g18707"
       transform="matrix(4.5713503,0,0,4.5713503,354.59906,-2339.2961)"
       style="fill:#ffffff;fill-opacity:1"><path
         d="m -63.894543,524.37023 c -0.0811,-0.0811 -0.21201,-0.0811 -0.29306,0 -0.0811,0.0811 -0.0811,0.212 0,0.29305 l 0.65938,0.65938 -0.65938,0.65938 c -0.0811,0.081 -0.0811,0.212 0,0.29306 0.081,0.081 0.21201,0.081 0.29306,-10e-6 l 0.65937,-0.65937 0.65938,0.65937 c 0.0811,0.0811 0.212,0.0811 0.29305,0 0.0811,-0.0811 0.0811,-0.21201 1e-5,-0.29305 l -0.65938,-0.65938 0.65937,-0.65938 c 0.0811,-0.081 0.0811,-0.212 1e-5,-0.29304 -0.0811,-0.0811 -0.21202,-0.0811 -0.29306,-10e-6 l -0.65938,0.65937 z"
         id="path18703"
         style="fill:#ffffff;fill-opacity:1;stroke-width:0.00647568" /><path
         id="path18705"
         style="fill:#ffffff;fill-opacity:1;stroke-width:0.0128619"
         d="m -66.116283,522.8531 c -0.45403,0 -0.82312,0.3691 -0.82312,0.82312 v 0.82332 c 0,0.11319 0.0952,0.20189 0.20196,0.23917 0.2418,0.0836 0.41548,0.31386 0.41548,0.58395 0,0.2701 -0.17368,0.50036 -0.41548,0.58396 -0.10676,0.0373 -0.20196,0.12597 -0.20196,0.23916 v 0.82312 c 0,0.45402 0.36909,0.82332 0.82312,0.82332 h 5.76223 c 0.45402,0 0.82311,-0.3693 0.82311,-0.82332 v -0.82312 c 0,-0.11319 -0.0952,-0.20188 -0.20195,-0.23916 -0.2418,-0.0836 -0.41528,-0.31386 -0.41528,-0.58396 0,-0.27009 0.17348,-0.50035 0.41528,-0.58395 0.10675,-0.0373 0.20195,-0.12598 0.20195,-0.23917 v -0.82332 c 0,-0.45402 -0.36909,-0.82312 -0.82311,-0.82312 z m 2.88111,0.72328 a 1.7462814,1.7462814 0 0 1 1.74628,1.74628 1.7462814,1.7462814 0 0 1 -1.74628,1.74628 1.7462814,1.7462814 0 0 1 -1.74628,-1.74628 1.7462814,1.7462814 0 0 1 1.74628,-1.74628 z" /></g></g></svg>
