<?xml version="1.0" encoding="UTF-8" standalone="no"?>
<!-- Created with Inkscape (http://www.inkscape.org/) -->

<svg
   width="268.80472"
   height="452.13873"
   viewBox="0 0 71.121247 119.62837"
   version="1.1"
   id="svg5"
   xml:space="preserve"
   xmlns:xlink="http://www.w3.org/1999/xlink"
   xmlns="http://www.w3.org/2000/svg"
   xmlns:svg="http://www.w3.org/2000/svg"><defs
     id="defs2"><mask
       maskUnits="userSpaceOnUse"
       id="mask22535"><path
         id="path22537"
         style="fill:#ffffff;fill-opacity:1;stroke:none;stroke-width:1.36168;stroke-linecap:round;stroke-linejoin:round;stroke-dasharray:none;paint-order:stroke fill markers"
         d="m -270.57675,371.67206 c -1.48783,0 -2.68563,1.19782 -2.68563,2.68562 v 87.04636 c 0,0.0151 0.003,0.0298 0.003,0.045 a 6.8572244,5.2453365 0 0 1 2.13733,2.58538 c 0.17629,0.0362 0.35893,0.0553 0.54623,0.0553 h 60.30898 c 0.24543,0 0.48188,-0.0355 0.70745,-0.0966 a 6.8572244,5.2453365 0 0 1 1.97042,-2.43811 c 0.003,-0.0502 0.008,-0.0999 0.008,-0.15089 v -87.04636 c 0,-1.4878 -1.19781,-2.68562 -2.68562,-2.68562 z" /></mask><linearGradient
       xlink:href="#linearGradient72418"
       id="linearGradient46268"
       gradientUnits="userSpaceOnUse"
       gradientTransform="translate(288.8577,-372.92353)"
       x1="-272.19788"
       y1="462.23572"
       x2="-207.93683"
       y2="371.75186" /><linearGradient
       id="linearGradient72418"><stop
         style="stop-color:#009090;stop-opacity:1;"
         offset="0"
         id="stop72414" /><stop
         style="stop-color:#006780;stop-opacity:1;"
         offset="1"
         id="stop72416" /></linearGradient><filter
       style="color-interpolation-filters:sRGB"
       id="filter40273"
       x="-0.010353241"
       y="-0.0061039408"
       width="1.0207065"
       height="1.0122079"><feGaussianBlur
         stdDeviation="0.3005824"
         id="feGaussianBlur40275" /></filter></defs><g
     id="layer1"
     transform="translate(-12.874858,3.7496678)"><path
       id="path46072"
       style="mix-blend-mode:normal;fill:#000000;stroke-width:1.35335;stroke-linecap:round;stroke-linejoin:round;paint-order:stroke fill markers;filter:url(#filter40273)"
       d="m 15.901536,-3.02827 v 0.84697 c -0.81253,0.46753 -1.46572,1.17604 -1.86706,2.0283 a 1.5877565,0.74498063 0 0 1 0.2806,0.41755 1.5877565,0.74498063 0 0 1 -0.6196,0.58653 c -0.0157,0.0749 -0.0277,0.15115 -0.0398,0.22737 a 1.5877565,0.74498063 0 0 1 0.65939,0.60358 1.5877565,0.74498063 0 0 1 -0.71881,0.61805 v 0.17674 a 1.5877565,0.74498063 0 0 1 0.71881,0.62218 1.5877565,0.74498063 0 0 1 -0.71881,0.61857 v 0.18087 a 1.5877565,0.74498063 0 0 1 0.71881,0.61805 1.5877565,0.74498063 0 0 1 -0.71881,0.61805 V 5.3154 a 1.5877565,0.74498063 0 0 1 0.71881,0.61805 1.5877565,0.74498063 0 0 1 -0.71881,0.61857 v 0.18035 a 1.5877565,0.74498063 0 0 1 0.71881,0.61857 1.5877565,0.74498063 0 0 1 -0.71881,0.61805 v 0.18087 a 1.5877565,0.74498063 0 0 1 0.71881,0.61805 1.5877565,0.74498063 0 0 1 -0.71881,0.61856 v 0.18035 a 1.5877565,0.74498063 0 0 1 0.71881,0.61857 1.5877565,0.74498063 0 0 1 -0.71881,0.61805 v 0.18087 a 1.5877565,0.74498063 0 0 1 0.71881,0.61805 1.5877565,0.74498063 0 0 1 -0.71881,0.61805 v 0.18087 a 1.5877565,0.74498063 0 0 1 0.71881,0.61856 1.5877565,0.74498063 0 0 1 -0.71881,0.61805 v 0.18087 a 1.5877565,0.74498063 0 0 1 0.71881,0.61805 1.5877565,0.74498063 0 0 1 -0.71881,0.61805 v 0.18087 a 1.5877565,0.74498063 0 0 1 0.71881,0.61805 1.5877565,0.74498063 0 0 1 -0.71881,0.61856 v 0.18087 a 1.5877565,0.74498063 0 0 1 0.71881,0.61805 1.5877565,0.74498063 0 0 1 -0.71881,0.61805 v 0.18087 a 1.5877565,0.74498063 0 0 1 0.71881,0.61805 1.5877565,0.74498063 0 0 1 -0.71881,0.61857 v 0.18086 a 1.5877565,0.74498063 0 0 1 0.71881,0.61805 1.5877565,0.74498063 0 0 1 -0.71881,0.61805 v 0.18087 a 1.5877565,0.74498063 0 0 1 0.71881,0.61805 1.5877565,0.74498063 0 0 1 -0.71881,0.61857 v 0.17622 a 1.5877565,0.74498063 0 0 1 0.71881,0.6227 1.5877565,0.74498063 0 0 1 -0.71881,0.61805 v 0.18086 a 1.5877565,0.74498063 0 0 1 0.71881,0.61805 1.5877565,0.74498063 0 0 1 -0.71881,0.61805 v 0.18087 a 1.5877565,0.74498063 0 0 1 0.71881,0.61857 1.5877565,0.74498063 0 0 1 -0.71881,0.61805 v 0.18087 a 1.5877565,0.74498063 0 0 1 0.71881,0.61805 1.5877565,0.74498063 0 0 1 -0.71881,0.61805 v 0.18086 a 1.5877565,0.74498063 0 0 1 0.71881,0.61857 1.5877565,0.74498063 0 0 1 -0.71881,0.61805 v 0.18087 a 1.5877565,0.74498063 0 0 1 0.71881,0.61805 1.5877565,0.74498063 0 0 1 -0.71881,0.6227 v 0.17622 a 1.5877565,0.74498063 0 0 1 0.71881,0.61805 1.5877565,0.74498063 0 0 1 -0.71881,0.61856 v 0.17622 a 1.5877565,0.74498063 0 0 1 0.71881,0.6227 1.5877565,0.74498063 0 0 1 -0.71881,0.61805 v 0.18087 a 1.5877565,0.74498063 0 0 1 0.71881,0.61805 1.5877565,0.74498063 0 0 1 -0.71881,0.61857 v 0.18035 a 1.5877565,0.74498063 0 0 1 0.71881,0.61856 1.5877565,0.74498063 0 0 1 -0.71881,0.61805 v 0.18087 a 1.5877565,0.74498063 0 0 1 0.71881,0.61805 1.5877565,0.74498063 0 0 1 -0.71881,0.61857 v 0.18035 a 1.5877565,0.74498063 0 0 1 0.71881,0.61857 1.5877565,0.74498063 0 0 1 -0.71881,0.61805 v 0.18086 a 1.5877565,0.74498063 0 0 1 0.71881,0.61805 1.5877565,0.74498063 0 0 1 -0.71881,0.6227 v 0.17622 a 1.5877565,0.74498063 0 0 1 0.71881,0.61857 1.5877565,0.74498063 0 0 1 -0.71881,0.61805 v 0.18087 a 1.5877565,0.74498063 0 0 1 0.71881,0.61805 1.5877565,0.74498063 0 0 1 -0.71881,0.61805 v 0.18086 a 1.5877565,0.74498063 0 0 1 0.71881,0.61805 1.5877565,0.74498063 0 0 1 -0.71881,0.61857 v 0.18087 a 1.5877565,0.74498063 0 0 1 0.71881,0.61805 1.5877565,0.74498063 0 0 1 -0.71881,0.61805 v 0.18087 a 1.5877565,0.74498063 0 0 1 0.71881,0.61805 1.5877565,0.74498063 0 0 1 -0.71881,0.61856 v 0.18087 a 1.5877565,0.74498063 0 0 1 0.71881,0.61805 1.5877565,0.74498063 0 0 1 -0.71881,0.61805 v 0.18087 a 1.5877565,0.74498063 0 0 1 0.71881,0.61805 1.5877565,0.74498063 0 0 1 -0.71881,0.61856 v 0.18036 a 1.5877565,0.74498063 0 0 1 0.71881,0.61856 1.5877565,0.74498063 0 0 1 -0.71881,0.61805 v 0.18087 a 1.5877565,0.74498063 0 0 1 0.71881,0.61805 1.5877565,0.74498063 0 0 1 -0.71881,0.61805 v 0.18087 a 1.5877565,0.74498063 0 0 1 0.71881,0.61856 1.5877565,0.74498063 0 0 1 -0.71881,0.61805 v 0.18087 a 1.5877565,0.74498063 0 0 1 0.71881,0.61805 1.5877565,0.74498063 0 0 1 -0.71881,0.61805 v 0.18087 a 1.5877565,0.74498063 0 0 1 0.71881,0.61857 1.5877565,0.74498063 0 0 1 -0.71881,0.61805 v 0.18086 a 1.5877565,0.74498063 0 0 1 0.71881,0.61805 1.5877565,0.74498063 0 0 1 -0.71881,0.61805 v 0.18087 a 1.5877565,0.74498063 0 0 1 0.71881,0.61805 1.5877565,0.74498063 0 0 1 -0.71881,0.62322 v 0.17622 a 1.5877565,0.74498063 0 0 1 0.71881,0.61805 1.5877565,0.74498063 0 0 1 -0.71881,0.61805 v 0.18086 a 1.5877565,0.74498063 0 0 1 0.71881,0.61805 1.5877565,0.74498063 0 0 1 -0.71881,0.61857 v 0.18087 a 1.5877565,0.74498063 0 0 1 0.71881,0.61805 1.5877565,0.74498063 0 0 1 -0.71881,0.61805 v 0.18087 a 1.5877565,0.74498063 0 0 1 0.71881,0.61805 1.5877565,0.74498063 0 0 1 -0.71881,0.61856 v 0.18035 a 1.5877565,0.74498063 0 0 1 0.71881,0.61857 1.5877565,0.74498063 0 0 1 -0.71881,0.61805 v 0.18087 a 1.5877565,0.74498063 0 0 1 0.71881,0.61805 1.5877565,0.74498063 0 0 1 -0.71881,0.61805 v 0.18087 a 1.5877565,0.74498063 0 0 1 0.71881,0.61856 1.5877565,0.74498063 0 0 1 -0.71881,0.62219 v 0.17673 a 1.5877565,0.74498063 0 0 1 0.71881,0.61805 1.5877565,0.74498063 0 0 1 -0.71881,0.61805 v 0.18087 a 1.5877565,0.74498063 0 0 1 0.71881,0.61857 1.5877565,0.74498063 0 0 1 -0.71881,0.61805 v 0.18086 a 1.5877565,0.74498063 0 0 1 0.71881,0.61805 1.5877565,0.74498063 0 0 1 -0.71881,0.61805 v 0.18087 a 1.5877565,0.74498063 0 0 1 0.71881,0.61805 1.5877565,0.74498063 0 0 1 -0.71881,0.61857 v 0.18087 a 1.5877565,0.74498063 0 0 1 0.71881,0.61805 1.5877565,0.74498063 0 0 1 -0.71881,0.61805 v 0.18086 a 1.5877565,0.74498063 0 0 1 0.71881,0.61805 1.5877565,0.74498063 0 0 1 -0.71881,0.61857 v 0.18035 a 1.5877565,0.74498063 0 0 1 0.71881,0.6186 1.5877565,0.74498063 0 0 1 -0.71881,0.6227 v 0.1762 a 1.5877565,0.74498063 0 0 1 0.71881,0.618 1.5877565,0.74498063 0 0 1 -0.71881,0.6186 v 0.1804 a 1.5877565,0.74498063 0 0 1 0.71881,0.6185 1.5877565,0.74498063 0 0 1 -0.71881,0.6181 v 0.1808 a 1.5877565,0.74498063 0 0 1 0.71881,0.6181 1.5877565,0.74498063 0 0 1 -0.71881,0.618 v 0.1809 a 1.5877565,0.74498063 0 0 1 0.71881,0.6186 1.5877565,0.74498063 0 0 1 -0.71881,0.618 v 0.1809 a 1.5877565,0.74498063 0 0 1 0.71881,0.618 1.5877565,0.74498063 0 0 1 -0.71881,0.6181 v 0.1809 a 1.5877565,0.74498063 0 0 1 0.71881,0.618 1.5877565,0.74498063 0 0 1 -0.71881,0.6186 v 0.1808 a 1.5877565,0.74498063 0 0 1 0.71881,0.6181 1.5877565,0.74498063 0 0 1 -0.60771,0.5746 4.4735904,3.4220095 0 0 1 2.01073,2.8567 4.4735904,3.4220095 0 0 1 -1.78904,2.7037 1.5877565,0.74498063 0 0 1 0.38602,0.4868 1.5877565,0.74498063 0 0 1 -0.71881,0.6232 v 0.1711 a 1.5877565,0.74498063 0 0 1 0.71881,0.6227 1.5877565,0.74498063 0 0 1 -0.71881,0.6232 v 0.1711 a 1.5877565,0.74498063 0 0 1 0.71881,0.6232 1.5877565,0.74498063 0 0 1 -0.71881,0.6232 v 0.1705 a 1.5877565,0.74498063 0 0 1 0.71881,0.6232 1.5877565,0.74498063 0 0 1 -0.71881,0.6233 v 0.171 a 1.5877565,0.74498063 0 0 1 0.71881,0.6232 1.5877565,0.74498063 0 0 1 -0.71881,0.6227 v 0.1711 a 1.5877565,0.74498063 0 0 1 0.71881,0.6232 1.5877565,0.74498063 0 0 1 -0.71881,0.6232 v 0.1711 a 1.5877565,0.74498063 0 0 1 0.71881,0.6232 1.5877565,0.74498063 0 0 1 -0.71881,0.6227 v 0.171 a 1.5877565,0.74498063 0 0 1 0.71881,0.6232 1.5877565,0.74498063 0 0 1 -0.71881,0.6233 v 0.171 a 1.5877565,0.74498063 0 0 1 0.71881,0.6227 1.5877565,0.74498063 0 0 1 -0.71881,0.6232 v 0.1711 a 1.5877565,0.74498063 0 0 1 0.71881,0.6232 1.5877565,0.74498063 0 0 1 -0.71881,0.6232 v 0.1711 a 1.5877565,0.74498063 0 0 1 0.71881,0.6227 1.5877565,0.74498063 0 0 1 -0.69453,0.6149 c 0.006,0.065 0.0122,0.1308 0.0212,0.1953 a 1.5877565,0.74498063 0 0 1 0.67334,0.6072 1.5877565,0.74498063 0 0 1 -0.38033,0.4832 c 0.37454,0.9204 1.03764,1.6904 1.87843,2.1999 v 0.7147 h 32.6223 32.6223 v -0.7147 c 0.8408,-0.5095 1.5039,-1.2795 1.87844,-2.1999 a 1.5877565,0.74498063 0 0 1 -0.38033,-0.4832 1.5877565,0.74498063 0 0 1 0.67333,-0.6072 c 0.009,-0.064 0.0152,-0.1299 0.0212,-0.1953 a 1.5877565,0.74498063 0 0 1 -0.69452,-0.6149 1.5877565,0.74498063 0 0 1 0.71881,-0.6227 v -0.1711 a 1.5877565,0.74498063 0 0 1 -0.71881,-0.6232 1.5877565,0.74498063 0 0 1 0.71881,-0.6232 v -0.1711 a 1.5877565,0.74498063 0 0 1 -0.71881,-0.6232 1.5877565,0.74498063 0 0 1 0.71881,-0.6227 v -0.171 a 1.5877565,0.74498063 0 0 1 -0.71881,-0.6233 1.5877565,0.74498063 0 0 1 0.71881,-0.6232 v -0.171 a 1.5877565,0.74498063 0 0 1 -0.71881,-0.6227 1.5877565,0.74498063 0 0 1 0.71881,-0.6232 v -0.1711 a 1.5877565,0.74498063 0 0 1 -0.71881,-0.6232 1.5877565,0.74498063 0 0 1 0.71881,-0.6232 v -0.1711 a 1.5877565,0.74498063 0 0 1 -0.71881,-0.6227 1.5877565,0.74498063 0 0 1 0.71881,-0.6232 v -0.171 a 1.5877565,0.74498063 0 0 1 -0.71881,-0.6233 1.5877565,0.74498063 0 0 1 0.71881,-0.6232 v -0.1705 a 1.5877565,0.74498063 0 0 1 -0.71881,-0.6232 1.5877565,0.74498063 0 0 1 0.71881,-0.6232 v -0.1711 a 1.5877565,0.74498063 0 0 1 -0.71881,-0.6232 1.5877565,0.74498063 0 0 1 0.71881,-0.6227 v -0.1711 a 1.5877565,0.74498063 0 0 1 -0.71881,-0.6232 1.5877565,0.74498063 0 0 1 0.38602,-0.4868 4.4735904,3.4220095 0 0 1 -1.78904,-2.7037 4.4735904,3.4220095 0 0 1 2.01073,-2.8567 1.5877565,0.74498063 0 0 1 -0.60771,-0.5746 1.5877565,0.74498063 0 0 1 0.71881,-0.6181 v -0.1808 a 1.5877565,0.74498063 0 0 1 -0.71881,-0.6186 1.5877565,0.74498063 0 0 1 0.71881,-0.618 v -0.1809 a 1.5877565,0.74498063 0 0 1 -0.71881,-0.6181 1.5877565,0.74498063 0 0 1 0.71881,-0.618 v -0.1809 a 1.5877565,0.74498063 0 0 1 -0.71881,-0.618 1.5877565,0.74498063 0 0 1 0.71881,-0.6186 v -0.1809 a 1.5877565,0.74498063 0 0 1 -0.71881,-0.618 1.5877565,0.74498063 0 0 1 0.71881,-0.6181 v -0.1808 a 1.5877565,0.74498063 0 0 1 -0.71881,-0.6181 1.5877565,0.74498063 0 0 1 0.71881,-0.6185 v -0.1804 a 1.5877565,0.74498063 0 0 1 -0.71881,-0.6186 1.5877565,0.74498063 0 0 1 0.71881,-0.618 v -0.1762 a 1.5877565,0.74498063 0 0 1 -0.71881,-0.6227 1.5877565,0.74498063 0 0 1 0.71881,-0.6186 v -0.18035 a 1.5877565,0.74498063 0 0 1 -0.71881,-0.61857 1.5877565,0.74498063 0 0 1 0.71881,-0.61805 v -0.18086 a 1.5877565,0.74498063 0 0 1 -0.71881,-0.61805 1.5877565,0.74498063 0 0 1 0.71881,-0.61805 v -0.18087 a 1.5877565,0.74498063 0 0 1 -0.71881,-0.61857 1.5877565,0.74498063 0 0 1 0.71881,-0.61805 v -0.18087 a 1.5877565,0.74498063 0 0 1 -0.71881,-0.61805 1.5877565,0.74498063 0 0 1 0.71881,-0.61805 v -0.18086 a 1.5877565,0.74498063 0 0 1 -0.71881,-0.61805 1.5877565,0.74498063 0 0 1 0.71881,-0.61857 v -0.18087 a 1.5877565,0.74498063 0 0 1 -0.71881,-0.61805 1.5877565,0.74498063 0 0 1 0.71881,-0.61805 v -0.17673 a 1.5877565,0.74498063 0 0 1 -0.71881,-0.62219 1.5877565,0.74498063 0 0 1 0.71881,-0.61856 v -0.18087 a 1.5877565,0.74498063 0 0 1 -0.71881,-0.61805 1.5877565,0.74498063 0 0 1 0.71881,-0.61805 v -0.18087 a 1.5877565,0.74498063 0 0 1 -0.71881,-0.61805 1.5877565,0.74498063 0 0 1 0.71881,-0.61857 v -0.18035 a 1.5877565,0.74498063 0 0 1 -0.71881,-0.61856 1.5877565,0.74498063 0 0 1 0.71881,-0.61805 V 64.657 a 1.5877565,0.74498063 0 0 1 -0.71881,-0.61805 1.5877565,0.74498063 0 0 1 0.71881,-0.61805 v -0.18087 a 1.5877565,0.74498063 0 0 1 -0.71881,-0.61857 1.5877565,0.74498063 0 0 1 0.71881,-0.61805 v -0.18086 a 1.5877565,0.74498063 0 0 1 -0.71881,-0.61805 1.5877565,0.74498063 0 0 1 0.71881,-0.61805 v -0.17622 a 1.5877565,0.74498063 0 0 1 -0.71881,-0.62322 1.5877565,0.74498063 0 0 1 0.71881,-0.61805 v -0.18087 a 1.5877565,0.74498063 0 0 1 -0.71881,-0.61805 1.5877565,0.74498063 0 0 1 0.71881,-0.61805 v -0.18086 a 1.5877565,0.74498063 0 0 1 -0.71881,-0.61805 1.5877565,0.74498063 0 0 1 0.71881,-0.61857 v -0.18087 a 1.5877565,0.74498063 0 0 1 -0.71881,-0.61805 1.5877565,0.74498063 0 0 1 0.71881,-0.61805 v -0.18087 a 1.5877565,0.74498063 0 0 1 -0.71881,-0.61805 1.5877565,0.74498063 0 0 1 0.71881,-0.61856 v -0.18087 a 1.5877565,0.74498063 0 0 1 -0.71881,-0.61805 1.5877565,0.74498063 0 0 1 0.71881,-0.61805 v -0.18087 a 1.5877565,0.74498063 0 0 1 -0.71881,-0.61805 1.5877565,0.74498063 0 0 1 0.71881,-0.61856 v -0.18036 a 1.5877565,0.74498063 0 0 1 -0.71881,-0.61856 1.5877565,0.74498063 0 0 1 0.71881,-0.61805 v -0.18087 a 1.5877565,0.74498063 0 0 1 -0.71881,-0.61805 1.5877565,0.74498063 0 0 1 0.71881,-0.61805 V 47.6508 a 1.5877565,0.74498063 0 0 1 -0.71881,-0.61856 1.5877565,0.74498063 0 0 1 0.71881,-0.61805 v -0.18087 a 1.5877565,0.74498063 0 0 1 -0.71881,-0.61805 1.5877565,0.74498063 0 0 1 0.71881,-0.61805 v -0.18087 a 1.5877565,0.74498063 0 0 1 -0.71881,-0.61857 1.5877565,0.74498063 0 0 1 0.71881,-0.61805 v -0.18086 a 1.5877565,0.74498063 0 0 1 -0.71881,-0.61805 1.5877565,0.74498063 0 0 1 0.71881,-0.61805 V 41.9819 a 1.5877565,0.74498063 0 0 1 -0.71881,-0.61805 1.5877565,0.74498063 0 0 1 0.71881,-0.61857 v -0.17622 a 1.5877565,0.74498063 0 0 1 -0.71881,-0.6227 1.5877565,0.74498063 0 0 1 0.71881,-0.61805 v -0.18086 a 1.5877565,0.74498063 0 0 1 -0.71881,-0.61805 1.5877565,0.74498063 0 0 1 0.71881,-0.61857 v -0.18035 a 1.5877565,0.74498063 0 0 1 -0.71881,-0.61857 1.5877565,0.74498063 0 0 1 0.71881,-0.61805 v -0.18087 a 1.5877565,0.74498063 0 0 1 -0.71881,-0.61805 1.5877565,0.74498063 0 0 1 0.71881,-0.61856 v -0.18035 a 1.5877565,0.74498063 0 0 1 -0.71881,-0.61857 1.5877565,0.74498063 0 0 1 0.71881,-0.61805 v -0.18087 a 1.5877565,0.74498063 0 0 1 -0.71881,-0.61805 1.5877565,0.74498063 0 0 1 0.71881,-0.6227 v -0.17622 a 1.5877565,0.74498063 0 0 1 -0.71881,-0.61856 1.5877565,0.74498063 0 0 1 0.71881,-0.61805 v -0.17622 a 1.5877565,0.74498063 0 0 1 -0.71881,-0.6227 1.5877565,0.74498063 0 0 1 0.71881,-0.61805 v -0.18087 a 1.5877565,0.74498063 0 0 1 -0.71881,-0.61805 1.5877565,0.74498063 0 0 1 0.71881,-0.61857 v -0.18086 a 1.5877565,0.74498063 0 0 1 -0.71881,-0.61805 1.5877565,0.74498063 0 0 1 0.71881,-0.61805 v -0.18087 a 1.5877565,0.74498063 0 0 1 -0.71881,-0.61805 1.5877565,0.74498063 0 0 1 0.71881,-0.61857 v -0.18087 a 1.5877565,0.74498063 0 0 1 -0.71881,-0.61805 1.5877565,0.74498063 0 0 1 0.71881,-0.61805 v -0.18086 a 1.5877565,0.74498063 0 0 1 -0.71881,-0.61805 1.5877565,0.74498063 0 0 1 0.71881,-0.6227 v -0.17622 a 1.5877565,0.74498063 0 0 1 -0.71881,-0.61857 1.5877565,0.74498063 0 0 1 0.71881,-0.61805 v -0.18087 a 1.5877565,0.74498063 0 0 1 -0.71881,-0.61805 1.5877565,0.74498063 0 0 1 0.71881,-0.61805 V 19.3068 a 1.5877565,0.74498063 0 0 1 -0.71881,-0.61857 1.5877565,0.74498063 0 0 1 0.71881,-0.61805 v -0.18087 a 1.5877565,0.74498063 0 0 1 -0.71881,-0.61805 1.5877565,0.74498063 0 0 1 0.71881,-0.61805 v -0.18087 a 1.5877565,0.74498063 0 0 1 -0.71881,-0.61856 1.5877565,0.74498063 0 0 1 0.71881,-0.61805 v -0.18087 a 1.5877565,0.74498063 0 0 1 -0.71881,-0.61805 1.5877565,0.74498063 0 0 1 0.71881,-0.61805 v -0.18087 a 1.5877565,0.74498063 0 0 1 -0.71881,-0.61805 1.5877565,0.74498063 0 0 1 0.71881,-0.61856 v -0.18087 a 1.5877565,0.74498063 0 0 1 -0.71881,-0.61805 1.5877565,0.74498063 0 0 1 0.71881,-0.61805 v -0.18087 a 1.5877565,0.74498063 0 0 1 -0.71881,-0.61805 1.5877565,0.74498063 0 0 1 0.71881,-0.61857 V 9.38647 a 1.5877565,0.74498063 0 0 1 -0.71881,-0.61856 1.5877565,0.74498063 0 0 1 0.71881,-0.61805 V 7.96899 a 1.5877565,0.74498063 0 0 1 -0.71881,-0.61805 1.5877565,0.74498063 0 0 1 0.71881,-0.61857 V 6.55202 A 1.5877565,0.74498063 0 0 1 82.555896,5.93345 1.5877565,0.74498063 0 0 1 83.274706,5.3154 V 5.13454 a 1.5877565,0.74498063 0 0 1 -0.71881,-0.61805 1.5877565,0.74498063 0 0 1 0.71881,-0.61805 V 3.71757 A 1.5877565,0.74498063 0 0 1 82.555896,3.099 1.5877565,0.74498063 0 0 1 83.274706,2.47682 V 2.30008 a 1.5877565,0.74498063 0 0 1 -0.71881,-0.61805 1.5877565,0.74498063 0 0 1 0.65939,-0.60358 c -0.0121,-0.0762 -0.0241,-0.15247 -0.0398,-0.22737 a 1.5877565,0.74498063 0 0 1 -0.61959,-0.58653 1.5877565,0.74498063 0 0 1 0.28059,-0.41755 c -0.40134,-0.85226 -1.05453,-1.56077 -1.86707,-2.0283 v -0.84697 h -32.53393 z m 0.40877,95.53888 a 0.28134918,0.46891534 0 0 1 0.28112,0.4692 0.28134918,0.46891534 0 0 1 -0.28112,0.4687 0.28134918,0.46891534 0 0 1 -0.28164,-0.4687 0.28134918,0.46891534 0 0 1 0.28164,-0.4692 z m 0.94464,0 a 0.28134918,0.46891534 0 0 1 0.28164,0.4692 0.28134918,0.46891534 0 0 1 -0.28164,0.4687 0.28134918,0.46891534 0 0 1 -0.28112,-0.4687 0.28134918,0.46891534 0 0 1 0.28112,-0.4692 z m 0.94516,0 a 0.28134918,0.46891534 0 0 1 0.28112,0.4692 0.28134918,0.46891534 0 0 1 -0.28112,0.4687 0.28134918,0.46891534 0 0 1 -0.28163,-0.4687 0.28134918,0.46891534 0 0 1 0.28163,-0.4692 z m 0.94465,0 a 0.28134918,0.46891534 0 0 1 0.28164,0.4692 0.28134918,0.46891534 0 0 1 -0.28164,0.4687 0.28134918,0.46891534 0 0 1 -0.28112,-0.4687 0.28134918,0.46891534 0 0 1 0.28112,-0.4692 z m 0.94517,0 a 0.28134918,0.46891534 0 0 1 0.28112,0.4692 0.28134918,0.46891534 0 0 1 -0.28112,0.4687 0.28134918,0.46891534 0 0 1 -0.28164,-0.4687 0.28134918,0.46891534 0 0 1 0.28164,-0.4692 z m 0.94464,0 a 0.28134918,0.46891534 0 0 1 0.28112,0.4692 0.28134918,0.46891534 0 0 1 -0.28112,0.4687 0.28134918,0.46891534 0 0 1 -0.28164,-0.4687 0.28134918,0.46891534 0 0 1 0.28164,-0.4692 z m 0.94465,0 a 0.28134918,0.46891534 0 0 1 0.28163,0.4692 0.28134918,0.46891534 0 0 1 -0.28163,0.4687 0.28134918,0.46891534 0 0 1 -0.28112,-0.4687 0.28134918,0.46891534 0 0 1 0.28112,-0.4692 z m 0.94516,0 a 0.28134918,0.46891534 0 0 1 0.28112,0.4692 0.28134918,0.46891534 0 0 1 -0.28112,0.4687 0.28134918,0.46891534 0 0 1 -0.28164,-0.4687 0.28134918,0.46891534 0 0 1 0.28164,-0.4692 z m 0.94464,0 a 0.28134918,0.46891534 0 0 1 0.28164,0.4692 0.28134918,0.46891534 0 0 1 -0.28164,0.4687 0.28134918,0.46891534 0 0 1 -0.28112,-0.4687 0.28134918,0.46891534 0 0 1 0.28112,-0.4692 z m 0.94517,0 a 0.28134918,0.46891534 0 0 1 0.28111,0.4692 0.28134918,0.46891534 0 0 1 -0.28111,0.4687 0.28134918,0.46891534 0 0 1 -0.28164,-0.4687 0.28134918,0.46891534 0 0 1 0.28164,-0.4692 z m 0.94464,0 a 0.28134918,0.46891534 0 0 1 0.28164,0.4692 0.28134918,0.46891534 0 0 1 -0.28164,0.4687 0.28134918,0.46891534 0 0 1 -0.28112,-0.4687 0.28134918,0.46891534 0 0 1 0.28112,-0.4692 z m 0.94465,0 a 0.28134918,0.46891534 0 0 1 0.28163,0.4692 0.28134918,0.46891534 0 0 1 -0.28163,0.4687 0.28134918,0.46891534 0 0 1 -0.28112,-0.4687 0.28134918,0.46891534 0 0 1 0.28112,-0.4692 z m 0.94516,0 a 0.28134918,0.46891534 0 0 1 0.28112,0.4692 0.28134918,0.46891534 0 0 1 -0.28112,0.4687 0.28134918,0.46891534 0 0 1 -0.28164,-0.4687 0.28134918,0.46891534 0 0 1 0.28164,-0.4692 z m 0.94464,0 a 0.28134918,0.46891534 0 0 1 0.28164,0.4692 0.28134918,0.46891534 0 0 1 -0.28164,0.4687 0.28134918,0.46891534 0 0 1 -0.28112,-0.4687 0.28134918,0.46891534 0 0 1 0.28112,-0.4692 z m 0.94516,0 a 0.28134918,0.46891534 0 0 1 0.28112,0.4692 0.28134918,0.46891534 0 0 1 -0.28112,0.4687 0.28134918,0.46891534 0 0 1 -0.28163,-0.4687 0.28134918,0.46891534 0 0 1 0.28163,-0.4692 z m 0.94465,0 a 0.28134918,0.46891534 0 0 1 0.28164,0.4692 0.28134918,0.46891534 0 0 1 -0.28164,0.4687 0.28134918,0.46891534 0 0 1 -0.28112,-0.4687 0.28134918,0.46891534 0 0 1 0.28112,-0.4692 z m 0.94516,0 a 0.28134918,0.46891534 0 0 1 0.28112,0.4692 0.28134918,0.46891534 0 0 1 -0.28112,0.4687 0.28134918,0.46891534 0 0 1 -0.28163,-0.4687 0.28134918,0.46891534 0 0 1 0.28163,-0.4692 z m 0.94465,0 a 0.28134918,0.46891534 0 0 1 0.28112,0.4692 0.28134918,0.46891534 0 0 1 -0.28112,0.4687 0.28134918,0.46891534 0 0 1 -0.28112,-0.4687 0.28134918,0.46891534 0 0 1 0.28112,-0.4692 z m 0.94464,0 a 0.28134918,0.46891534 0 0 1 0.28164,0.4692 0.28134918,0.46891534 0 0 1 -0.28164,0.4687 0.28134918,0.46891534 0 0 1 -0.28112,-0.4687 0.28134918,0.46891534 0 0 1 0.28112,-0.4692 z m 0.94516,0 a 0.28134918,0.46891534 0 0 1 0.28112,0.4692 0.28134918,0.46891534 0 0 1 -0.28112,0.4687 0.28134918,0.46891534 0 0 1 -0.28163,-0.4687 0.28134918,0.46891534 0 0 1 0.28163,-0.4692 z m 0.94465,0 a 0.28134918,0.46891534 0 0 1 0.28164,0.4692 0.28134918,0.46891534 0 0 1 -0.28164,0.4687 0.28134918,0.46891534 0 0 1 -0.28112,-0.4687 0.28134918,0.46891534 0 0 1 0.28112,-0.4692 z m 0.94516,0 a 0.28134918,0.46891534 0 0 1 0.28112,0.4692 0.28134918,0.46891534 0 0 1 -0.28112,0.4687 0.28134918,0.46891534 0 0 1 -0.28164,-0.4687 0.28134918,0.46891534 0 0 1 0.28164,-0.4692 z m 0.94465,0 a 0.28134918,0.46891534 0 0 1 0.28112,0.4692 0.28134918,0.46891534 0 0 1 -0.28112,0.4687 0.28134918,0.46891534 0 0 1 -0.28112,-0.4687 0.28134918,0.46891534 0 0 1 0.28112,-0.4692 z m 0.94516,0 a 0.28134918,0.46891534 0 0 1 0.28112,0.4692 0.28134918,0.46891534 0 0 1 -0.28112,0.4687 0.28134918,0.46891534 0 0 1 -0.28164,-0.4687 0.28134918,0.46891534 0 0 1 0.28164,-0.4692 z m 0.94464,0 a 0.28134918,0.46891534 0 0 1 0.28112,0.4692 0.28134918,0.46891534 0 0 1 -0.28112,0.4687 0.28134918,0.46891534 0 0 1 -0.28163,-0.4687 0.28134918,0.46891534 0 0 1 0.28163,-0.4692 z m 0.94465,0 a 0.28134918,0.46891534 0 0 1 0.28163,0.4692 0.28134918,0.46891534 0 0 1 -0.28163,0.4687 0.28134918,0.46891534 0 0 1 -0.28112,-0.4687 0.28134918,0.46891534 0 0 1 0.28112,-0.4692 z m 0.94516,0 a 0.28134918,0.46891534 0 0 1 0.28112,0.4692 0.28134918,0.46891534 0 0 1 -0.28112,0.4687 0.28134918,0.46891534 0 0 1 -0.28164,-0.4687 0.28134918,0.46891534 0 0 1 0.28164,-0.4692 z m 0.94465,0 a 0.28134918,0.46891534 0 0 1 0.28163,0.4692 0.28134918,0.46891534 0 0 1 -0.28163,0.4687 0.28134918,0.46891534 0 0 1 -0.28112,-0.4687 0.28134918,0.46891534 0 0 1 0.28112,-0.4692 z m 0.94516,0 a 0.28134918,0.46891534 0 0 1 0.28112,0.4692 0.28134918,0.46891534 0 0 1 -0.28112,0.4687 0.28134918,0.46891534 0 0 1 -0.28164,-0.4687 0.28134918,0.46891534 0 0 1 0.28164,-0.4692 z m 0.94464,0 a 0.28134918,0.46891534 0 0 1 0.28112,0.4692 0.28134918,0.46891534 0 0 1 -0.28112,0.4687 0.28134918,0.46891534 0 0 1 -0.28112,-0.4687 0.28134918,0.46891534 0 0 1 0.28112,-0.4692 z m 0.94465,0 a 0.28134918,0.46891534 0 0 1 0.28163,0.4692 0.28134918,0.46891534 0 0 1 -0.28163,0.4687 0.28134918,0.46891534 0 0 1 -0.28112,-0.4687 0.28134918,0.46891534 0 0 1 0.28112,-0.4692 z m 0.94516,0 a 0.28134918,0.46891534 0 0 1 0.28111,0.4692 0.28134918,0.46891534 0 0 1 -0.28111,0.4687 0.28134918,0.46891534 0 0 1 -0.28165,-0.4687 0.28134918,0.46891534 0 0 1 0.28165,-0.4692 z m 0.94464,0 a 0.28134918,0.46891534 0 0 1 0.28164,0.4692 0.28134918,0.46891534 0 0 1 -0.28164,0.4687 0.28134918,0.46891534 0 0 1 -0.28112,-0.4687 0.28134918,0.46891534 0 0 1 0.28112,-0.4692 z m 0.94516,0 a 0.28134918,0.46891534 0 0 1 0.28112,0.4692 0.28134918,0.46891534 0 0 1 -0.28112,0.4687 0.28134918,0.46891534 0 0 1 -0.28164,-0.4687 0.28134918,0.46891534 0 0 1 0.28164,-0.4692 z m 0.94464,0 a 0.28134918,0.46891534 0 0 1 0.28112,0.4692 0.28134918,0.46891534 0 0 1 -0.28112,0.4687 0.28134918,0.46891534 0 0 1 -0.28112,-0.4687 0.28134918,0.46891534 0 0 1 0.28112,-0.4692 z m 0.94465,0 a 0.28134918,0.46891534 0 0 1 0.28163,0.4692 0.28134918,0.46891534 0 0 1 -0.28163,0.4687 0.28134918,0.46891534 0 0 1 -0.28112,-0.4687 0.28134918,0.46891534 0 0 1 0.28112,-0.4692 z m 0.94516,0 a 0.28134918,0.46891534 0 0 1 0.28112,0.4692 0.28134918,0.46891534 0 0 1 -0.28112,0.4687 0.28134918,0.46891534 0 0 1 -0.28164,-0.4687 0.28134918,0.46891534 0 0 1 0.28164,-0.4692 z m 0.94464,0 a 0.28134918,0.46891534 0 0 1 0.28164,0.4692 0.28134918,0.46891534 0 0 1 -0.28164,0.4687 0.28134918,0.46891534 0 0 1 -0.28112,-0.4687 0.28134918,0.46891534 0 0 1 0.28112,-0.4692 z m 0.94517,0 a 0.28134918,0.46891534 0 0 1 0.28112,0.4692 0.28134918,0.46891534 0 0 1 -0.28112,0.4687 0.28134918,0.46891534 0 0 1 -0.28164,-0.4687 0.28134918,0.46891534 0 0 1 0.28164,-0.4692 z m 0.94464,0 a 0.28134918,0.46891534 0 0 1 0.28112,0.4692 0.28134918,0.46891534 0 0 1 -0.28112,0.4687 0.28134918,0.46891534 0 0 1 -0.28112,-0.4687 0.28134918,0.46891534 0 0 1 0.28112,-0.4692 z m 0.94465,0 a 0.28134918,0.46891534 0 0 1 0.28163,0.4692 0.28134918,0.46891534 0 0 1 -0.28163,0.4687 0.28134918,0.46891534 0 0 1 -0.28112,-0.4687 0.28134918,0.46891534 0 0 1 0.28112,-0.4692 z m 0.94516,0 a 0.28134918,0.46891534 0 0 1 0.28112,0.4692 0.28134918,0.46891534 0 0 1 -0.28112,0.4687 0.28134918,0.46891534 0 0 1 -0.28164,-0.4687 0.28134918,0.46891534 0 0 1 0.28164,-0.4692 z m 0.94464,0 a 0.28134918,0.46891534 0 0 1 0.28164,0.4692 0.28134918,0.46891534 0 0 1 -0.28164,0.4687 0.28134918,0.46891534 0 0 1 -0.28112,-0.4687 0.28134918,0.46891534 0 0 1 0.28112,-0.4692 z m 0.94517,0 a 0.28134918,0.46891534 0 0 1 0.28112,0.4692 0.28134918,0.46891534 0 0 1 -0.28112,0.4687 0.28134918,0.46891534 0 0 1 -0.28164,-0.4687 0.28134918,0.46891534 0 0 1 0.28164,-0.4692 z m 0.94464,0 a 0.28134918,0.46891534 0 0 1 0.28164,0.4692 0.28134918,0.46891534 0 0 1 -0.28164,0.4687 0.28134918,0.46891534 0 0 1 -0.28112,-0.4687 0.28134918,0.46891534 0 0 1 0.28112,-0.4692 z m 0.94465,0 a 0.28134918,0.46891534 0 0 1 0.28163,0.4692 0.28134918,0.46891534 0 0 1 -0.28163,0.4687 0.28134918,0.46891534 0 0 1 -0.28112,-0.4687 0.28134918,0.46891534 0 0 1 0.28112,-0.4692 z m 0.94516,0 a 0.28134918,0.46891534 0 0 1 0.28112,0.4692 0.28134918,0.46891534 0 0 1 -0.28112,0.4687 0.28134918,0.46891534 0 0 1 -0.28112,-0.4687 0.28134918,0.46891534 0 0 1 0.28112,-0.4692 z m 0.94464,0 a 0.28134918,0.46891534 0 0 1 0.28164,0.4692 0.28134918,0.46891534 0 0 1 -0.28164,0.4687 0.28134918,0.46891534 0 0 1 -0.28112,-0.4687 0.28134918,0.46891534 0 0 1 0.28112,-0.4692 z m 0.94516,0 a 0.28134918,0.46891534 0 0 1 0.28112,0.4692 0.28134918,0.46891534 0 0 1 -0.28112,0.4687 0.28134918,0.46891534 0 0 1 -0.28163,-0.4687 0.28134918,0.46891534 0 0 1 0.28163,-0.4692 z m 0.94465,0 a 0.28134918,0.46891534 0 0 1 0.28164,0.4692 0.28134918,0.46891534 0 0 1 -0.28164,0.4687 0.28134918,0.46891534 0 0 1 -0.28112,-0.4687 0.28134918,0.46891534 0 0 1 0.28112,-0.4692 z m 0.94516,0 a 0.28134918,0.46891534 0 0 1 0.28112,0.4692 0.28134918,0.46891534 0 0 1 -0.28112,0.4687 0.28134918,0.46891534 0 0 1 -0.28163,-0.4687 0.28134918,0.46891534 0 0 1 0.28163,-0.4692 z m 0.94465,0 a 0.28134918,0.46891534 0 0 1 0.28112,0.4692 0.28134918,0.46891534 0 0 1 -0.28112,0.4687 0.28134918,0.46891534 0 0 1 -0.28112,-0.4687 0.28134918,0.46891534 0 0 1 0.28112,-0.4692 z m 0.94464,0 a 0.28134918,0.46891534 0 0 1 0.28164,0.4692 0.28134918,0.46891534 0 0 1 -0.28164,0.4687 0.28134918,0.46891534 0 0 1 -0.28112,-0.4687 0.28134918,0.46891534 0 0 1 0.28112,-0.4692 z m 0.94516,0 a 0.28134918,0.46891534 0 0 1 0.28112,0.4692 0.28134918,0.46891534 0 0 1 -0.28112,0.4687 0.28134918,0.46891534 0 0 1 -0.28163,-0.4687 0.28134918,0.46891534 0 0 1 0.28163,-0.4692 z m 0.94465,0 a 0.28134918,0.46891534 0 0 1 0.28164,0.4692 0.28134918,0.46891534 0 0 1 -0.28164,0.4687 0.28134918,0.46891534 0 0 1 -0.28112,-0.4687 0.28134918,0.46891534 0 0 1 0.28112,-0.4692 z m 0.94516,0 a 0.28134918,0.46891534 0 0 1 0.28112,0.4692 0.28134918,0.46891534 0 0 1 -0.28112,0.4687 0.28134918,0.46891534 0 0 1 -0.28164,-0.4687 0.28134918,0.46891534 0 0 1 0.28164,-0.4692 z m 0.94465,0 a 0.28134918,0.46891534 0 0 1 0.28163,0.4692 0.28134918,0.46891534 0 0 1 -0.28163,0.4687 0.28134918,0.46891534 0 0 1 -0.28112,-0.4687 0.28134918,0.46891534 0 0 1 0.28112,-0.4692 z m 0.94516,0 a 0.28134918,0.46891534 0 0 1 0.28112,0.4692 0.28134918,0.46891534 0 0 1 -0.28112,0.4687 0.28134918,0.46891534 0 0 1 -0.28164,-0.4687 0.28134918,0.46891534 0 0 1 0.28164,-0.4692 z m 0.94464,0 a 0.28134918,0.46891534 0 0 1 0.28112,0.4692 0.28134918,0.46891534 0 0 1 -0.28112,0.4687 0.28134918,0.46891534 0 0 1 -0.28163,-0.4687 0.28134918,0.46891534 0 0 1 0.28163,-0.4692 z m 0.94465,0 a 0.28134918,0.46891534 0 0 1 0.28164,0.4692 0.28134918,0.46891534 0 0 1 -0.28164,0.4687 0.28134918,0.46891534 0 0 1 -0.28112,-0.4687 0.28134918,0.46891534 0 0 1 0.28112,-0.4692 z m 0.94516,0 a 0.28134918,0.46891534 0 0 1 0.28112,0.4692 0.28134918,0.46891534 0 0 1 -0.28112,0.4687 0.28134918,0.46891534 0 0 1 -0.28164,-0.4687 0.28134918,0.46891534 0 0 1 0.28164,-0.4692 z m 0.94465,0 a 0.28134918,0.46891534 0 0 1 0.28163,0.4692 0.28134918,0.46891534 0 0 1 -0.28163,0.4687 0.28134918,0.46891534 0 0 1 -0.28112,-0.4687 0.28134918,0.46891534 0 0 1 0.28112,-0.4692 z m 0.94516,0 a 0.28134918,0.46891534 0 0 1 0.28112,0.4692 0.28134918,0.46891534 0 0 1 -0.28112,0.4687 0.28134918,0.46891534 0 0 1 -0.28164,-0.4687 0.28134918,0.46891534 0 0 1 0.28164,-0.4692 z m 0.94464,0 a 0.28134918,0.46891534 0 0 1 0.28164,0.4692 0.28134918,0.46891534 0 0 1 -0.28164,0.4687 0.28134918,0.46891534 0 0 1 -0.28112,-0.4687 0.28134918,0.46891534 0 0 1 0.28112,-0.4692 z m 0.94465,0 a 0.28134918,0.46891534 0 0 1 0.28163,0.4692 0.28134918,0.46891534 0 0 1 -0.28163,0.4687 0.28134918,0.46891534 0 0 1 -0.28112,-0.4687 0.28134918,0.46891534 0 0 1 0.28112,-0.4692 z m 0.94516,0 a 0.28134918,0.46891534 0 0 1 0.28112,0.4692 0.28134918,0.46891534 0 0 1 -0.28112,0.4687 0.28134918,0.46891534 0 0 1 -0.28164,-0.4687 0.28134918,0.46891534 0 0 1 0.28164,-0.4692 z m 0.94465,0 a 0.28134918,0.46891534 0 0 1 0.28163,0.4692 0.28134918,0.46891534 0 0 1 -0.28163,0.4687 0.28134918,0.46891534 0 0 1 -0.28112,-0.4687 0.28134918,0.46891534 0 0 1 0.28112,-0.4692 z m 0.94516,0 a 0.28134918,0.46891534 0 0 1 0.28112,0.4692 0.28134918,0.46891534 0 0 1 -0.28112,0.4687 0.28134918,0.46891534 0 0 1 -0.28164,-0.4687 0.28134918,0.46891534 0 0 1 0.28164,-0.4692 z m 0.94464,0 a 0.28134918,0.46891534 0 0 1 0.28164,0.4692 0.28134918,0.46891534 0 0 1 -0.28164,0.4687 0.28134918,0.46891534 0 0 1 -0.28112,-0.4687 0.28134918,0.46891534 0 0 1 0.28112,-0.4692 z" /><path
       id="path46074"
       style="fill:#ffffff;stroke-width:1.35335;stroke-linecap:round;stroke-linejoin:round;paint-order:stroke fill markers"
       d="m 15.901536,-3.02828 v 0.84697 c -0.81253,0.46753 -1.46572,1.17604 -1.86706,2.0283 a 1.5877565,0.74498063 0 0 1 0.2806,0.41755 1.5877565,0.74498063 0 0 1 -0.6196,0.58653 c -0.0157,0.0749 -0.0277,0.15115 -0.0398,0.22737 a 1.5877565,0.74498063 0 0 1 0.65939,0.60358 1.5877565,0.74498063 0 0 1 -0.71881,0.61805 v 0.17674 a 1.5877565,0.74498063 0 0 1 0.71881,0.62218 1.5877565,0.74498063 0 0 1 -0.71881,0.61857 v 0.18087 a 1.5877565,0.74498063 0 0 1 0.71881,0.61805 1.5877565,0.74498063 0 0 1 -0.71881,0.61805 v 0.18086 a 1.5877565,0.74498063 0 0 1 0.71881,0.61805 1.5877565,0.74498063 0 0 1 -0.71881,0.61857 v 0.18035 a 1.5877565,0.74498063 0 0 1 0.71881,0.61857 1.5877565,0.74498063 0 0 1 -0.71881,0.61805 v 0.18087 a 1.5877565,0.74498063 0 0 1 0.71881,0.61805 1.5877565,0.74498063 0 0 1 -0.71881,0.61856 v 0.18035 a 1.5877565,0.74498063 0 0 1 0.71881,0.61857 1.5877565,0.74498063 0 0 1 -0.71881,0.61805 v 0.18087 a 1.5877565,0.74498063 0 0 1 0.71881,0.61805 1.5877565,0.74498063 0 0 1 -0.71881,0.61805 v 0.18087 a 1.5877565,0.74498063 0 0 1 0.71881,0.61856 1.5877565,0.74498063 0 0 1 -0.71881,0.61805 v 0.18087 a 1.5877565,0.74498063 0 0 1 0.71881,0.61805 1.5877565,0.74498063 0 0 1 -0.71881,0.61805 v 0.18087 a 1.5877565,0.74498063 0 0 1 0.71881,0.61805 1.5877565,0.74498063 0 0 1 -0.71881,0.61856 v 0.18087 a 1.5877565,0.74498063 0 0 1 0.71881,0.61805 1.5877565,0.74498063 0 0 1 -0.71881,0.61805 v 0.18087 a 1.5877565,0.74498063 0 0 1 0.71881,0.61805 1.5877565,0.74498063 0 0 1 -0.71881,0.61857 v 0.18086 a 1.5877565,0.74498063 0 0 1 0.71881,0.61805 1.5877565,0.74498063 0 0 1 -0.71881,0.61805 v 0.18087 a 1.5877565,0.74498063 0 0 1 0.71881,0.61805 1.5877565,0.74498063 0 0 1 -0.71881,0.61857 v 0.17622 a 1.5877565,0.74498063 0 0 1 0.71881,0.6227 1.5877565,0.74498063 0 0 1 -0.71881,0.61805 v 0.18086 a 1.5877565,0.74498063 0 0 1 0.71881,0.61805 1.5877565,0.74498063 0 0 1 -0.71881,0.61805 v 0.18087 a 1.5877565,0.74498063 0 0 1 0.71881,0.61857 1.5877565,0.74498063 0 0 1 -0.71881,0.61805 v 0.18087 a 1.5877565,0.74498063 0 0 1 0.71881,0.61805 1.5877565,0.74498063 0 0 1 -0.71881,0.61805 v 0.18086 a 1.5877565,0.74498063 0 0 1 0.71881,0.61857 1.5877565,0.74498063 0 0 1 -0.71881,0.61805 v 0.18087 a 1.5877565,0.74498063 0 0 1 0.71881,0.61805 1.5877565,0.74498063 0 0 1 -0.71881,0.6227 v 0.17622 a 1.5877565,0.74498063 0 0 1 0.71881,0.61805 1.5877565,0.74498063 0 0 1 -0.71881,0.61856 v 0.17622 a 1.5877565,0.74498063 0 0 1 0.71881,0.6227 1.5877565,0.74498063 0 0 1 -0.71881,0.61805 v 0.18087 a 1.5877565,0.74498063 0 0 1 0.71881,0.61805 1.5877565,0.74498063 0 0 1 -0.71881,0.61857 v 0.18035 a 1.5877565,0.74498063 0 0 1 0.71881,0.61856 1.5877565,0.74498063 0 0 1 -0.71881,0.61805 v 0.18087 a 1.5877565,0.74498063 0 0 1 0.71881,0.61805 1.5877565,0.74498063 0 0 1 -0.71881,0.61857 v 0.18035 a 1.5877565,0.74498063 0 0 1 0.71881,0.61857 1.5877565,0.74498063 0 0 1 -0.71881,0.61805 v 0.18086 a 1.5877565,0.74498063 0 0 1 0.71881,0.61805 1.5877565,0.74498063 0 0 1 -0.71881,0.6227 v 0.17622 a 1.5877565,0.74498063 0 0 1 0.71881,0.61857 1.5877565,0.74498063 0 0 1 -0.71881,0.61805 v 0.18087 a 1.5877565,0.74498063 0 0 1 0.71881,0.61805 1.5877565,0.74498063 0 0 1 -0.71881,0.61805 v 0.18086 a 1.5877565,0.74498063 0 0 1 0.71881,0.61805 1.5877565,0.74498063 0 0 1 -0.71881,0.61857 v 0.18087 a 1.5877565,0.74498063 0 0 1 0.71881,0.61805 1.5877565,0.74498063 0 0 1 -0.71881,0.61805 v 0.18087 a 1.5877565,0.74498063 0 0 1 0.71881,0.61805 1.5877565,0.74498063 0 0 1 -0.71881,0.61856 v 0.18087 a 1.5877565,0.74498063 0 0 1 0.71881,0.61805 1.5877565,0.74498063 0 0 1 -0.71881,0.61805 v 0.18087 a 1.5877565,0.74498063 0 0 1 0.71881,0.61805 1.5877565,0.74498063 0 0 1 -0.71881,0.61856 v 0.18036 a 1.5877565,0.74498063 0 0 1 0.71881,0.61856 1.5877565,0.74498063 0 0 1 -0.71881,0.61805 v 0.18087 a 1.5877565,0.74498063 0 0 1 0.71881,0.61805 1.5877565,0.74498063 0 0 1 -0.71881,0.61805 v 0.18087 a 1.5877565,0.74498063 0 0 1 0.71881,0.61856 1.5877565,0.74498063 0 0 1 -0.71881,0.61805 v 0.18087 a 1.5877565,0.74498063 0 0 1 0.71881,0.61805 1.5877565,0.74498063 0 0 1 -0.71881,0.61805 v 0.18087 a 1.5877565,0.74498063 0 0 1 0.71881,0.61857 1.5877565,0.74498063 0 0 1 -0.71881,0.61805 v 0.18086 a 1.5877565,0.74498063 0 0 1 0.71881,0.61805 1.5877565,0.74498063 0 0 1 -0.71881,0.61805 v 0.18087 a 1.5877565,0.74498063 0 0 1 0.71881,0.61805 1.5877565,0.74498063 0 0 1 -0.71881,0.62322 v 0.17622 a 1.5877565,0.74498063 0 0 1 0.71881,0.61805 1.5877565,0.74498063 0 0 1 -0.71881,0.61805 v 0.18086 a 1.5877565,0.74498063 0 0 1 0.71881,0.61805 1.5877565,0.74498063 0 0 1 -0.71881,0.61857 v 0.18087 a 1.5877565,0.74498063 0 0 1 0.71881,0.61805 1.5877565,0.74498063 0 0 1 -0.71881,0.61805 v 0.18087 a 1.5877565,0.74498063 0 0 1 0.71881,0.61805 1.5877565,0.74498063 0 0 1 -0.71881,0.61856 v 0.18035 a 1.5877565,0.74498063 0 0 1 0.71881,0.61857 1.5877565,0.74498063 0 0 1 -0.71881,0.61805 v 0.18087 a 1.5877565,0.74498063 0 0 1 0.71881,0.61805 1.5877565,0.74498063 0 0 1 -0.71881,0.61805 v 0.18087 a 1.5877565,0.74498063 0 0 1 0.71881,0.61856 1.5877565,0.74498063 0 0 1 -0.71881,0.62219 v 0.17673 a 1.5877565,0.74498063 0 0 1 0.71881,0.61805 1.5877565,0.74498063 0 0 1 -0.71881,0.61805 v 0.18087 a 1.5877565,0.74498063 0 0 1 0.71881,0.61857 1.5877565,0.74498063 0 0 1 -0.71881,0.61805 v 0.18086 a 1.5877565,0.74498063 0 0 1 0.71881,0.61805 1.5877565,0.74498063 0 0 1 -0.71881,0.61805 v 0.18087 a 1.5877565,0.74498063 0 0 1 0.71881,0.61805 1.5877565,0.74498063 0 0 1 -0.71881,0.61857 v 0.18087 a 1.5877565,0.74498063 0 0 1 0.71881,0.61805 1.5877565,0.74498063 0 0 1 -0.71881,0.61805 v 0.18086 a 1.5877565,0.74498063 0 0 1 0.71881,0.61805 1.5877565,0.74498063 0 0 1 -0.71881,0.61857 v 0.18035 a 1.5877565,0.74498063 0 0 1 0.71881,0.61861 1.5877565,0.74498063 0 0 1 -0.71881,0.6227 v 0.1762 a 1.5877565,0.74498063 0 0 1 0.71881,0.618 1.5877565,0.74498063 0 0 1 -0.71881,0.6186 v 0.1803 a 1.5877565,0.74498063 0 0 1 0.71881,0.6186 1.5877565,0.74498063 0 0 1 -0.71881,0.6181 v 0.1808 a 1.5877565,0.74498063 0 0 1 0.71881,0.6181 1.5877565,0.74498063 0 0 1 -0.71881,0.618 v 0.1809 a 1.5877565,0.74498063 0 0 1 0.71881,0.6186 1.5877565,0.74498063 0 0 1 -0.71881,0.618 v 0.1809 a 1.5877565,0.74498063 0 0 1 0.71881,0.618 1.5877565,0.74498063 0 0 1 -0.71881,0.6181 v 0.1809 a 1.5877565,0.74498063 0 0 1 0.71881,0.618 1.5877565,0.74498063 0 0 1 -0.71881,0.6186 v 0.1808 a 1.5877565,0.74498063 0 0 1 0.71881,0.6181 1.5877565,0.74498063 0 0 1 -0.60771,0.5746 4.4735904,3.4220095 0 0 1 2.01073,2.8567 4.4735904,3.4220095 0 0 1 -1.78904,2.7037 1.5877565,0.74498063 0 0 1 0.38602,0.4868 1.5877565,0.74498063 0 0 1 -0.71881,0.6232 v 0.1711 a 1.5877565,0.74498063 0 0 1 0.71881,0.6227 1.5877565,0.74498063 0 0 1 -0.71881,0.6232 v 0.171 a 1.5877565,0.74498063 0 0 1 0.71881,0.6233 1.5877565,0.74498063 0 0 1 -0.71881,0.6232 v 0.1705 a 1.5877565,0.74498063 0 0 1 0.71881,0.6232 1.5877565,0.74498063 0 0 1 -0.71881,0.6232 v 0.1711 a 1.5877565,0.74498063 0 0 1 0.71881,0.6232 1.5877565,0.74498063 0 0 1 -0.71881,0.6227 v 0.1711 a 1.5877565,0.74498063 0 0 1 0.71881,0.6232 1.5877565,0.74498063 0 0 1 -0.71881,0.6232 v 0.171 a 1.5877565,0.74498063 0 0 1 0.71881,0.6233 1.5877565,0.74498063 0 0 1 -0.71881,0.6227 v 0.171 a 1.5877565,0.74498063 0 0 1 0.71881,0.6232 1.5877565,0.74498063 0 0 1 -0.71881,0.6232 v 0.1711 a 1.5877565,0.74498063 0 0 1 0.71881,0.6227 1.5877565,0.74498063 0 0 1 -0.71881,0.6232 v 0.1711 a 1.5877565,0.74498063 0 0 1 0.71881,0.6232 1.5877565,0.74498063 0 0 1 -0.71881,0.6232 v 0.171 a 1.5877565,0.74498063 0 0 1 0.71881,0.6228 1.5877565,0.74498063 0 0 1 -0.69453,0.6149 c 0.006,0.065 0.0122,0.1308 0.0212,0.1953 a 1.5877565,0.74498063 0 0 1 0.67334,0.6072 1.5877565,0.74498063 0 0 1 -0.38033,0.4832 c 0.37454,0.9204 1.03764,1.6904 1.87843,2.1999 v 0.7147 h 32.6223 32.6223 v -0.7147 c 0.8408,-0.5095 1.5039,-1.2795 1.87844,-2.1999 a 1.5877565,0.74498063 0 0 1 -0.38033,-0.4832 1.5877565,0.74498063 0 0 1 0.67333,-0.6072 c 0.009,-0.064 0.0152,-0.1299 0.0212,-0.1953 a 1.5877565,0.74498063 0 0 1 -0.69452,-0.6149 1.5877565,0.74498063 0 0 1 0.71881,-0.6228 v -0.171 a 1.5877565,0.74498063 0 0 1 -0.71881,-0.6232 1.5877565,0.74498063 0 0 1 0.71881,-0.6232 v -0.1711 a 1.5877565,0.74498063 0 0 1 -0.71881,-0.6232 1.5877565,0.74498063 0 0 1 0.71881,-0.6227 v -0.1711 a 1.5877565,0.74498063 0 0 1 -0.71881,-0.6232 1.5877565,0.74498063 0 0 1 0.71881,-0.6232 v -0.171 a 1.5877565,0.74498063 0 0 1 -0.71881,-0.6227 1.5877565,0.74498063 0 0 1 0.71881,-0.6233 v -0.171 a 1.5877565,0.74498063 0 0 1 -0.71881,-0.6232 1.5877565,0.74498063 0 0 1 0.71881,-0.6232 v -0.1711 a 1.5877565,0.74498063 0 0 1 -0.71881,-0.6227 1.5877565,0.74498063 0 0 1 0.71881,-0.6232 v -0.1711 a 1.5877565,0.74498063 0 0 1 -0.71881,-0.6232 1.5877565,0.74498063 0 0 1 0.71881,-0.6232 v -0.1705 a 1.5877565,0.74498063 0 0 1 -0.71881,-0.6232 1.5877565,0.74498063 0 0 1 0.71881,-0.6233 v -0.171 a 1.5877565,0.74498063 0 0 1 -0.71881,-0.6232 1.5877565,0.74498063 0 0 1 0.71881,-0.6227 v -0.1711 a 1.5877565,0.74498063 0 0 1 -0.71881,-0.6232 1.5877565,0.74498063 0 0 1 0.38602,-0.4868 4.4735904,3.4220095 0 0 1 -1.78904,-2.7037 4.4735904,3.4220095 0 0 1 2.01073,-2.8567 1.5877565,0.74498063 0 0 1 -0.60771,-0.5746 1.5877565,0.74498063 0 0 1 0.71881,-0.6181 v -0.1808 a 1.5877565,0.74498063 0 0 1 -0.71881,-0.6186 1.5877565,0.74498063 0 0 1 0.71881,-0.618 v -0.1809 a 1.5877565,0.74498063 0 0 1 -0.71881,-0.6181 1.5877565,0.74498063 0 0 1 0.71881,-0.618 v -0.1809 a 1.5877565,0.74498063 0 0 1 -0.71881,-0.618 1.5877565,0.74498063 0 0 1 0.71881,-0.6186 v -0.1809 a 1.5877565,0.74498063 0 0 1 -0.71881,-0.618 1.5877565,0.74498063 0 0 1 0.71881,-0.6181 v -0.1808 a 1.5877565,0.74498063 0 0 1 -0.71881,-0.6181 1.5877565,0.74498063 0 0 1 0.71881,-0.6186 v -0.1803 a 1.5877565,0.74498063 0 0 1 -0.71881,-0.6186 1.5877565,0.74498063 0 0 1 0.71881,-0.618 v -0.1762 a 1.5877565,0.74498063 0 0 1 -0.71881,-0.6227 1.5877565,0.74498063 0 0 1 0.71881,-0.61861 v -0.18035 a 1.5877565,0.74498063 0 0 1 -0.71881,-0.61857 1.5877565,0.74498063 0 0 1 0.71881,-0.61805 v -0.18086 a 1.5877565,0.74498063 0 0 1 -0.71881,-0.61805 1.5877565,0.74498063 0 0 1 0.71881,-0.61805 V 75.9948 a 1.5877565,0.74498063 0 0 1 -0.71881,-0.61857 1.5877565,0.74498063 0 0 1 0.71881,-0.61805 v -0.18087 a 1.5877565,0.74498063 0 0 1 -0.71881,-0.61805 1.5877565,0.74498063 0 0 1 0.71881,-0.61805 v -0.18086 a 1.5877565,0.74498063 0 0 1 -0.71881,-0.61805 1.5877565,0.74498063 0 0 1 0.71881,-0.61857 v -0.18087 a 1.5877565,0.74498063 0 0 1 -0.71881,-0.61805 1.5877565,0.74498063 0 0 1 0.71881,-0.61805 v -0.17673 a 1.5877565,0.74498063 0 0 1 -0.71881,-0.62219 1.5877565,0.74498063 0 0 1 0.71881,-0.61856 v -0.18087 a 1.5877565,0.74498063 0 0 1 -0.71881,-0.61805 1.5877565,0.74498063 0 0 1 0.71881,-0.61805 v -0.18087 a 1.5877565,0.74498063 0 0 1 -0.71881,-0.61805 1.5877565,0.74498063 0 0 1 0.71881,-0.61857 v -0.18035 a 1.5877565,0.74498063 0 0 1 -0.71881,-0.61856 1.5877565,0.74498063 0 0 1 0.71881,-0.61805 v -0.18087 a 1.5877565,0.74498063 0 0 1 -0.71881,-0.61805 1.5877565,0.74498063 0 0 1 0.71881,-0.61805 v -0.18087 a 1.5877565,0.74498063 0 0 1 -0.71881,-0.61857 1.5877565,0.74498063 0 0 1 0.71881,-0.61805 v -0.18086 a 1.5877565,0.74498063 0 0 1 -0.71881,-0.61805 1.5877565,0.74498063 0 0 1 0.71881,-0.61805 v -0.17622 a 1.5877565,0.74498063 0 0 1 -0.71881,-0.62322 1.5877565,0.74498063 0 0 1 0.71881,-0.61805 v -0.18087 a 1.5877565,0.74498063 0 0 1 -0.71881,-0.61805 1.5877565,0.74498063 0 0 1 0.71881,-0.61805 v -0.18086 a 1.5877565,0.74498063 0 0 1 -0.71881,-0.61805 1.5877565,0.74498063 0 0 1 0.71881,-0.61857 v -0.18087 a 1.5877565,0.74498063 0 0 1 -0.71881,-0.61805 1.5877565,0.74498063 0 0 1 0.71881,-0.61805 v -0.18087 a 1.5877565,0.74498063 0 0 1 -0.71881,-0.61805 1.5877565,0.74498063 0 0 1 0.71881,-0.61856 v -0.18087 a 1.5877565,0.74498063 0 0 1 -0.71881,-0.61805 1.5877565,0.74498063 0 0 1 0.71881,-0.61805 v -0.18087 a 1.5877565,0.74498063 0 0 1 -0.71881,-0.61805 1.5877565,0.74498063 0 0 1 0.71881,-0.61856 v -0.18036 a 1.5877565,0.74498063 0 0 1 -0.71881,-0.61856 1.5877565,0.74498063 0 0 1 0.71881,-0.61805 v -0.18087 a 1.5877565,0.74498063 0 0 1 -0.71881,-0.61805 1.5877565,0.74498063 0 0 1 0.71881,-0.61805 v -0.18087 a 1.5877565,0.74498063 0 0 1 -0.71881,-0.61856 1.5877565,0.74498063 0 0 1 0.71881,-0.61805 v -0.18087 a 1.5877565,0.74498063 0 0 1 -0.71881,-0.61805 1.5877565,0.74498063 0 0 1 0.71881,-0.61805 v -0.18087 a 1.5877565,0.74498063 0 0 1 -0.71881,-0.61857 1.5877565,0.74498063 0 0 1 0.71881,-0.61805 v -0.18086 a 1.5877565,0.74498063 0 0 1 -0.71881,-0.61805 1.5877565,0.74498063 0 0 1 0.71881,-0.61805 v -0.18087 a 1.5877565,0.74498063 0 0 1 -0.71881,-0.61805 1.5877565,0.74498063 0 0 1 0.71881,-0.61857 v -0.17622 a 1.5877565,0.74498063 0 0 1 -0.71881,-0.6227 1.5877565,0.74498063 0 0 1 0.71881,-0.61805 v -0.18086 a 1.5877565,0.74498063 0 0 1 -0.71881,-0.61805 1.5877565,0.74498063 0 0 1 0.71881,-0.61857 v -0.18035 a 1.5877565,0.74498063 0 0 1 -0.71881,-0.61857 1.5877565,0.74498063 0 0 1 0.71881,-0.61805 v -0.18087 a 1.5877565,0.74498063 0 0 1 -0.71881,-0.61805 1.5877565,0.74498063 0 0 1 0.71881,-0.61856 v -0.18035 a 1.5877565,0.74498063 0 0 1 -0.71881,-0.61857 1.5877565,0.74498063 0 0 1 0.71881,-0.61805 v -0.18087 a 1.5877565,0.74498063 0 0 1 -0.71881,-0.61805 1.5877565,0.74498063 0 0 1 0.71881,-0.6227 v -0.17622 a 1.5877565,0.74498063 0 0 1 -0.71881,-0.61856 1.5877565,0.74498063 0 0 1 0.71881,-0.61805 v -0.17622 a 1.5877565,0.74498063 0 0 1 -0.71881,-0.6227 1.5877565,0.74498063 0 0 1 0.71881,-0.61805 v -0.18087 a 1.5877565,0.74498063 0 0 1 -0.71881,-0.61805 1.5877565,0.74498063 0 0 1 0.71881,-0.61857 v -0.18086 a 1.5877565,0.74498063 0 0 1 -0.71881,-0.61805 1.5877565,0.74498063 0 0 1 0.71881,-0.61805 v -0.18087 a 1.5877565,0.74498063 0 0 1 -0.71881,-0.61805 1.5877565,0.74498063 0 0 1 0.71881,-0.61857 v -0.18087 a 1.5877565,0.74498063 0 0 1 -0.71881,-0.61805 1.5877565,0.74498063 0 0 1 0.71881,-0.61805 v -0.18086 a 1.5877565,0.74498063 0 0 1 -0.71881,-0.61805 1.5877565,0.74498063 0 0 1 0.71881,-0.6227 v -0.17622 a 1.5877565,0.74498063 0 0 1 -0.71881,-0.61857 1.5877565,0.74498063 0 0 1 0.71881,-0.61805 v -0.18087 a 1.5877565,0.74498063 0 0 1 -0.71881,-0.61805 1.5877565,0.74498063 0 0 1 0.71881,-0.61805 v -0.18086 a 1.5877565,0.74498063 0 0 1 -0.71881,-0.61857 1.5877565,0.74498063 0 0 1 0.71881,-0.61805 V 17.8893 a 1.5877565,0.74498063 0 0 1 -0.71881,-0.61805 1.5877565,0.74498063 0 0 1 0.71881,-0.61805 v -0.18087 a 1.5877565,0.74498063 0 0 1 -0.71881,-0.61856 1.5877565,0.74498063 0 0 1 0.71881,-0.61805 v -0.18087 a 1.5877565,0.74498063 0 0 1 -0.71881,-0.61805 1.5877565,0.74498063 0 0 1 0.71881,-0.61805 v -0.18087 a 1.5877565,0.74498063 0 0 1 -0.71881,-0.61805 1.5877565,0.74498063 0 0 1 0.71881,-0.61856 V 12.2204 a 1.5877565,0.74498063 0 0 1 -0.71881,-0.61805 1.5877565,0.74498063 0 0 1 0.71881,-0.61805 v -0.18087 a 1.5877565,0.74498063 0 0 1 -0.71881,-0.61805 1.5877565,0.74498063 0 0 1 0.71881,-0.61857 V 9.38646 A 1.5877565,0.74498063 0 0 1 82.555896,8.7679 1.5877565,0.74498063 0 0 1 83.274706,8.14985 V 7.96898 a 1.5877565,0.74498063 0 0 1 -0.71881,-0.61805 1.5877565,0.74498063 0 0 1 0.71881,-0.61857 V 6.55201 a 1.5877565,0.74498063 0 0 1 -0.71881,-0.61857 1.5877565,0.74498063 0 0 1 0.71881,-0.61805 V 5.13453 a 1.5877565,0.74498063 0 0 1 -0.71881,-0.61805 1.5877565,0.74498063 0 0 1 0.71881,-0.61805 V 3.71756 a 1.5877565,0.74498063 0 0 1 -0.71881,-0.61857 1.5877565,0.74498063 0 0 1 0.71881,-0.62218 V 2.30007 a 1.5877565,0.74498063 0 0 1 -0.71881,-0.61805 1.5877565,0.74498063 0 0 1 0.65939,-0.60358 c -0.0121,-0.0762 -0.0241,-0.15247 -0.0398,-0.22737 a 1.5877565,0.74498063 0 0 1 -0.61959,-0.58653 1.5877565,0.74498063 0 0 1 0.28059,-0.41755 c -0.40134,-0.85226 -1.05453,-1.56077 -1.86707,-2.0283 v -0.84697 h -32.53393 z m 0.40877,95.53889 a 0.28134918,0.46891534 0 0 1 0.28112,0.4692 0.28134918,0.46891534 0 0 1 -0.28112,0.4687 0.28134918,0.46891534 0 0 1 -0.28164,-0.4687 0.28134918,0.46891534 0 0 1 0.28164,-0.4692 z m 0.94464,0 a 0.28134918,0.46891534 0 0 1 0.28164,0.4692 0.28134918,0.46891534 0 0 1 -0.28164,0.4687 0.28134918,0.46891534 0 0 1 -0.28112,-0.4687 0.28134918,0.46891534 0 0 1 0.28112,-0.4692 z m 0.94516,0 a 0.28134918,0.46891534 0 0 1 0.28112,0.4692 0.28134918,0.46891534 0 0 1 -0.28112,0.4687 0.28134918,0.46891534 0 0 1 -0.28163,-0.4687 0.28134918,0.46891534 0 0 1 0.28163,-0.4692 z m 0.94465,0 a 0.28134918,0.46891534 0 0 1 0.28164,0.4692 0.28134918,0.46891534 0 0 1 -0.28164,0.4687 0.28134918,0.46891534 0 0 1 -0.28112,-0.4687 0.28134918,0.46891534 0 0 1 0.28112,-0.4692 z m 0.94517,0 a 0.28134918,0.46891534 0 0 1 0.28112,0.4692 0.28134918,0.46891534 0 0 1 -0.28112,0.4687 0.28134918,0.46891534 0 0 1 -0.28164,-0.4687 0.28134918,0.46891534 0 0 1 0.28164,-0.4692 z m 0.94464,0 a 0.28134918,0.46891534 0 0 1 0.28112,0.4692 0.28134918,0.46891534 0 0 1 -0.28112,0.4687 0.28134918,0.46891534 0 0 1 -0.28164,-0.4687 0.28134918,0.46891534 0 0 1 0.28164,-0.4692 z m 0.94465,0 a 0.28134918,0.46891534 0 0 1 0.28163,0.4692 0.28134918,0.46891534 0 0 1 -0.28163,0.4687 0.28134918,0.46891534 0 0 1 -0.28112,-0.4687 0.28134918,0.46891534 0 0 1 0.28112,-0.4692 z m 0.94516,0 a 0.28134918,0.46891534 0 0 1 0.28112,0.4692 0.28134918,0.46891534 0 0 1 -0.28112,0.4687 0.28134918,0.46891534 0 0 1 -0.28164,-0.4687 0.28134918,0.46891534 0 0 1 0.28164,-0.4692 z m 0.94464,0 a 0.28134918,0.46891534 0 0 1 0.28164,0.4692 0.28134918,0.46891534 0 0 1 -0.28164,0.4687 0.28134918,0.46891534 0 0 1 -0.28112,-0.4687 0.28134918,0.46891534 0 0 1 0.28112,-0.4692 z m 0.94517,0 a 0.28134918,0.46891534 0 0 1 0.28111,0.4692 0.28134918,0.46891534 0 0 1 -0.28111,0.4687 0.28134918,0.46891534 0 0 1 -0.28164,-0.4687 0.28134918,0.46891534 0 0 1 0.28164,-0.4692 z m 0.94464,0 a 0.28134918,0.46891534 0 0 1 0.28164,0.4692 0.28134918,0.46891534 0 0 1 -0.28164,0.4687 0.28134918,0.46891534 0 0 1 -0.28112,-0.4687 0.28134918,0.46891534 0 0 1 0.28112,-0.4692 z m 0.94465,0 a 0.28134918,0.46891534 0 0 1 0.28163,0.4692 0.28134918,0.46891534 0 0 1 -0.28163,0.4687 0.28134918,0.46891534 0 0 1 -0.28112,-0.4687 0.28134918,0.46891534 0 0 1 0.28112,-0.4692 z m 0.94516,0 a 0.28134918,0.46891534 0 0 1 0.28112,0.4692 0.28134918,0.46891534 0 0 1 -0.28112,0.4687 0.28134918,0.46891534 0 0 1 -0.28164,-0.4687 0.28134918,0.46891534 0 0 1 0.28164,-0.4692 z m 0.94464,0 a 0.28134918,0.46891534 0 0 1 0.28164,0.4692 0.28134918,0.46891534 0 0 1 -0.28164,0.4687 0.28134918,0.46891534 0 0 1 -0.28112,-0.4687 0.28134918,0.46891534 0 0 1 0.28112,-0.4692 z m 0.94516,0 a 0.28134918,0.46891534 0 0 1 0.28112,0.4692 0.28134918,0.46891534 0 0 1 -0.28112,0.4687 0.28134918,0.46891534 0 0 1 -0.28163,-0.4687 0.28134918,0.46891534 0 0 1 0.28163,-0.4692 z m 0.94465,0 a 0.28134918,0.46891534 0 0 1 0.28164,0.4692 0.28134918,0.46891534 0 0 1 -0.28164,0.4687 0.28134918,0.46891534 0 0 1 -0.28112,-0.4687 0.28134918,0.46891534 0 0 1 0.28112,-0.4692 z m 0.94516,0 a 0.28134918,0.46891534 0 0 1 0.28112,0.4692 0.28134918,0.46891534 0 0 1 -0.28112,0.4687 0.28134918,0.46891534 0 0 1 -0.28163,-0.4687 0.28134918,0.46891534 0 0 1 0.28163,-0.4692 z m 0.94465,0 a 0.28134918,0.46891534 0 0 1 0.28112,0.4692 0.28134918,0.46891534 0 0 1 -0.28112,0.4687 0.28134918,0.46891534 0 0 1 -0.28112,-0.4687 0.28134918,0.46891534 0 0 1 0.28112,-0.4692 z m 0.94464,0 a 0.28134918,0.46891534 0 0 1 0.28164,0.4692 0.28134918,0.46891534 0 0 1 -0.28164,0.4687 0.28134918,0.46891534 0 0 1 -0.28112,-0.4687 0.28134918,0.46891534 0 0 1 0.28112,-0.4692 z m 0.94516,0 a 0.28134918,0.46891534 0 0 1 0.28112,0.4692 0.28134918,0.46891534 0 0 1 -0.28112,0.4687 0.28134918,0.46891534 0 0 1 -0.28163,-0.4687 0.28134918,0.46891534 0 0 1 0.28163,-0.4692 z m 0.94465,0 a 0.28134918,0.46891534 0 0 1 0.28164,0.4692 0.28134918,0.46891534 0 0 1 -0.28164,0.4687 0.28134918,0.46891534 0 0 1 -0.28112,-0.4687 0.28134918,0.46891534 0 0 1 0.28112,-0.4692 z m 0.94516,0 a 0.28134918,0.46891534 0 0 1 0.28112,0.4692 0.28134918,0.46891534 0 0 1 -0.28112,0.4687 0.28134918,0.46891534 0 0 1 -0.28164,-0.4687 0.28134918,0.46891534 0 0 1 0.28164,-0.4692 z m 0.94465,0 a 0.28134918,0.46891534 0 0 1 0.28112,0.4692 0.28134918,0.46891534 0 0 1 -0.28112,0.4687 0.28134918,0.46891534 0 0 1 -0.28112,-0.4687 0.28134918,0.46891534 0 0 1 0.28112,-0.4692 z m 0.94516,0 a 0.28134918,0.46891534 0 0 1 0.28112,0.4692 0.28134918,0.46891534 0 0 1 -0.28112,0.4687 0.28134918,0.46891534 0 0 1 -0.28164,-0.4687 0.28134918,0.46891534 0 0 1 0.28164,-0.4692 z m 0.94464,0 a 0.28134918,0.46891534 0 0 1 0.28112,0.4692 0.28134918,0.46891534 0 0 1 -0.28112,0.4687 0.28134918,0.46891534 0 0 1 -0.28163,-0.4687 0.28134918,0.46891534 0 0 1 0.28163,-0.4692 z m 0.94465,0 a 0.28134918,0.46891534 0 0 1 0.28163,0.4692 0.28134918,0.46891534 0 0 1 -0.28163,0.4687 0.28134918,0.46891534 0 0 1 -0.28112,-0.4687 0.28134918,0.46891534 0 0 1 0.28112,-0.4692 z m 0.94516,0 a 0.28134918,0.46891534 0 0 1 0.28112,0.4692 0.28134918,0.46891534 0 0 1 -0.28112,0.4687 0.28134918,0.46891534 0 0 1 -0.28164,-0.4687 0.28134918,0.46891534 0 0 1 0.28164,-0.4692 z m 0.94465,0 a 0.28134918,0.46891534 0 0 1 0.28163,0.4692 0.28134918,0.46891534 0 0 1 -0.28163,0.4687 0.28134918,0.46891534 0 0 1 -0.28112,-0.4687 0.28134918,0.46891534 0 0 1 0.28112,-0.4692 z m 0.94516,0 a 0.28134918,0.46891534 0 0 1 0.28112,0.4692 0.28134918,0.46891534 0 0 1 -0.28112,0.4687 0.28134918,0.46891534 0 0 1 -0.28164,-0.4687 0.28134918,0.46891534 0 0 1 0.28164,-0.4692 z m 0.94464,0 a 0.28134918,0.46891534 0 0 1 0.28112,0.4692 0.28134918,0.46891534 0 0 1 -0.28112,0.4687 0.28134918,0.46891534 0 0 1 -0.28112,-0.4687 0.28134918,0.46891534 0 0 1 0.28112,-0.4692 z m 0.94465,0 a 0.28134918,0.46891534 0 0 1 0.28163,0.4692 0.28134918,0.46891534 0 0 1 -0.28163,0.4687 0.28134918,0.46891534 0 0 1 -0.28112,-0.4687 0.28134918,0.46891534 0 0 1 0.28112,-0.4692 z m 0.94516,0 a 0.28134918,0.46891534 0 0 1 0.28111,0.4692 0.28134918,0.46891534 0 0 1 -0.28111,0.4687 0.28134918,0.46891534 0 0 1 -0.28165,-0.4687 0.28134918,0.46891534 0 0 1 0.28165,-0.4692 z m 0.94464,0 a 0.28134918,0.46891534 0 0 1 0.28164,0.4692 0.28134918,0.46891534 0 0 1 -0.28164,0.4687 0.28134918,0.46891534 0 0 1 -0.28112,-0.4687 0.28134918,0.46891534 0 0 1 0.28112,-0.4692 z m 0.94516,0 a 0.28134918,0.46891534 0 0 1 0.28112,0.4692 0.28134918,0.46891534 0 0 1 -0.28112,0.4687 0.28134918,0.46891534 0 0 1 -0.28164,-0.4687 0.28134918,0.46891534 0 0 1 0.28164,-0.4692 z m 0.94464,0 a 0.28134918,0.46891534 0 0 1 0.28112,0.4692 0.28134918,0.46891534 0 0 1 -0.28112,0.4687 0.28134918,0.46891534 0 0 1 -0.28112,-0.4687 0.28134918,0.46891534 0 0 1 0.28112,-0.4692 z m 0.94465,0 a 0.28134918,0.46891534 0 0 1 0.28163,0.4692 0.28134918,0.46891534 0 0 1 -0.28163,0.4687 0.28134918,0.46891534 0 0 1 -0.28112,-0.4687 0.28134918,0.46891534 0 0 1 0.28112,-0.4692 z m 0.94516,0 a 0.28134918,0.46891534 0 0 1 0.28112,0.4692 0.28134918,0.46891534 0 0 1 -0.28112,0.4687 0.28134918,0.46891534 0 0 1 -0.28164,-0.4687 0.28134918,0.46891534 0 0 1 0.28164,-0.4692 z m 0.94464,0 a 0.28134918,0.46891534 0 0 1 0.28164,0.4692 0.28134918,0.46891534 0 0 1 -0.28164,0.4687 0.28134918,0.46891534 0 0 1 -0.28112,-0.4687 0.28134918,0.46891534 0 0 1 0.28112,-0.4692 z m 0.94517,0 a 0.28134918,0.46891534 0 0 1 0.28112,0.4692 0.28134918,0.46891534 0 0 1 -0.28112,0.4687 0.28134918,0.46891534 0 0 1 -0.28164,-0.4687 0.28134918,0.46891534 0 0 1 0.28164,-0.4692 z m 0.94464,0 a 0.28134918,0.46891534 0 0 1 0.28112,0.4692 0.28134918,0.46891534 0 0 1 -0.28112,0.4687 0.28134918,0.46891534 0 0 1 -0.28112,-0.4687 0.28134918,0.46891534 0 0 1 0.28112,-0.4692 z m 0.94465,0 a 0.28134918,0.46891534 0 0 1 0.28163,0.4692 0.28134918,0.46891534 0 0 1 -0.28163,0.4687 0.28134918,0.46891534 0 0 1 -0.28112,-0.4687 0.28134918,0.46891534 0 0 1 0.28112,-0.4692 z m 0.94516,0 a 0.28134918,0.46891534 0 0 1 0.28112,0.4692 0.28134918,0.46891534 0 0 1 -0.28112,0.4687 0.28134918,0.46891534 0 0 1 -0.28164,-0.4687 0.28134918,0.46891534 0 0 1 0.28164,-0.4692 z m 0.94464,0 a 0.28134918,0.46891534 0 0 1 0.28164,0.4692 0.28134918,0.46891534 0 0 1 -0.28164,0.4687 0.28134918,0.46891534 0 0 1 -0.28112,-0.4687 0.28134918,0.46891534 0 0 1 0.28112,-0.4692 z m 0.94517,0 a 0.28134918,0.46891534 0 0 1 0.28112,0.4692 0.28134918,0.46891534 0 0 1 -0.28112,0.4687 0.28134918,0.46891534 0 0 1 -0.28164,-0.4687 0.28134918,0.46891534 0 0 1 0.28164,-0.4692 z m 0.94464,0 a 0.28134918,0.46891534 0 0 1 0.28164,0.4692 0.28134918,0.46891534 0 0 1 -0.28164,0.4687 0.28134918,0.46891534 0 0 1 -0.28112,-0.4687 0.28134918,0.46891534 0 0 1 0.28112,-0.4692 z m 0.94465,0 a 0.28134918,0.46891534 0 0 1 0.28163,0.4692 0.28134918,0.46891534 0 0 1 -0.28163,0.4687 0.28134918,0.46891534 0 0 1 -0.28112,-0.4687 0.28134918,0.46891534 0 0 1 0.28112,-0.4692 z m 0.94516,0 a 0.28134918,0.46891534 0 0 1 0.28112,0.4692 0.28134918,0.46891534 0 0 1 -0.28112,0.4687 0.28134918,0.46891534 0 0 1 -0.28112,-0.4687 0.28134918,0.46891534 0 0 1 0.28112,-0.4692 z m 0.94464,0 a 0.28134918,0.46891534 0 0 1 0.28164,0.4692 0.28134918,0.46891534 0 0 1 -0.28164,0.4687 0.28134918,0.46891534 0 0 1 -0.28112,-0.4687 0.28134918,0.46891534 0 0 1 0.28112,-0.4692 z m 0.94516,0 a 0.28134918,0.46891534 0 0 1 0.28112,0.4692 0.28134918,0.46891534 0 0 1 -0.28112,0.4687 0.28134918,0.46891534 0 0 1 -0.28163,-0.4687 0.28134918,0.46891534 0 0 1 0.28163,-0.4692 z m 0.94465,0 a 0.28134918,0.46891534 0 0 1 0.28164,0.4692 0.28134918,0.46891534 0 0 1 -0.28164,0.4687 0.28134918,0.46891534 0 0 1 -0.28112,-0.4687 0.28134918,0.46891534 0 0 1 0.28112,-0.4692 z m 0.94516,0 a 0.28134918,0.46891534 0 0 1 0.28112,0.4692 0.28134918,0.46891534 0 0 1 -0.28112,0.4687 0.28134918,0.46891534 0 0 1 -0.28163,-0.4687 0.28134918,0.46891534 0 0 1 0.28163,-0.4692 z m 0.94465,0 a 0.28134918,0.46891534 0 0 1 0.28112,0.4692 0.28134918,0.46891534 0 0 1 -0.28112,0.4687 0.28134918,0.46891534 0 0 1 -0.28112,-0.4687 0.28134918,0.46891534 0 0 1 0.28112,-0.4692 z m 0.94464,0 a 0.28134918,0.46891534 0 0 1 0.28164,0.4692 0.28134918,0.46891534 0 0 1 -0.28164,0.4687 0.28134918,0.46891534 0 0 1 -0.28112,-0.4687 0.28134918,0.46891534 0 0 1 0.28112,-0.4692 z m 0.94516,0 a 0.28134918,0.46891534 0 0 1 0.28112,0.4692 0.28134918,0.46891534 0 0 1 -0.28112,0.4687 0.28134918,0.46891534 0 0 1 -0.28163,-0.4687 0.28134918,0.46891534 0 0 1 0.28163,-0.4692 z m 0.94465,0 a 0.28134918,0.46891534 0 0 1 0.28164,0.4692 0.28134918,0.46891534 0 0 1 -0.28164,0.4687 0.28134918,0.46891534 0 0 1 -0.28112,-0.4687 0.28134918,0.46891534 0 0 1 0.28112,-0.4692 z m 0.94516,0 a 0.28134918,0.46891534 0 0 1 0.28112,0.4692 0.28134918,0.46891534 0 0 1 -0.28112,0.4687 0.28134918,0.46891534 0 0 1 -0.28164,-0.4687 0.28134918,0.46891534 0 0 1 0.28164,-0.4692 z m 0.94465,0 a 0.28134918,0.46891534 0 0 1 0.28163,0.4692 0.28134918,0.46891534 0 0 1 -0.28163,0.4687 0.28134918,0.46891534 0 0 1 -0.28112,-0.4687 0.28134918,0.46891534 0 0 1 0.28112,-0.4692 z m 0.94516,0 a 0.28134918,0.46891534 0 0 1 0.28112,0.4692 0.28134918,0.46891534 0 0 1 -0.28112,0.4687 0.28134918,0.46891534 0 0 1 -0.28164,-0.4687 0.28134918,0.46891534 0 0 1 0.28164,-0.4692 z m 0.94464,0 a 0.28134918,0.46891534 0 0 1 0.28112,0.4692 0.28134918,0.46891534 0 0 1 -0.28112,0.4687 0.28134918,0.46891534 0 0 1 -0.28163,-0.4687 0.28134918,0.46891534 0 0 1 0.28163,-0.4692 z m 0.94465,0 a 0.28134918,0.46891534 0 0 1 0.28164,0.4692 0.28134918,0.46891534 0 0 1 -0.28164,0.4687 0.28134918,0.46891534 0 0 1 -0.28112,-0.4687 0.28134918,0.46891534 0 0 1 0.28112,-0.4692 z m 0.94516,0 a 0.28134918,0.46891534 0 0 1 0.28112,0.4692 0.28134918,0.46891534 0 0 1 -0.28112,0.4687 0.28134918,0.46891534 0 0 1 -0.28164,-0.4687 0.28134918,0.46891534 0 0 1 0.28164,-0.4692 z m 0.94465,0 a 0.28134918,0.46891534 0 0 1 0.28163,0.4692 0.28134918,0.46891534 0 0 1 -0.28163,0.4687 0.28134918,0.46891534 0 0 1 -0.28112,-0.4687 0.28134918,0.46891534 0 0 1 0.28112,-0.4692 z m 0.94516,0 a 0.28134918,0.46891534 0 0 1 0.28112,0.4692 0.28134918,0.46891534 0 0 1 -0.28112,0.4687 0.28134918,0.46891534 0 0 1 -0.28164,-0.4687 0.28134918,0.46891534 0 0 1 0.28164,-0.4692 z m 0.94464,0 a 0.28134918,0.46891534 0 0 1 0.28164,0.4692 0.28134918,0.46891534 0 0 1 -0.28164,0.4687 0.28134918,0.46891534 0 0 1 -0.28112,-0.4687 0.28134918,0.46891534 0 0 1 0.28112,-0.4692 z m 0.94465,0 a 0.28134918,0.46891534 0 0 1 0.28163,0.4692 0.28134918,0.46891534 0 0 1 -0.28163,0.4687 0.28134918,0.46891534 0 0 1 -0.28112,-0.4687 0.28134918,0.46891534 0 0 1 0.28112,-0.4692 z m 0.94516,0 a 0.28134918,0.46891534 0 0 1 0.28112,0.4692 0.28134918,0.46891534 0 0 1 -0.28112,0.4687 0.28134918,0.46891534 0 0 1 -0.28164,-0.4687 0.28134918,0.46891534 0 0 1 0.28164,-0.4692 z m 0.94465,0 a 0.28134918,0.46891534 0 0 1 0.28163,0.4692 0.28134918,0.46891534 0 0 1 -0.28163,0.4687 0.28134918,0.46891534 0 0 1 -0.28112,-0.4687 0.28134918,0.46891534 0 0 1 0.28112,-0.4692 z m 0.94516,0 a 0.28134918,0.46891534 0 0 1 0.28112,0.4692 0.28134918,0.46891534 0 0 1 -0.28112,0.4687 0.28134918,0.46891534 0 0 1 -0.28164,-0.4687 0.28134918,0.46891534 0 0 1 0.28164,-0.4692 z m 0.94464,0 a 0.28134918,0.46891534 0 0 1 0.28164,0.4692 0.28134918,0.46891534 0 0 1 -0.28164,0.4687 0.28134918,0.46891534 0 0 1 -0.28112,-0.4687 0.28134918,0.46891534 0 0 1 0.28112,-0.4692 z" /><path
       id="path46076"
       style="fill:url(#linearGradient46268);fill-opacity:1;stroke:none;stroke-width:1.36168;stroke-linecap:round;stroke-linejoin:round;stroke-dasharray:none;paint-order:stroke fill markers"
       d="m 18.280946,-1.25147 c -1.48781,0 -2.68563,1.19781 -2.68563,2.68562 v 87.04636 c 0,0.015 0.002,0.03 0.002,0.045 a 6.8572245,5.2453365 0 0 1 2.13734,2.5854 c 0.17629,0.036 0.35893,0.055 0.54622,0.055 h 60.30898 c 0.24543,0 0.48188,-0.036 0.70745,-0.097 a 6.8572245,5.2453365 0 0 1 1.97042,-2.4381 c 0.003,-0.05 0.008,-0.1 0.008,-0.1509 V 1.43353 c 0,-1.48781 -1.19781,-2.68562 -2.68562,-2.68562 z" /><g
       id="g46086"
       transform="matrix(2.2249945,0.55712565,-0.55712565,2.2249945,101.74334,-1423.5366)"
       style="fill:#ffffff;fill-opacity:0.0787671;stroke-width:0.0590334"><circle
         style="fill:#ffffff;fill-opacity:0.0787671;stroke:none;stroke-width:0.265031;stroke-linecap:round;stroke-linejoin:round;stroke-miterlimit:4;stroke-dasharray:none;paint-order:stroke fill markers"
         id="circle46078"
         cx="130.36272"
         cy="627.72162"
         r="4.1795764" /><circle
         style="fill:#ffffff;fill-opacity:0.0787671;stroke:none;stroke-width:0.2257;stroke-linecap:round;stroke-linejoin:round;stroke-miterlimit:4;stroke-dasharray:none;paint-order:stroke fill markers"
         id="circle46080"
         cx="124.78439"
         cy="633.51453"
         r="2.7866604" /><circle
         style="fill:#ffffff;fill-opacity:0.0787671;stroke:none;stroke-width:0.289122;stroke-linecap:round;stroke-linejoin:round;stroke-miterlimit:4;stroke-dasharray:none;paint-order:stroke fill markers"
         id="circle46082"
         cx="130.2018"
         cy="636.84003"
         r="2.7998781" /><circle
         style="fill:#ffffff;fill-opacity:0.0787671;stroke:none;stroke-width:0.320383;stroke-linecap:round;stroke-linejoin:round;stroke-miterlimit:4;stroke-dasharray:none;paint-order:stroke fill markers"
         id="circle46084"
         cx="126.41901"
         cy="640.81921"
         r="1.8839288" /></g><path
       id="path46088"
       style="color:#000000;fill:none;fill-opacity:0.09;stroke:#f2f2f2;stroke-width:1.32292;stroke-linecap:round;stroke-linejoin:round;stroke-dasharray:none;stroke-opacity:0.0616438"
       d="m -216.98144,394.42868 a 1.5171673,1.5171673 0 0 0 -1.51827,1.4826 l -0.0757,3.50814 a 1.5171673,1.5171673 0 0 0 0.39355,1.05716 l 1.64853,1.80975 v 7.45824 a 1.5170156,1.5170156 0 0 0 0.0252,0.25953 h -6.78859 a 1.5170156,1.5170156 0 0 0 -1.51826,1.51825 1.5170156,1.5170156 0 0 0 1.51826,1.51823 h 8.69421 v 30.71956 c -0.24494,0.42403 -0.54675,0.89838 -0.89238,1.41507 l -4.1197,-4.72527 a 1.5170156,1.5170156 0 0 0 -1.03939,-0.51554 v 0.001 a 1.5170156,1.5170156 0 0 0 -1.09742,0.36621 1.5170156,1.5170156 0 0 0 -0.14677,2.14159 l 4.60683,5.28705 c -0.69148,0.95864 -1.42561,1.96782 -2.20193,3.04473 -2.10515,2.91983 -4.29608,6.11588 -5.63568,9.23243 -0.66969,1.55828 -1.13663,3.10624 -1.21346,4.63993 -0.0757,1.53376 0.2775,3.09295 1.24901,4.3721 1.93864,2.55308 5.75997,3.70583 11.9869,3.66808 5.76915,0.26099 9.47558,-0.67548 11.52569,-2.9961 2.05767,-2.32929 1.8508,-5.57608 0.77518,-8.6766 -1.44417,-4.16298 -4.45982,-8.64783 -7.25691,-12.50471 l 5.51345,-6.32643 a 1.5170156,1.5170156 0 0 0 -0.1468,-2.1416 1.5170156,1.5170156 0 0 0 -2.13679,0.14817 l -5.07126,5.81449 c -0.59103,-0.79906 -1.15956,-1.56964 -1.66527,-2.2708 v -30.69343 h 8.50133 a 1.5170156,1.5170156 0 0 0 1.51826,-1.51824 1.5170156,1.5170156 0 0 0 -1.51826,-1.51823 h -6.73537 a 1.5170156,1.5170156 0 0 0 0.0229,-0.21925 v -7.34686 l 1.65793,-2.02423 a 1.5171673,1.5171673 0 0 0 0.34493,-0.99085 l -0.0711,-3.50686 a 1.5171673,1.5171673 0 0 0 -1.51825,-1.48739 z m 1.48385,3.0328 h 4.63619 l 0.0321,1.46489 -1.64854,2.01121 a 1.5171673,1.5171673 0 0 0 -0.34011,0.95881 v 7.88848 a 1.5170156,1.5170156 0 0 0 0.0229,0.21926 h -0.72519 a 1.5170156,1.5170156 0 0 0 0.0252,-0.25953 v -8.04612 a 1.5171673,1.5171673 0 0 0 -0.39332,-1.01568 l -1.63568,-1.80143 z m 2.43195,49.38955 c 3.31678,4.55099 7.77202,10.45958 9.40196,15.15832 0.91166,2.62784 0.8816,4.47482 -0.17887,5.67576 -1.06095,1.20093 -3.7663,2.22642 -9.16484,1.97448 a 1.5171673,1.5171673 0 0 0 -0.0803,0 c -5.84459,0.0399 -8.59351,-1.18284 -9.57626,-2.47697 -0.49148,-0.6471 -0.68665,-1.38139 -0.63642,-2.38692 0.0504,-1.00557 0.38828,-2.24077 0.96714,-3.58752 1.15774,-2.69367 3.23926,-5.78851 5.3084,-8.65888 1.55403,-2.15543 2.79709,-3.94078 3.95962,-5.69827 z"
       mask="url(#mask22535)"
       transform="translate(288.8577,-372.92353)" /><text
       xml:space="preserve"
       style="font-weight:bold;font-size:11.5162px;line-height:0.8;font-family:Nunito;-inkscape-font-specification:'Nunito Bold';fill:#f2f2f2;fill-opacity:1;stroke:none;stroke-width:2.15928;stroke-linecap:round;stroke-linejoin:round;stroke-dasharray:none;paint-order:stroke fill markers"
       x="48.452785"
       y="17.62915"
       id="text46094"><tspan
         id="tspan46090"
         style="font-style:normal;font-variant:normal;font-weight:bold;font-stretch:normal;font-family:'Montserrat Black';-inkscape-font-specification:'Montserrat Black,  Bold';text-align:center;text-anchor:middle;fill:#f2f2f2;stroke-width:2.15928"
         x="48.452785"
         y="17.62915">Event</tspan><tspan
         style="font-style:normal;font-variant:normal;font-weight:bold;font-stretch:normal;font-family:'Montserrat Black';-inkscape-font-specification:'Montserrat Black,  Bold';text-align:center;text-anchor:middle;fill:#f2f2f2;stroke-width:2.15928"
         x="48.452785"
         y="27.451216"
         id="tspan46092">Ticket</tspan></text><path
       style="fill:#f2f2f2;fill-opacity:1;stroke:#f2f2f2;stroke-width:0.427261;stroke-linecap:round;stroke-linejoin:round;stroke-dasharray:none;paint-order:stroke fill markers"
       d="m 16.952786,36.16118 h 62.96545"
       id="path46096" /><text
       xml:space="preserve"
       style="font-style:normal;font-variant:normal;font-weight:bold;font-stretch:normal;font-size:4.45188px;font-family:'Montserrat Black';-inkscape-font-specification:'Montserrat Black,  Bold';text-align:center;letter-spacing:0.264583px;text-anchor:middle;fill:none;fill-opacity:1;stroke:#f2f2f2;stroke-width:0.238494;stroke-linecap:round;stroke-linejoin:round;stroke-dasharray:none;paint-order:stroke fill markers"
       x="55.173244"
       y="10.374451"
       id="text46100"><tspan
         id="tspan46098"
         style="stroke-width:0.238494"
         x="55.305534"
         y="10.374451">2023</tspan></text><path
       style="fill:#f2f2f2;fill-opacity:1;stroke:#f2f2f2;stroke-width:0.427261;stroke-linecap:round;stroke-linejoin:round;stroke-dasharray:none;paint-order:stroke fill markers"
       d="m 16.952786,47.06855 h 62.96545"
       id="path46102" /><path
       style="fill:#f2f2f2;fill-opacity:1;stroke:#f2f2f2;stroke-width:0.412614;stroke-linecap:round;stroke-linejoin:round;stroke-dasharray:none;paint-order:stroke fill markers"
       d="m 48.435506,36.87547 v 9.47879"
       id="path46104" /><text
       xml:space="preserve"
       style="font-style:normal;font-variant:normal;font-weight:bold;font-stretch:normal;font-size:3.52778px;line-height:0.9;font-family:'Montserrat Black';-inkscape-font-specification:'Montserrat Black,  Bold';text-align:end;text-anchor:end;fill:#f2f2f2;fill-opacity:1;stroke:none;stroke-width:0.164584;stroke-linecap:round;stroke-linejoin:round;stroke-dasharray:none;paint-order:stroke fill markers"
       x="44.826717"
       y="41.211609"
       id="text46110"><tspan
         id="tspan46106"
         style="font-style:normal;font-variant:normal;font-weight:bold;font-stretch:normal;font-size:3.52778px;font-family:'Montserrat Light';-inkscape-font-specification:'Montserrat Light,  Bold';text-align:end;text-anchor:end;fill:#f2f2f2;fill-opacity:1;stroke:none;stroke-width:0.164584"
         x="44.826717"
         y="41.211609">Vorname</tspan><tspan
         style="font-style:normal;font-variant:normal;font-weight:bold;font-stretch:normal;font-size:3.52778px;font-family:'Montserrat Light';-inkscape-font-specification:'Montserrat Light,  Bold';text-align:end;text-anchor:end;fill:#f2f2f2;fill-opacity:1;stroke:none;stroke-width:0.164584"
         x="44.826717"
         y="44.386612"
         id="tspan46108">Nachname</tspan></text><text
       xml:space="preserve"
       style="font-style:normal;font-variant:normal;font-weight:bold;font-stretch:normal;font-size:4.89754px;line-height:0.6;font-family:'Montserrat Light';-inkscape-font-specification:'Montserrat Light,  Bold';text-align:end;text-anchor:end;fill:#f2f2f2;fill-opacity:1;stroke:none;stroke-width:0.587705;stroke-linecap:round;stroke-linejoin:round;stroke-dasharray:none;paint-order:stroke fill markers"
       x="27.381002"
       y="55.750427"
       id="text46114"><tspan
         style="font-style:normal;font-variant:normal;font-weight:bold;font-stretch:normal;font-family:Nunito;-inkscape-font-specification:'Nunito Bold';text-align:start;text-anchor:start;fill:#f2f2f2;stroke-width:0.587705"
         x="27.381002"
         y="55.750427"
         id="tspan46112">Entspannte Runde</tspan></text><text
       xml:space="preserve"
       style="font-style:normal;font-variant:normal;font-weight:bold;font-stretch:normal;font-size:3.175px;font-family:Nunito;-inkscape-font-specification:'Nunito Bold';text-align:start;text-anchor:start;fill:#333333;fill-opacity:1;stroke:none;stroke-width:1.32292;stroke-linecap:round;stroke-linejoin:round;stroke-dasharray:none;stroke-opacity:0.0616438;paint-order:stroke fill markers"
       x="22.558882"
       y="72.994324"
       id="text46118"><tspan
         id="tspan46116"
         style="font-size:3.175px;fill:#333333;fill-opacity:1;stroke-width:1.32292"
         x="22.558882"
         y="72.994324">Wo</tspan></text><text
       xml:space="preserve"
       style="font-style:normal;font-variant:normal;font-weight:bold;font-stretch:normal;font-size:3.175px;font-family:Nunito;-inkscape-font-specification:'Nunito Bold';text-align:start;text-anchor:start;fill:#f9f9f9;fill-opacity:1;stroke:none;stroke-width:1.32292;stroke-linecap:round;stroke-linejoin:round;stroke-dasharray:none;stroke-opacity:0.0616438;paint-order:stroke fill markers"
       x="29.291182"
       y="72.994324"
       id="text46122"><tspan
         id="tspan46120"
         style="font-size:3.175px;fill:#f9f9f9;stroke-width:1.32292"
         x="29.291182"
         y="72.994324">BlubberLounge</tspan></text><text
       xml:space="preserve"
       style="font-style:normal;font-variant:normal;font-weight:bold;font-stretch:normal;font-size:3.175px;font-family:Nunito;-inkscape-font-specification:'Nunito Bold';text-align:start;text-anchor:start;fill:#f9f9f9;fill-opacity:1;stroke:none;stroke-width:1.32292;stroke-linecap:round;stroke-linejoin:round;stroke-dasharray:none;stroke-opacity:0.0616438;paint-order:stroke fill markers"
       x="29.399153"
       y="76.703064"
       id="text46126"><tspan
         id="tspan46124"
         style="fill:#f9f9f9;stroke-width:1.32292"
         x="29.399153"
         y="76.703064">16.02.2023</tspan></text><text
       xml:space="preserve"
       style="font-style:normal;font-variant:normal;font-weight:bold;font-stretch:normal;font-size:3.175px;font-family:Nunito;-inkscape-font-specification:'Nunito Bold';text-align:start;text-anchor:start;fill:#333333;fill-opacity:1;stroke:none;stroke-width:1.32292;stroke-linecap:round;stroke-linejoin:round;stroke-dasharray:none;stroke-opacity:0.0616438;paint-order:stroke fill markers"
       x="19.002882"
       y="76.61438"
       id="text46130"><tspan
         id="tspan46128"
         style="fill:#333333;stroke-width:1.32292"
         x="19.002882"
         y="76.61438">Wann</tspan></text><text
       xml:space="preserve"
       style="font-style:normal;font-variant:normal;font-weight:bold;font-stretch:normal;font-size:3.175px;font-family:Nunito;-inkscape-font-specification:'Nunito Bold';text-align:start;text-anchor:start;fill:#f9f9f9;fill-opacity:1;stroke:none;stroke-width:1.32292;stroke-linecap:round;stroke-linejoin:round;stroke-dasharray:none;stroke-opacity:0.0616438;paint-order:stroke fill markers"
       x="29.215017"
       y="79.847229"
       id="text46134"><tspan
         id="tspan46132"
         style="fill:#f9f9f9;stroke-width:1.32292"
         x="29.215017"
         y="79.847229">16:30 Uhr</tspan></text><text
       xml:space="preserve"
       style="font-style:normal;font-variant:normal;font-weight:bold;font-stretch:normal;font-size:3.175px;font-family:Nunito;-inkscape-font-specification:'Nunito Bold';text-align:start;text-anchor:start;fill:#333333;fill-opacity:1;stroke:none;stroke-width:1.32292;stroke-linecap:round;stroke-linejoin:round;stroke-dasharray:none;stroke-opacity:0.0616438;paint-order:stroke fill markers"
       x="20.33003"
       y="83.388916"
       id="text46138"><tspan
         id="tspan46136"
         style="fill:#333333;stroke-width:1.32292"
         x="20.33003"
         y="83.388916">Ende</tspan></text><text
       xml:space="preserve"
       style="font-style:normal;font-variant:normal;font-weight:bold;font-stretch:normal;font-size:3.175px;font-family:Nunito;-inkscape-font-specification:'Nunito Bold';text-align:start;text-anchor:start;fill:#f9f9f9;fill-opacity:1;stroke:none;stroke-width:1.32292;stroke-linecap:round;stroke-linejoin:round;stroke-dasharray:none;stroke-opacity:0.0616438;paint-order:stroke fill markers"
       x="29.291182"
       y="83.388916"
       id="text46142"><tspan
         id="tspan46140"
         style="font-size:3.175px;fill:#f9f9f9;stroke-width:1.32292"
         x="29.291182"
         y="83.388916">01:00 Uhr</tspan></text><g
       id="g46152"
       transform="translate(288.59312,-372.92353)"
       style="fill:#ffffff;fill-opacity:0.5"><text
         xml:space="preserve"
         style="font-style:normal;font-variant:normal;font-weight:bold;font-stretch:normal;font-size:1.41111px;font-family:Nunito;-inkscape-font-specification:'Nunito Bold';text-align:start;text-anchor:start;fill:#ffffff;fill-opacity:0.5;stroke:none;stroke-width:1.32292;stroke-linecap:round;stroke-linejoin:round;stroke-dasharray:none;stroke-opacity:0.0616438;paint-order:stroke fill markers"
         x="-256.34818"
         y="462.92685"
         id="text46146"><tspan
           id="tspan46144"
           style="font-size:1.41111px;fill:#ffffff;fill-opacity:0.5;stroke-width:1.32292"
           x="-256.34818"
           y="462.92685">Ticket-ID</tspan></text><text
         xml:space="preserve"
         style="font-style:normal;font-variant:normal;font-weight:bold;font-stretch:normal;font-size:1.41111px;font-family:Nunito;-inkscape-font-specification:'Nunito Bold';text-align:start;text-anchor:start;fill:#ffffff;fill-opacity:0.5;stroke:none;stroke-width:1.32292;stroke-linecap:round;stroke-linejoin:round;stroke-dasharray:none;stroke-opacity:0.0616438;paint-order:stroke fill markers"
         x="-249.35008"
         y="462.92685"
         id="text46150"><tspan
           id="tspan46148"
           style="font-size:1.41111px;fill:#ffffff;fill-opacity:0.5;stroke-width:1.32292"
           x="-249.35008"
           y="462.92685">87e782aaf85352ee523e146f257fe08e</tspan></text></g><path
       id="path46154"
       style="fill:#cccccc;fill-opacity:1;stroke:none;stroke-width:0.550689;stroke-linecap:round;stroke-linejoin:round;stroke-dasharray:none;stroke-opacity:0.164384;paint-order:stroke fill markers"
       d="m 18.746536,94.93891 c -0.25528,0 -0.50105,0.036 -0.73639,0.098 a 7.0976939,5.4292803 0 0 1 -2.06654,2.1388 c -0.0464,0.2057 -0.0729,0.4192 -0.0729,0.6393 v 12.6778 c 0,1.5933 1.28247,2.8763 2.87579,2.8763 h 59.37777 c 1.59332,0 2.87631,-1.283 2.87631,-2.8763 v -12.6778 c 0,-0.2308 -0.0297,-0.4539 -0.0806,-0.6687 a 7.0976939,5.4292803 0 0 1 -2.01228,-2.0976 c -0.24919,-0.07 -0.51127,-0.11 -0.78342,-0.11 z" /><g
       id="g46252"
       transform="matrix(1.7814207,0,0,1.7118547,573.88294,-708.00025)"
       style="stroke:#1a1a1a"><line
         fill="none"
         style="stroke:#1a1a1a;stroke-width:0.264583"
         x1="-311.23154"
         y1="470.23001"
         x2="-311.23154"
         y2="478.16751"
         id="line46156" /><line
         fill="none"
         style="stroke:#1a1a1a;stroke-width:0.529167"
         x1="-310.57007"
         y1="470.23001"
         x2="-310.57007"
         y2="478.16751"
         id="line46158" /><line
         fill="none"
         style="stroke:#1a1a1a;stroke-width:0.264583"
         x1="-309.64404"
         y1="470.23001"
         x2="-309.64404"
         y2="478.16751"
         id="line46160" /><line
         fill="none"
         style="stroke:#1a1a1a;stroke-width:0.529167"
         x1="-308.98257"
         y1="470.23001"
         x2="-308.98257"
         y2="478.16751"
         id="line46162" /><line
         fill="none"
         style="stroke:#1a1a1a;stroke-width:0.264583"
         x1="-308.32111"
         y1="470.23001"
         x2="-308.32111"
         y2="478.16751"
         id="line46164" /><line
         fill="none"
         style="stroke:#1a1a1a;stroke-width:0.529167"
         x1="-307.65967"
         y1="470.23001"
         x2="-307.65967"
         y2="478.16751"
         id="line46166" /><line
         fill="none"
         style="stroke:#1a1a1a;stroke-width:0.264583"
         x1="-306.9982"
         y1="470.23001"
         x2="-306.9982"
         y2="478.16751"
         id="line46168" /><line
         fill="none"
         style="stroke:#1a1a1a;stroke-width:0.264583"
         x1="-306.20447"
         y1="470.23001"
         x2="-306.20447"
         y2="478.16751"
         id="line46170" /><line
         fill="none"
         style="stroke:#1a1a1a;stroke-width:0.529167"
         x1="-305.543"
         y1="470.23001"
         x2="-305.543"
         y2="478.16751"
         id="line46172" /><line
         fill="none"
         style="stroke:#1a1a1a;stroke-width:0.529167"
         x1="-304.74924"
         y1="470.23001"
         x2="-304.74924"
         y2="478.16751"
         id="line46174" /><line
         fill="none"
         style="stroke:#1a1a1a;stroke-width:0.264583"
         x1="-303.82321"
         y1="470.23001"
         x2="-303.82321"
         y2="478.16751"
         id="line46176" /><line
         fill="none"
         style="stroke:#1a1a1a;stroke-width:0.264583"
         x1="-303.29404"
         y1="470.23001"
         x2="-303.29404"
         y2="478.16751"
         id="line46178" /><line
         fill="none"
         style="stroke:#1a1a1a;stroke-width:0.264583"
         x1="-302.76486"
         y1="470.23001"
         x2="-302.76486"
         y2="478.16751"
         id="line46180" /><line
         fill="none"
         style="stroke:#1a1a1a;stroke-width:0.529167"
         x1="-302.10342"
         y1="470.23001"
         x2="-302.10342"
         y2="478.16751"
         id="line46182" /><line
         fill="none"
         style="stroke:#1a1a1a;stroke-width:0.529167"
         x1="-301.30966"
         y1="470.23001"
         x2="-301.30966"
         y2="478.16751"
         id="line46184" /><line
         fill="none"
         style="stroke:#1a1a1a;stroke-width:0.529167"
         x1="-300.5159"
         y1="470.23001"
         x2="-300.5159"
         y2="478.16751"
         id="line46186" /><line
         fill="none"
         style="stroke:#1a1a1a;stroke-width:0.529167"
         x1="-299.72217"
         y1="470.23001"
         x2="-299.72217"
         y2="478.16751"
         id="line46188" /><line
         fill="none"
         style="stroke:#1a1a1a;stroke-width:0.264583"
         x1="-299.0607"
         y1="470.23001"
         x2="-299.0607"
         y2="478.16751"
         id="line46190" /><line
         fill="none"
         style="stroke:#1a1a1a;stroke-width:0.264583"
         x1="-298.53152"
         y1="470.23001"
         x2="-298.53152"
         y2="478.16751"
         id="line46192" /><line
         fill="none"
         style="stroke:#1a1a1a;stroke-width:0.529167"
         x1="-297.6055"
         y1="470.23001"
         x2="-297.6055"
         y2="478.16751"
         id="line46194" /><line
         fill="none"
         style="stroke:#1a1a1a;stroke-width:0.264583"
         x1="-296.94403"
         y1="470.23001"
         x2="-296.94403"
         y2="478.16751"
         id="line46196" /><line
         fill="none"
         style="stroke:#1a1a1a;stroke-width:0.264583"
         x1="-296.41486"
         y1="470.23001"
         x2="-296.41486"
         y2="478.16751"
         id="line46198" /><line
         fill="none"
         style="stroke:#1a1a1a;stroke-width:0.264583"
         x1="-295.88571"
         y1="470.23001"
         x2="-295.88571"
         y2="478.16751"
         id="line46200" /><line
         fill="none"
         style="stroke:#1a1a1a;stroke-width:0.529167"
         x1="-294.95966"
         y1="470.23001"
         x2="-294.95966"
         y2="478.16751"
         id="line46202" /><line
         fill="none"
         style="stroke:#1a1a1a;stroke-width:0.529167"
         x1="-294.16592"
         y1="470.23001"
         x2="-294.16592"
         y2="478.16751"
         id="line46204" /><line
         fill="none"
         style="stroke:#1a1a1a;stroke-width:0.264583"
         x1="-293.50446"
         y1="470.23001"
         x2="-293.50446"
         y2="478.16751"
         id="line46206" /><line
         fill="none"
         style="stroke:#1a1a1a;stroke-width:0.264583"
         x1="-292.71072"
         y1="470.23001"
         x2="-292.71072"
         y2="478.16751"
         id="line46208" /><line
         fill="none"
         style="stroke:#1a1a1a;stroke-width:0.529167"
         x1="-292.04926"
         y1="470.23001"
         x2="-292.04926"
         y2="478.16751"
         id="line46210" /><line
         fill="none"
         style="stroke:#1a1a1a;stroke-width:0.264583"
         x1="-291.38779"
         y1="470.23001"
         x2="-291.38779"
         y2="478.16751"
         id="line46212" /><line
         fill="none"
         style="stroke:#1a1a1a;stroke-width:0.264583"
         x1="-290.85864"
         y1="470.23001"
         x2="-290.85864"
         y2="478.16751"
         id="line46214" /><line
         fill="none"
         style="stroke:#1a1a1a;stroke-width:0.264583"
         x1="-290.32947"
         y1="470.23001"
         x2="-290.32947"
         y2="478.16751"
         id="line46216" /><line
         fill="none"
         style="stroke:#1a1a1a;stroke-width:0.264583"
         x1="-289.80029"
         y1="470.23001"
         x2="-289.80029"
         y2="478.16751"
         id="line46218" /><line
         fill="none"
         style="stroke:#1a1a1a;stroke-width:0.529167"
         x1="-289.13882"
         y1="470.23001"
         x2="-289.13882"
         y2="478.16751"
         id="line46220" /><line
         fill="none"
         style="stroke:#1a1a1a;stroke-width:0.529167"
         x1="-288.34509"
         y1="470.23001"
         x2="-288.34509"
         y2="478.16751"
         id="line46222" /><line
         fill="none"
         style="stroke:#1a1a1a;stroke-width:0.264583"
         x1="-287.68362"
         y1="470.23001"
         x2="-287.68362"
         y2="478.16751"
         id="line46224" /><line
         fill="none"
         style="stroke:#1a1a1a;stroke-width:0.529167"
         x1="-287.02216"
         y1="470.23001"
         x2="-287.02216"
         y2="478.16751"
         id="line46226" /><line
         fill="none"
         style="stroke:#1a1a1a;stroke-width:0.529167"
         x1="-286.22842"
         y1="470.23001"
         x2="-286.22842"
         y2="478.16751"
         id="line46228" /><line
         fill="none"
         style="stroke:#1a1a1a;stroke-width:0.264583"
         x1="-285.56696"
         y1="470.23001"
         x2="-285.56696"
         y2="478.16751"
         id="line46230" /><line
         fill="none"
         style="stroke:#1a1a1a;stroke-width:0.529167"
         x1="-284.90552"
         y1="470.23001"
         x2="-284.90552"
         y2="478.16751"
         id="line46232" /><line
         fill="none"
         style="stroke:#1a1a1a;stroke-width:0.529167"
         x1="-284.11176"
         y1="470.23001"
         x2="-284.11176"
         y2="478.16751"
         id="line46234" /><line
         fill="none"
         style="stroke:#1a1a1a;stroke-width:0.264583"
         x1="-283.45029"
         y1="470.23001"
         x2="-283.45029"
         y2="478.16751"
         id="line46236" /><line
         fill="none"
         style="stroke:#1a1a1a;stroke-width:0.264583"
         x1="-282.92114"
         y1="470.23001"
         x2="-282.92114"
         y2="478.16751"
         id="line46238" /><line
         fill="none"
         style="stroke:#1a1a1a;stroke-width:0.529167"
         x1="-282.25967"
         y1="470.23001"
         x2="-282.25967"
         y2="478.16751"
         id="line46240" /><line
         fill="none"
         style="stroke:#1a1a1a;stroke-width:0.529167"
         x1="-281.46591"
         y1="470.23001"
         x2="-281.46591"
         y2="478.16751"
         id="line46242" /><line
         fill="none"
         style="stroke:#1a1a1a;stroke-width:0.264583"
         x1="-280.80447"
         y1="470.23001"
         x2="-280.80447"
         y2="478.16751"
         id="line46244" /><line
         fill="none"
         style="stroke:#1a1a1a;stroke-width:0.264583"
         x1="-280.2753"
         y1="470.23001"
         x2="-280.2753"
         y2="478.16751"
         id="line46246" /><line
         fill="none"
         style="stroke:#1a1a1a;stroke-width:0.529167"
         x1="-279.61383"
         y1="470.23001"
         x2="-279.61383"
         y2="478.16751"
         id="line46248" /><line
         fill="none"
         style="stroke:#1a1a1a;stroke-width:0.264583"
         x1="-278.68781"
         y1="470.23001"
         x2="-278.68781"
         y2="478.16751"
         id="line46250" /></g><text
       x="48.415554"
       y="112.08008"
       text-anchor="middle"
       style="font-size:1.16417px;font-family:Tahoma;fill:#b3b3b3;fill-opacity:1;stroke:none;stroke-width:0.152695"
       id="text46258">BlubberLounge super <tspan
   style="font-size:1.16417px;fill:#999999"
   id="tspan46254">special code</tspan> for special tickets to verify on certain <tspan
   style="font-size:1.16417px;fill:#999999"
   id="tspan46256">special events</tspan></text><text
       xml:space="preserve"
       style="font-style:normal;font-variant:normal;font-weight:bold;font-stretch:normal;font-size:2.11667px;font-family:'Montserrat Light';-inkscape-font-specification:'Montserrat Light,  Bold';fill:#ececec;fill-opacity:1;stroke:none;stroke-width:0.185208;stroke-linecap:round;stroke-linejoin:round;stroke-dasharray:none;stroke-opacity:1;paint-order:stroke fill markers"
       x="49.770687"
       y="39.240112"
       id="text46262"><tspan
         id="tspan46260"
         style="font-style:normal;font-variant:normal;font-weight:bold;font-stretch:normal;font-family:'Montserrat Light';-inkscape-font-specification:'Montserrat Light,  Bold';fill:#ececec;fill-opacity:1;stroke-width:0.185208"
         x="49.770687"
         y="39.240112">Status</tspan></text><text
       xml:space="preserve"
       style="font-style:normal;font-variant:normal;font-weight:bold;font-stretch:normal;font-size:4.43246px;font-family:Montserrat;-inkscape-font-specification:'Montserrat Bold';fill:#69b74c;fill-opacity:1;stroke:none;stroke-width:0.38784;stroke-linecap:round;stroke-linejoin:round;stroke-dasharray:none;stroke-opacity:1;paint-order:stroke fill markers"
       x="52.445095"
       y="44.053589"
       id="text46266"><tspan
         id="tspan46264"
         style="font-style:normal;font-variant:normal;font-weight:bold;font-stretch:normal;font-family:Montserrat;-inkscape-font-specification:'Montserrat Bold';fill:#69b74c;fill-opacity:1;stroke:none;stroke-width:0.38784"
         x="52.445095"
         y="44.053589">Zugesagt</tspan></text></g></svg>
