<?xml version="1.0" encoding="UTF-8" standalone="no"?>
<!-- Created with Inkscape (http://www.inkscape.org/) -->

<svg
   width="268.80475"
   height="452.13864"
   viewBox="0 0 71.121255 119.62835"
   version="1.1"
   id="svg5"
   xml:space="preserve"
   xmlns:xlink="http://www.w3.org/1999/xlink"
   xmlns="http://www.w3.org/2000/svg"
   xmlns:svg="http://www.w3.org/2000/svg"><defs
     id="defs2"><filter
       style="color-interpolation-filters:sRGB"
       id="filter40273"
       x="-0.01035324"
       y="-0.0061039423"
       width="1.0207065"
       height="1.0122079"><feGaussianBlur
         stdDeviation="0.3005824"
         id="feGaussianBlur40275" /></filter><linearGradient
       xlink:href="#linearGradient5675"
       id="linearGradient15920"
       gradientUnits="userSpaceOnUse"
       gradientTransform="translate(293.64803,-357.84287)"
       x1="-272.19788"
       y1="462.23572"
       x2="-207.93683"
       y2="371.75186" /><linearGradient
       id="linearGradient5675"><stop
         style="stop-color:#ffb600;stop-opacity:1;"
         offset="0.19836956"
         id="stop5671" /><stop
         style="stop-color:#cd00ff;stop-opacity:1;"
         offset="1"
         id="stop5673" /></linearGradient><mask
       maskUnits="userSpaceOnUse"
       id="mask22535"><path
         id="path22537"
         style="fill:#ffffff;fill-opacity:1;stroke:none;stroke-width:1.36168;stroke-linecap:round;stroke-linejoin:round;stroke-dasharray:none;paint-order:stroke fill markers"
         d="m -270.57675,371.67206 c -1.48783,0 -2.68563,1.19782 -2.68563,2.68562 v 87.04636 c 0,0.0151 0.003,0.0298 0.003,0.045 a 6.8572244,5.2453365 0 0 1 2.13733,2.58538 c 0.17629,0.0362 0.35893,0.0553 0.54623,0.0553 h 60.30898 c 0.24543,0 0.48188,-0.0355 0.70745,-0.0966 a 6.8572244,5.2453365 0 0 1 1.97042,-2.43811 c 0.003,-0.0502 0.008,-0.0999 0.008,-0.15089 v -87.04636 c 0,-1.4878 -1.19781,-2.68562 -2.68562,-2.68562 z" /></mask><linearGradient
       xlink:href="#linearGradient13508"
       id="linearGradient15918"
       gradientUnits="userSpaceOnUse"
       gradientTransform="translate(-51.368915,-358.9012)"
       x1="77.009964"
       y1="471.48547"
       x2="99.815941"
       y2="482.71365" /><linearGradient
       id="linearGradient13508"><stop
         style="stop-color:#55ca28;stop-opacity:1;"
         offset="0.05978261"
         id="stop13504" /><stop
         style="stop-color:#52c326;stop-opacity:0;"
         offset="1"
         id="stop13506" /></linearGradient><linearGradient
       xlink:href="#linearGradient14417"
       id="linearGradient15916"
       gradientUnits="userSpaceOnUse"
       gradientTransform="translate(-51.368915,-358.9012)"
       x1="108.74759"
       y1="472.76538"
       x2="133.49185"
       y2="481.67267" /><linearGradient
       id="linearGradient14417"><stop
         style="stop-color:#e93636;stop-opacity:1;"
         offset="0.02173913"
         id="stop14413" /><stop
         style="stop-color:#b52a2a;stop-opacity:0;"
         offset="1"
         id="stop14415" /></linearGradient></defs><g
     id="layer1"
     transform="translate(-17.665178,-11.330992)"><path
       id="path15708"
       style="mix-blend-mode:normal;fill:#000000;stroke-width:1.35335;stroke-linecap:round;stroke-linejoin:round;paint-order:stroke fill markers;filter:url(#filter40273)"
       d="m 20.691866,12.05239 v 0.84697 c -0.81254,0.46753 -1.46573,1.17604 -1.86707,2.0283 a 1.5877565,0.74498063 0 0 1 0.2806,0.41755 1.5877565,0.74498063 0 0 1 -0.6196,0.58653 c -0.0157,0.0749 -0.0277,0.15115 -0.0398,0.22737 a 1.5877565,0.74498063 0 0 1 0.65939,0.60358 1.5877565,0.74498063 0 0 1 -0.71881,0.61805 v 0.17674 a 1.5877565,0.74498063 0 0 1 0.71881,0.62218 1.5877565,0.74498063 0 0 1 -0.71881,0.61857 v 0.18087 a 1.5877565,0.74498063 0 0 1 0.71881,0.61805 1.5877565,0.74498063 0 0 1 -0.71881,0.61805 v 0.18086 a 1.5877565,0.74498063 0 0 1 0.71881,0.61805 1.5877565,0.74498063 0 0 1 -0.71881,0.61857 v 0.18035 a 1.5877565,0.74498063 0 0 1 0.71881,0.61857 1.5877565,0.74498063 0 0 1 -0.71881,0.61805 v 0.18087 a 1.5877565,0.74498063 0 0 1 0.71881,0.61805 1.5877565,0.74498063 0 0 1 -0.71881,0.61856 v 0.18035 a 1.5877565,0.74498063 0 0 1 0.71881,0.61857 1.5877565,0.74498063 0 0 1 -0.71881,0.61805 v 0.18087 a 1.5877565,0.74498063 0 0 1 0.71881,0.61805 1.5877565,0.74498063 0 0 1 -0.71881,0.61805 v 0.18087 a 1.5877565,0.74498063 0 0 1 0.71881,0.61856 1.5877565,0.74498063 0 0 1 -0.71881,0.61805 v 0.18087 a 1.5877565,0.74498063 0 0 1 0.71881,0.61805 1.5877565,0.74498063 0 0 1 -0.71881,0.61805 v 0.18087 a 1.5877565,0.74498063 0 0 1 0.71881,0.61805 1.5877565,0.74498063 0 0 1 -0.71881,0.61856 v 0.18087 a 1.5877565,0.74498063 0 0 1 0.71881,0.61805 1.5877565,0.74498063 0 0 1 -0.71881,0.61805 v 0.18087 a 1.5877565,0.74498063 0 0 1 0.71881,0.61805 1.5877565,0.74498063 0 0 1 -0.71881,0.61857 v 0.18086 a 1.5877565,0.74498063 0 0 1 0.71881,0.61805 1.5877565,0.74498063 0 0 1 -0.71881,0.61805 v 0.18087 a 1.5877565,0.74498063 0 0 1 0.71881,0.61805 1.5877565,0.74498063 0 0 1 -0.71881,0.61857 v 0.17622 a 1.5877565,0.74498063 0 0 1 0.71881,0.6227 1.5877565,0.74498063 0 0 1 -0.71881,0.61805 v 0.18086 a 1.5877565,0.74498063 0 0 1 0.71881,0.61805 1.5877565,0.74498063 0 0 1 -0.71881,0.61805 v 0.18087 a 1.5877565,0.74498063 0 0 1 0.71881,0.61857 1.5877565,0.74498063 0 0 1 -0.71881,0.61805 v 0.18087 a 1.5877565,0.74498063 0 0 1 0.71881,0.61805 1.5877565,0.74498063 0 0 1 -0.71881,0.61805 v 0.18086 a 1.5877565,0.74498063 0 0 1 0.71881,0.61857 1.5877565,0.74498063 0 0 1 -0.71881,0.61805 v 0.18087 a 1.5877565,0.74498063 0 0 1 0.71881,0.61805 1.5877565,0.74498063 0 0 1 -0.71881,0.6227 v 0.17622 a 1.5877565,0.74498063 0 0 1 0.71881,0.61805 1.5877565,0.74498063 0 0 1 -0.71881,0.61856 v 0.17622 a 1.5877565,0.74498063 0 0 1 0.71881,0.6227 1.5877565,0.74498063 0 0 1 -0.71881,0.61805 v 0.18087 a 1.5877565,0.74498063 0 0 1 0.71881,0.61805 1.5877565,0.74498063 0 0 1 -0.71881,0.61857 v 0.18035 a 1.5877565,0.74498063 0 0 1 0.71881,0.61856 1.5877565,0.74498063 0 0 1 -0.71881,0.61805 v 0.18087 a 1.5877565,0.74498063 0 0 1 0.71881,0.61805 1.5877565,0.74498063 0 0 1 -0.71881,0.61857 v 0.18035 a 1.5877565,0.74498063 0 0 1 0.71881,0.61857 1.5877565,0.74498063 0 0 1 -0.71881,0.61805 v 0.18086 a 1.5877565,0.74498063 0 0 1 0.71881,0.61805 1.5877565,0.74498063 0 0 1 -0.71881,0.6227 v 0.17622 a 1.5877565,0.74498063 0 0 1 0.71881,0.61857 1.5877565,0.74498063 0 0 1 -0.71881,0.61805 v 0.18087 a 1.5877565,0.74498063 0 0 1 0.71881,0.61805 1.5877565,0.74498063 0 0 1 -0.71881,0.61805 v 0.18086 a 1.5877565,0.74498063 0 0 1 0.71881,0.61805 1.5877565,0.74498063 0 0 1 -0.71881,0.61857 v 0.18087 a 1.5877565,0.74498063 0 0 1 0.71881,0.61805 1.5877565,0.74498063 0 0 1 -0.71881,0.61805 v 0.18087 a 1.5877565,0.74498063 0 0 1 0.71881,0.61805 1.5877565,0.74498063 0 0 1 -0.71881,0.61856 v 0.18087 a 1.5877565,0.74498063 0 0 1 0.71881,0.61805 1.5877565,0.74498063 0 0 1 -0.71881,0.61805 v 0.18087 a 1.5877565,0.74498063 0 0 1 0.71881,0.61805 1.5877565,0.74498063 0 0 1 -0.71881,0.61856 v 0.18036 a 1.5877565,0.74498063 0 0 1 0.71881,0.61856 1.5877565,0.74498063 0 0 1 -0.71881,0.61805 v 0.18087 a 1.5877565,0.74498063 0 0 1 0.71881,0.61805 1.5877565,0.74498063 0 0 1 -0.71881,0.61805 v 0.18087 a 1.5877565,0.74498063 0 0 1 0.71881,0.61856 1.5877565,0.74498063 0 0 1 -0.71881,0.61805 v 0.18087 a 1.5877565,0.74498063 0 0 1 0.71881,0.61805 1.5877565,0.74498063 0 0 1 -0.71881,0.61805 v 0.18087 a 1.5877565,0.74498063 0 0 1 0.71881,0.61857 1.5877565,0.74498063 0 0 1 -0.71881,0.61805 v 0.18086 a 1.5877565,0.74498063 0 0 1 0.71881,0.61805 1.5877565,0.74498063 0 0 1 -0.71881,0.61805 v 0.18087 a 1.5877565,0.74498063 0 0 1 0.71881,0.61805 1.5877565,0.74498063 0 0 1 -0.71881,0.62322 v 0.17622 a 1.5877565,0.74498063 0 0 1 0.71881,0.61805 1.5877565,0.74498063 0 0 1 -0.71881,0.61805 v 0.18086 a 1.5877565,0.74498063 0 0 1 0.71881,0.61805 1.5877565,0.74498063 0 0 1 -0.71881,0.61857 v 0.18087 a 1.5877565,0.74498063 0 0 1 0.71881,0.61805 1.5877565,0.74498063 0 0 1 -0.71881,0.61805 v 0.18087 a 1.5877565,0.74498063 0 0 1 0.71881,0.61805 1.5877565,0.74498063 0 0 1 -0.71881,0.61856 v 0.18035 a 1.5877565,0.74498063 0 0 1 0.71881,0.61857 1.5877565,0.74498063 0 0 1 -0.71881,0.61805 v 0.18087 a 1.5877565,0.74498063 0 0 1 0.71881,0.61805 1.5877565,0.74498063 0 0 1 -0.71881,0.61805 v 0.18087 a 1.5877565,0.74498063 0 0 1 0.71881,0.61856 1.5877565,0.74498063 0 0 1 -0.71881,0.62219 v 0.17673 a 1.5877565,0.74498063 0 0 1 0.71881,0.61805 1.5877565,0.74498063 0 0 1 -0.71881,0.61805 v 0.18087 a 1.5877565,0.74498063 0 0 1 0.71881,0.61857 1.5877565,0.74498063 0 0 1 -0.71881,0.61805 v 0.18086 a 1.5877565,0.74498063 0 0 1 0.71881,0.61805 1.5877565,0.74498063 0 0 1 -0.71881,0.61805 v 0.18087 a 1.5877565,0.74498063 0 0 1 0.71881,0.61805 1.5877565,0.74498063 0 0 1 -0.71881,0.61857 v 0.18087 a 1.5877565,0.74498063 0 0 1 0.71881,0.61805 1.5877565,0.74498063 0 0 1 -0.71881,0.61805 v 0.18086 a 1.5877565,0.74498063 0 0 1 0.71881,0.61805 1.5877565,0.74498063 0 0 1 -0.71881,0.61857 v 0.18035 a 1.5877565,0.74498063 0 0 1 0.71881,0.61857 1.5877565,0.74498063 0 0 1 -0.71881,0.6227 v 0.17622 a 1.5877565,0.74498063 0 0 1 0.71881,0.61805 1.5877565,0.74498063 0 0 1 -0.71881,0.61856 v 0.18035 a 1.5877565,0.74498063 0 0 1 0.71881,0.61857 1.5877565,0.74498063 0 0 1 -0.71881,0.61805 v 0.18087 a 1.5877565,0.74498063 0 0 1 0.71881,0.61805 1.5877565,0.74498063 0 0 1 -0.71881,0.61805 v 0.18087 a 1.5877565,0.74498063 0 0 1 0.71881,0.61856 1.5877565,0.74498063 0 0 1 -0.71881,0.61805 v 0.18087 a 1.5877565,0.74498063 0 0 1 0.71881,0.61805 1.5877565,0.74498063 0 0 1 -0.71881,0.61805 v 0.18087 a 1.5877565,0.74498063 0 0 1 0.71881,0.61805 1.5877565,0.74498063 0 0 1 -0.71881,0.61857 v 0.18086 a 1.5877565,0.74498063 0 0 1 0.71881,0.61805 1.5877565,0.74498063 0 0 1 -0.60771,0.57464 4.4735904,3.4220095 0 0 1 2.01073,2.85668 4.4735904,3.4220095 0 0 1 -1.78904,2.70371 1.5877565,0.74498063 0 0 1 0.38602,0.48679 1.5877565,0.74498063 0 0 1 -0.71881,0.62322 v 0.17105 a 1.5877565,0.74498063 0 0 1 0.71881,0.6227 1.5877565,0.74498063 0 0 1 -0.71881,0.62322 v 0.17105 a 1.5877565,0.74498063 0 0 1 0.71881,0.62321 1.5877565,0.74498063 0 0 1 -0.71881,0.62322 v 0.17053 a 1.5877565,0.74498063 0 0 1 0.71881,0.62322 1.5877565,0.74498063 0 0 1 -0.71881,0.62322 v 0.17105 a 1.5877565,0.74498063 0 0 1 0.71881,0.62322 1.5877565,0.74498063 0 0 1 -0.71881,0.6227 v 0.17105 a 1.5877565,0.74498063 0 0 1 0.71881,0.62321 1.5877565,0.74498063 0 0 1 -0.71881,0.62322 v 0.17105 a 1.5877565,0.74498063 0 0 1 0.71881,0.62322 1.5877565,0.74498063 0 0 1 -0.71881,0.6227 v 0.17105 a 1.5877565,0.74498063 0 0 1 0.71881,0.62322 1.5877565,0.74498063 0 0 1 -0.71881,0.62321 v 0.17105 a 1.5877565,0.74498063 0 0 1 0.71881,0.6227 1.5877565,0.74498063 0 0 1 -0.71881,0.62322 v 0.17105 a 1.5877565,0.74498063 0 0 1 0.71881,0.62322 1.5877565,0.74498063 0 0 1 -0.71881,0.62322 v 0.17104 a 1.5877565,0.74498063 0 0 1 0.71881,0.62271 1.5877565,0.74498063 0 0 1 -0.69453,0.61495 c 0.006,0.0654 0.0122,0.13081 0.0212,0.19533 a 1.5877565,0.74498063 0 0 1 0.67334,0.6072 1.5877565,0.74498063 0 0 1 -0.38033,0.48317 c 0.37454,0.92043 1.03764,1.69039 1.87843,2.19987 v 0.71469 H 53.2258 85.8481 v -0.71469 c 0.8408,-0.50948 1.5039,-1.27944 1.87844,-2.19987 a 1.5877565,0.74498063 0 0 1 -0.38034,-0.48317 1.5877565,0.74498063 0 0 1 0.67334,-0.6072 c 0.009,-0.0645 0.0152,-0.12993 0.0212,-0.19533 a 1.5877565,0.74498063 0 0 1 -0.69453,-0.61495 1.5877565,0.74498063 0 0 1 0.71882,-0.62271 v -0.17104 a 1.5877565,0.74498063 0 0 1 -0.71882,-0.62322 1.5877565,0.74498063 0 0 1 0.71882,-0.62322 v -0.17105 a 1.5877565,0.74498063 0 0 1 -0.71882,-0.62322 1.5877565,0.74498063 0 0 1 0.71882,-0.6227 v -0.17105 a 1.5877565,0.74498063 0 0 1 -0.71882,-0.62321 1.5877565,0.74498063 0 0 1 0.71882,-0.62322 v -0.17105 a 1.5877565,0.74498063 0 0 1 -0.71882,-0.6227 1.5877565,0.74498063 0 0 1 0.71882,-0.62322 v -0.17105 a 1.5877565,0.74498063 0 0 1 -0.71882,-0.62322 1.5877565,0.74498063 0 0 1 0.71882,-0.62321 v -0.17105 a 1.5877565,0.74498063 0 0 1 -0.71882,-0.6227 1.5877565,0.74498063 0 0 1 0.71882,-0.62322 v -0.17105 a 1.5877565,0.74498063 0 0 1 -0.71882,-0.62322 1.5877565,0.74498063 0 0 1 0.71882,-0.62322 v -0.17053 a 1.5877565,0.74498063 0 0 1 -0.71882,-0.62322 1.5877565,0.74498063 0 0 1 0.71882,-0.62321 v -0.17105 a 1.5877565,0.74498063 0 0 1 -0.71882,-0.62322 1.5877565,0.74498063 0 0 1 0.71882,-0.6227 v -0.17105 a 1.5877565,0.74498063 0 0 1 -0.71882,-0.62322 1.5877565,0.74498063 0 0 1 0.38602,-0.48679 4.4735904,3.4220095 0 0 1 -1.78904,-2.70371 4.4735904,3.4220095 0 0 1 2.01073,-2.85668 1.5877565,0.74498063 0 0 1 -0.60771,-0.57464 1.5877565,0.74498063 0 0 1 0.71882,-0.61805 v -0.18086 a 1.5877565,0.74498063 0 0 1 -0.71882,-0.61857 1.5877565,0.74498063 0 0 1 0.71882,-0.61805 v -0.18087 a 1.5877565,0.74498063 0 0 1 -0.71882,-0.61805 1.5877565,0.74498063 0 0 1 0.71882,-0.61805 v -0.18087 a 1.5877565,0.74498063 0 0 1 -0.71882,-0.61805 1.5877565,0.74498063 0 0 1 0.71882,-0.61856 v -0.18087 a 1.5877565,0.74498063 0 0 1 -0.71882,-0.61805 1.5877565,0.74498063 0 0 1 0.71882,-0.61805 v -0.18087 a 1.5877565,0.74498063 0 0 1 -0.71882,-0.61805 1.5877565,0.74498063 0 0 1 0.71882,-0.61857 v -0.18035 a 1.5877565,0.74498063 0 0 1 -0.71882,-0.61856 1.5877565,0.74498063 0 0 1 0.71882,-0.61805 v -0.17622 a 1.5877565,0.74498063 0 0 1 -0.71882,-0.6227 1.5877565,0.74498063 0 0 1 0.71882,-0.61857 v -0.18035 a 1.5877565,0.74498063 0 0 1 -0.71882,-0.61857 1.5877565,0.74498063 0 0 1 0.71882,-0.61805 v -0.18086 a 1.5877565,0.74498063 0 0 1 -0.71882,-0.61805 1.5877565,0.74498063 0 0 1 0.71882,-0.61805 v -0.18087 a 1.5877565,0.74498063 0 0 1 -0.71882,-0.61857 1.5877565,0.74498063 0 0 1 0.71882,-0.61805 v -0.18087 a 1.5877565,0.74498063 0 0 1 -0.71882,-0.61805 1.5877565,0.74498063 0 0 1 0.71882,-0.61805 v -0.18086 a 1.5877565,0.74498063 0 0 1 -0.71882,-0.61805 1.5877565,0.74498063 0 0 1 0.71882,-0.61857 v -0.18087 a 1.5877565,0.74498063 0 0 1 -0.71882,-0.61805 1.5877565,0.74498063 0 0 1 0.71882,-0.61805 V 85.4107 a 1.5877565,0.74498063 0 0 1 -0.71882,-0.62219 1.5877565,0.74498063 0 0 1 0.71882,-0.61856 v -0.18087 a 1.5877565,0.74498063 0 0 1 -0.71882,-0.61805 1.5877565,0.74498063 0 0 1 0.71882,-0.61805 v -0.18087 a 1.5877565,0.74498063 0 0 1 -0.71882,-0.61805 1.5877565,0.74498063 0 0 1 0.71882,-0.61857 v -0.18035 a 1.5877565,0.74498063 0 0 1 -0.71882,-0.61856 1.5877565,0.74498063 0 0 1 0.71882,-0.61805 v -0.18087 a 1.5877565,0.74498063 0 0 1 -0.71882,-0.61805 1.5877565,0.74498063 0 0 1 0.71882,-0.61805 v -0.18087 a 1.5877565,0.74498063 0 0 1 -0.71882,-0.61857 1.5877565,0.74498063 0 0 1 0.71882,-0.61805 v -0.18086 a 1.5877565,0.74498063 0 0 1 -0.71882,-0.61805 1.5877565,0.74498063 0 0 1 0.71882,-0.61805 v -0.17622 a 1.5877565,0.74498063 0 0 1 -0.71882,-0.62322 1.5877565,0.74498063 0 0 1 0.71882,-0.61805 v -0.18087 a 1.5877565,0.74498063 0 0 1 -0.71882,-0.61805 1.5877565,0.74498063 0 0 1 0.71882,-0.61805 v -0.18086 a 1.5877565,0.74498063 0 0 1 -0.71882,-0.61805 1.5877565,0.74498063 0 0 1 0.71882,-0.61857 V 71.2343 a 1.5877565,0.74498063 0 0 1 -0.71882,-0.61805 1.5877565,0.74498063 0 0 1 0.71882,-0.61805 v -0.18087 a 1.5877565,0.74498063 0 0 1 -0.71882,-0.61805 1.5877565,0.74498063 0 0 1 0.71882,-0.61856 v -0.18087 a 1.5877565,0.74498063 0 0 1 -0.71882,-0.61805 1.5877565,0.74498063 0 0 1 0.71882,-0.61805 v -0.18087 a 1.5877565,0.74498063 0 0 1 -0.71882,-0.61805 1.5877565,0.74498063 0 0 1 0.71882,-0.61856 v -0.18036 a 1.5877565,0.74498063 0 0 1 -0.71882,-0.61856 1.5877565,0.74498063 0 0 1 0.71882,-0.61805 v -0.18087 a 1.5877565,0.74498063 0 0 1 -0.71882,-0.61805 1.5877565,0.74498063 0 0 1 0.71882,-0.61805 v -0.18087 a 1.5877565,0.74498063 0 0 1 -0.71882,-0.61856 1.5877565,0.74498063 0 0 1 0.71882,-0.61805 v -0.18087 a 1.5877565,0.74498063 0 0 1 -0.71882,-0.61805 1.5877565,0.74498063 0 0 1 0.71882,-0.61805 v -0.18087 a 1.5877565,0.74498063 0 0 1 -0.71882,-0.61857 1.5877565,0.74498063 0 0 1 0.71882,-0.61805 v -0.18086 a 1.5877565,0.74498063 0 0 1 -0.71882,-0.61805 1.5877565,0.74498063 0 0 1 0.71882,-0.61805 v -0.18087 a 1.5877565,0.74498063 0 0 1 -0.71882,-0.61805 1.5877565,0.74498063 0 0 1 0.71882,-0.61857 v -0.17622 a 1.5877565,0.74498063 0 0 1 -0.71882,-0.6227 1.5877565,0.74498063 0 0 1 0.71882,-0.61805 v -0.18086 a 1.5877565,0.74498063 0 0 1 -0.71882,-0.61805 1.5877565,0.74498063 0 0 1 0.71882,-0.61857 v -0.18035 a 1.5877565,0.74498063 0 0 1 -0.71882,-0.61857 1.5877565,0.74498063 0 0 1 0.71882,-0.61805 v -0.18087 a 1.5877565,0.74498063 0 0 1 -0.71882,-0.61805 1.5877565,0.74498063 0 0 1 0.71882,-0.61856 v -0.18035 a 1.5877565,0.74498063 0 0 1 -0.71882,-0.61857 1.5877565,0.74498063 0 0 1 0.71882,-0.61805 V 48.5592 a 1.5877565,0.74498063 0 0 1 -0.71882,-0.61805 1.5877565,0.74498063 0 0 1 0.71882,-0.6227 v -0.17622 a 1.5877565,0.74498063 0 0 1 -0.71882,-0.61856 1.5877565,0.74498063 0 0 1 0.71882,-0.61805 V 45.7294 a 1.5877565,0.74498063 0 0 1 -0.71882,-0.6227 1.5877565,0.74498063 0 0 1 0.71882,-0.61805 v -0.18087 a 1.5877565,0.74498063 0 0 1 -0.71882,-0.61805 1.5877565,0.74498063 0 0 1 0.71882,-0.61857 V 42.8903 a 1.5877565,0.74498063 0 0 1 -0.71882,-0.61805 1.5877565,0.74498063 0 0 1 0.71882,-0.61805 v -0.18087 a 1.5877565,0.74498063 0 0 1 -0.71882,-0.61805 1.5877565,0.74498063 0 0 1 0.71882,-0.61857 v -0.18087 a 1.5877565,0.74498063 0 0 1 -0.71882,-0.61805 1.5877565,0.74498063 0 0 1 0.71882,-0.61805 v -0.18086 a 1.5877565,0.74498063 0 0 1 -0.71882,-0.61805 1.5877565,0.74498063 0 0 1 0.71882,-0.6227 v -0.17622 a 1.5877565,0.74498063 0 0 1 -0.71882,-0.61857 1.5877565,0.74498063 0 0 1 0.71882,-0.61805 v -0.18087 a 1.5877565,0.74498063 0 0 1 -0.71882,-0.61805 1.5877565,0.74498063 0 0 1 0.71882,-0.61805 v -0.18086 a 1.5877565,0.74498063 0 0 1 -0.71882,-0.61857 1.5877565,0.74498063 0 0 1 0.71882,-0.61805 v -0.18087 a 1.5877565,0.74498063 0 0 1 -0.71882,-0.61805 1.5877565,0.74498063 0 0 1 0.71882,-0.61805 V 31.553 a 1.5877565,0.74498063 0 0 1 -0.71882,-0.61856 1.5877565,0.74498063 0 0 1 0.71882,-0.61805 v -0.18087 a 1.5877565,0.74498063 0 0 1 -0.71882,-0.61805 1.5877565,0.74498063 0 0 1 0.71882,-0.61805 v -0.18087 a 1.5877565,0.74498063 0 0 1 -0.71882,-0.61805 1.5877565,0.74498063 0 0 1 0.71882,-0.61856 v -0.18087 a 1.5877565,0.74498063 0 0 1 -0.71882,-0.61805 1.5877565,0.74498063 0 0 1 0.71882,-0.61805 V 25.8841 a 1.5877565,0.74498063 0 0 1 -0.71882,-0.61805 1.5877565,0.74498063 0 0 1 0.71882,-0.61857 v -0.18035 a 1.5877565,0.74498063 0 0 1 -0.71882,-0.61856 1.5877565,0.74498063 0 0 1 0.71882,-0.61805 v -0.18087 a 1.5877565,0.74498063 0 0 1 -0.71882,-0.61805 1.5877565,0.74498063 0 0 1 0.71882,-0.61857 v -0.18035 a 1.5877565,0.74498063 0 0 1 -0.71882,-0.61857 1.5877565,0.74498063 0 0 1 0.71882,-0.61805 V 20.2152 a 1.5877565,0.74498063 0 0 1 -0.71882,-0.61805 1.5877565,0.74498063 0 0 1 0.71882,-0.61805 v -0.18087 a 1.5877565,0.74498063 0 0 1 -0.71882,-0.61857 1.5877565,0.74498063 0 0 1 0.71882,-0.62218 v -0.17674 a 1.5877565,0.74498063 0 0 1 -0.71882,-0.61805 1.5877565,0.74498063 0 0 1 0.65939,-0.60358 c -0.0121,-0.0762 -0.0241,-0.15247 -0.0398,-0.22737 a 1.5877565,0.74498063 0 0 1 -0.6196,-0.58653 1.5877565,0.74498063 0 0 1 0.2806,-0.41755 C 87.22546,14.0754 86.57227,13.36689 85.75973,12.89936 V 12.05239 H 53.2258 Z m 0.40876,95.53887 a 0.28134918,0.46891534 0 0 1 0.28112,0.46922 0.28134918,0.46891534 0 0 1 -0.28112,0.4687 0.28134918,0.46891534 0 0 1 -0.28163,-0.4687 0.28134918,0.46891534 0 0 1 0.28163,-0.46922 z m 0.94465,0 a 0.28134918,0.46891534 0 0 1 0.28163,0.46922 0.28134918,0.46891534 0 0 1 -0.28163,0.4687 0.28134918,0.46891534 0 0 1 -0.28112,-0.4687 0.28134918,0.46891534 0 0 1 0.28112,-0.46922 z m 0.94516,0 a 0.28134918,0.46891534 0 0 1 0.28112,0.46922 0.28134918,0.46891534 0 0 1 -0.28112,0.4687 0.28134918,0.46891534 0 0 1 -0.28164,-0.4687 0.28134918,0.46891534 0 0 1 0.28164,-0.46922 z m 0.94464,0 a 0.28134918,0.46891534 0 0 1 0.28164,0.46922 0.28134918,0.46891534 0 0 1 -0.28164,0.4687 0.28134918,0.46891534 0 0 1 -0.28112,-0.4687 0.28134918,0.46891534 0 0 1 0.28112,-0.46922 z m 0.94517,0 a 0.28134918,0.46891534 0 0 1 0.28112,0.46922 0.28134918,0.46891534 0 0 1 -0.28112,0.4687 0.28134918,0.46891534 0 0 1 -0.28164,-0.4687 0.28134918,0.46891534 0 0 1 0.28164,-0.46922 z m 0.94464,0 a 0.28134918,0.46891534 0 0 1 0.28112,0.46922 0.28134918,0.46891534 0 0 1 -0.28112,0.4687 0.28134918,0.46891534 0 0 1 -0.28164,-0.4687 0.28134918,0.46891534 0 0 1 0.28164,-0.46922 z m 0.94465,0 a 0.28134918,0.46891534 0 0 1 0.28163,0.46922 0.28134918,0.46891534 0 0 1 -0.28163,0.4687 0.28134918,0.46891534 0 0 1 -0.28112,-0.4687 0.28134918,0.46891534 0 0 1 0.28112,-0.46922 z m 0.94516,0 a 0.28134918,0.46891534 0 0 1 0.28112,0.46922 0.28134918,0.46891534 0 0 1 -0.28112,0.4687 0.28134918,0.46891534 0 0 1 -0.28164,-0.4687 0.28134918,0.46891534 0 0 1 0.28164,-0.46922 z m 0.94464,0 a 0.28134918,0.46891534 0 0 1 0.28164,0.46922 0.28134918,0.46891534 0 0 1 -0.28164,0.4687 0.28134918,0.46891534 0 0 1 -0.28112,-0.4687 0.28134918,0.46891534 0 0 1 0.28112,-0.46922 z m 0.94517,0 a 0.28134918,0.46891534 0 0 1 0.28111,0.46922 0.28134918,0.46891534 0 0 1 -0.28111,0.4687 0.28134918,0.46891534 0 0 1 -0.28164,-0.4687 0.28134918,0.46891534 0 0 1 0.28164,-0.46922 z m 0.94464,0 a 0.28134918,0.46891534 0 0 1 0.28164,0.46922 0.28134918,0.46891534 0 0 1 -0.28164,0.4687 0.28134918,0.46891534 0 0 1 -0.28112,-0.4687 0.28134918,0.46891534 0 0 1 0.28112,-0.46922 z m 0.94465,0 a 0.28134918,0.46891534 0 0 1 0.28163,0.46922 0.28134918,0.46891534 0 0 1 -0.28163,0.4687 0.28134918,0.46891534 0 0 1 -0.28112,-0.4687 0.28134918,0.46891534 0 0 1 0.28112,-0.46922 z m 0.94516,0 a 0.28134918,0.46891534 0 0 1 0.28112,0.46922 0.28134918,0.46891534 0 0 1 -0.28112,0.4687 0.28134918,0.46891534 0 0 1 -0.28164,-0.4687 0.28134918,0.46891534 0 0 1 0.28164,-0.46922 z m 0.94464,0 a 0.28134918,0.46891534 0 0 1 0.28164,0.46922 0.28134918,0.46891534 0 0 1 -0.28164,0.4687 0.28134918,0.46891534 0 0 1 -0.28112,-0.4687 0.28134918,0.46891534 0 0 1 0.28112,-0.46922 z m 0.94516,0 a 0.28134918,0.46891534 0 0 1 0.28112,0.46922 0.28134918,0.46891534 0 0 1 -0.28112,0.4687 0.28134918,0.46891534 0 0 1 -0.28163,-0.4687 0.28134918,0.46891534 0 0 1 0.28163,-0.46922 z m 0.94465,0 a 0.28134918,0.46891534 0 0 1 0.28164,0.46922 0.28134918,0.46891534 0 0 1 -0.28164,0.4687 0.28134918,0.46891534 0 0 1 -0.28112,-0.4687 0.28134918,0.46891534 0 0 1 0.28112,-0.46922 z m 0.94516,0 a 0.28134918,0.46891534 0 0 1 0.28112,0.46922 0.28134918,0.46891534 0 0 1 -0.28112,0.4687 0.28134918,0.46891534 0 0 1 -0.28163,-0.4687 0.28134918,0.46891534 0 0 1 0.28163,-0.46922 z m 0.94465,0 a 0.28134918,0.46891534 0 0 1 0.28112,0.46922 0.28134918,0.46891534 0 0 1 -0.28112,0.4687 0.28134918,0.46891534 0 0 1 -0.28112,-0.4687 0.28134918,0.46891534 0 0 1 0.28112,-0.46922 z m 0.94464,0 a 0.28134918,0.46891534 0 0 1 0.28164,0.46922 0.28134918,0.46891534 0 0 1 -0.28164,0.4687 0.28134918,0.46891534 0 0 1 -0.28112,-0.4687 0.28134918,0.46891534 0 0 1 0.28112,-0.46922 z m 0.94516,0 a 0.28134918,0.46891534 0 0 1 0.28112,0.46922 0.28134918,0.46891534 0 0 1 -0.28112,0.4687 0.28134918,0.46891534 0 0 1 -0.28163,-0.4687 0.28134918,0.46891534 0 0 1 0.28163,-0.46922 z m 0.94465,0 a 0.28134918,0.46891534 0 0 1 0.28164,0.46922 0.28134918,0.46891534 0 0 1 -0.28164,0.4687 0.28134918,0.46891534 0 0 1 -0.28112,-0.4687 0.28134918,0.46891534 0 0 1 0.28112,-0.46922 z m 0.94516,0 a 0.28134918,0.46891534 0 0 1 0.28112,0.46922 0.28134918,0.46891534 0 0 1 -0.28112,0.4687 0.28134918,0.46891534 0 0 1 -0.28164,-0.4687 0.28134918,0.46891534 0 0 1 0.28164,-0.46922 z m 0.94465,0 a 0.28134918,0.46891534 0 0 1 0.28112,0.46922 0.28134918,0.46891534 0 0 1 -0.28112,0.4687 0.28134918,0.46891534 0 0 1 -0.28112,-0.4687 0.28134918,0.46891534 0 0 1 0.28112,-0.46922 z m 0.94516,0 a 0.28134918,0.46891534 0 0 1 0.28112,0.46922 0.28134918,0.46891534 0 0 1 -0.28112,0.4687 0.28134918,0.46891534 0 0 1 -0.28164,-0.4687 0.28134918,0.46891534 0 0 1 0.28164,-0.46922 z m 0.94464,0 a 0.28134918,0.46891534 0 0 1 0.28112,0.46922 0.28134918,0.46891534 0 0 1 -0.28112,0.4687 0.28134918,0.46891534 0 0 1 -0.28163,-0.4687 0.28134918,0.46891534 0 0 1 0.28163,-0.46922 z m 0.94465,0 a 0.28134918,0.46891534 0 0 1 0.28163,0.46922 0.28134918,0.46891534 0 0 1 -0.28163,0.4687 0.28134918,0.46891534 0 0 1 -0.28112,-0.4687 0.28134918,0.46891534 0 0 1 0.28112,-0.46922 z m 0.94516,0 a 0.28134918,0.46891534 0 0 1 0.28112,0.46922 0.28134918,0.46891534 0 0 1 -0.28112,0.4687 0.28134918,0.46891534 0 0 1 -0.28164,-0.4687 0.28134918,0.46891534 0 0 1 0.28164,-0.46922 z m 0.94465,0 a 0.28134918,0.46891534 0 0 1 0.28163,0.46922 0.28134918,0.46891534 0 0 1 -0.28163,0.4687 0.28134918,0.46891534 0 0 1 -0.28112,-0.4687 0.28134918,0.46891534 0 0 1 0.28112,-0.46922 z m 0.94516,0 a 0.28134918,0.46891534 0 0 1 0.28112,0.46922 0.28134918,0.46891534 0 0 1 -0.28112,0.4687 0.28134918,0.46891534 0 0 1 -0.28164,-0.4687 0.28134918,0.46891534 0 0 1 0.28164,-0.46922 z m 0.94464,0 a 0.28134918,0.46891534 0 0 1 0.28112,0.46922 0.28134918,0.46891534 0 0 1 -0.28112,0.4687 0.28134918,0.46891534 0 0 1 -0.28112,-0.4687 0.28134918,0.46891534 0 0 1 0.28112,-0.46922 z m 0.94465,0 a 0.28134918,0.46891534 0 0 1 0.281634,0.46922 0.28134918,0.46891534 0 0 1 -0.281634,0.4687 0.28134918,0.46891534 0 0 1 -0.28112,-0.4687 0.28134918,0.46891534 0 0 1 0.28112,-0.46922 z m 0.945164,0 a 0.28134918,0.46891534 0 0 1 0.28112,0.46922 0.28134918,0.46891534 0 0 1 -0.28112,0.4687 0.28134918,0.46891534 0 0 1 -0.28164,-0.4687 0.28134918,0.46891534 0 0 1 0.28164,-0.46922 z m 0.94464,0 a 0.28134918,0.46891534 0 0 1 0.28164,0.46922 0.28134918,0.46891534 0 0 1 -0.28164,0.4687 0.28134918,0.46891534 0 0 1 -0.28111,-0.4687 0.28134918,0.46891534 0 0 1 0.28111,-0.46922 z m 0.94517,0 a 0.28134918,0.46891534 0 0 1 0.28112,0.46922 0.28134918,0.46891534 0 0 1 -0.28112,0.4687 0.28134918,0.46891534 0 0 1 -0.28164,-0.4687 0.28134918,0.46891534 0 0 1 0.28164,-0.46922 z m 0.94464,0 a 0.28134918,0.46891534 0 0 1 0.28112,0.46922 0.28134918,0.46891534 0 0 1 -0.28112,0.4687 0.28134918,0.46891534 0 0 1 -0.28112,-0.4687 0.28134918,0.46891534 0 0 1 0.28112,-0.46922 z m 0.94465,0 a 0.28134918,0.46891534 0 0 1 0.28163,0.46922 0.28134918,0.46891534 0 0 1 -0.28163,0.4687 0.28134918,0.46891534 0 0 1 -0.28112,-0.4687 0.28134918,0.46891534 0 0 1 0.28112,-0.46922 z m 0.94516,0 a 0.28134918,0.46891534 0 0 1 0.28112,0.46922 0.28134918,0.46891534 0 0 1 -0.28112,0.4687 0.28134918,0.46891534 0 0 1 -0.28164,-0.4687 0.28134918,0.46891534 0 0 1 0.28164,-0.46922 z m 0.94464,0 a 0.28134918,0.46891534 0 0 1 0.28164,0.46922 0.28134918,0.46891534 0 0 1 -0.28164,0.4687 0.28134918,0.46891534 0 0 1 -0.28112,-0.4687 0.28134918,0.46891534 0 0 1 0.28112,-0.46922 z m 0.94517,0 a 0.28134918,0.46891534 0 0 1 0.28112,0.46922 0.28134918,0.46891534 0 0 1 -0.28112,0.4687 0.28134918,0.46891534 0 0 1 -0.28164,-0.4687 0.28134918,0.46891534 0 0 1 0.28164,-0.46922 z m 0.94464,0 a 0.28134918,0.46891534 0 0 1 0.28112,0.46922 0.28134918,0.46891534 0 0 1 -0.28112,0.4687 0.28134918,0.46891534 0 0 1 -0.28112,-0.4687 0.28134918,0.46891534 0 0 1 0.28112,-0.46922 z m 0.94465,0 a 0.28134918,0.46891534 0 0 1 0.28163,0.46922 0.28134918,0.46891534 0 0 1 -0.28163,0.4687 0.28134918,0.46891534 0 0 1 -0.28112,-0.4687 0.28134918,0.46891534 0 0 1 0.28112,-0.46922 z m 0.94516,0 a 0.28134918,0.46891534 0 0 1 0.28112,0.46922 0.28134918,0.46891534 0 0 1 -0.28112,0.4687 0.28134918,0.46891534 0 0 1 -0.28164,-0.4687 0.28134918,0.46891534 0 0 1 0.28164,-0.46922 z m 0.94464,0 a 0.28134918,0.46891534 0 0 1 0.28164,0.46922 0.28134918,0.46891534 0 0 1 -0.28164,0.4687 0.28134918,0.46891534 0 0 1 -0.28112,-0.4687 0.28134918,0.46891534 0 0 1 0.28112,-0.46922 z m 0.94517,0 a 0.28134918,0.46891534 0 0 1 0.28112,0.46922 0.28134918,0.46891534 0 0 1 -0.28112,0.4687 0.28134918,0.46891534 0 0 1 -0.28164,-0.4687 0.28134918,0.46891534 0 0 1 0.28164,-0.46922 z m 0.94464,0 a 0.28134918,0.46891534 0 0 1 0.28164,0.46922 0.28134918,0.46891534 0 0 1 -0.28164,0.4687 0.28134918,0.46891534 0 0 1 -0.28112,-0.4687 0.28134918,0.46891534 0 0 1 0.28112,-0.46922 z m 0.94465,0 a 0.28134918,0.46891534 0 0 1 0.28163,0.46922 0.28134918,0.46891534 0 0 1 -0.28163,0.4687 0.28134918,0.46891534 0 0 1 -0.28112,-0.4687 0.28134918,0.46891534 0 0 1 0.28112,-0.46922 z m 0.94516,0 a 0.28134918,0.46891534 0 0 1 0.28112,0.46922 0.28134918,0.46891534 0 0 1 -0.28112,0.4687 0.28134918,0.46891534 0 0 1 -0.28112,-0.4687 0.28134918,0.46891534 0 0 1 0.28112,-0.46922 z m 0.94464,0 a 0.28134918,0.46891534 0 0 1 0.28164,0.46922 0.28134918,0.46891534 0 0 1 -0.28164,0.4687 0.28134918,0.46891534 0 0 1 -0.28112,-0.4687 0.28134918,0.46891534 0 0 1 0.28112,-0.46922 z m 0.94516,0 a 0.28134918,0.46891534 0 0 1 0.28112,0.46922 0.28134918,0.46891534 0 0 1 -0.28112,0.4687 0.28134918,0.46891534 0 0 1 -0.28163,-0.4687 0.28134918,0.46891534 0 0 1 0.28163,-0.46922 z m 0.94465,0 a 0.28134918,0.46891534 0 0 1 0.28164,0.46922 0.28134918,0.46891534 0 0 1 -0.28164,0.4687 0.28134918,0.46891534 0 0 1 -0.28112,-0.4687 0.28134918,0.46891534 0 0 1 0.28112,-0.46922 z m 0.94516,0 a 0.28134918,0.46891534 0 0 1 0.28112,0.46922 0.28134918,0.46891534 0 0 1 -0.28112,0.4687 0.28134918,0.46891534 0 0 1 -0.28163,-0.4687 0.28134918,0.46891534 0 0 1 0.28163,-0.46922 z m 0.94465,0 a 0.28134918,0.46891534 0 0 1 0.28112,0.46922 0.28134918,0.46891534 0 0 1 -0.28112,0.4687 0.28134918,0.46891534 0 0 1 -0.28112,-0.4687 0.28134918,0.46891534 0 0 1 0.28112,-0.46922 z m 0.94464,0 a 0.28134918,0.46891534 0 0 1 0.28164,0.46922 0.28134918,0.46891534 0 0 1 -0.28164,0.4687 0.28134918,0.46891534 0 0 1 -0.28112,-0.4687 0.28134918,0.46891534 0 0 1 0.28112,-0.46922 z m 0.94516,0 a 0.28134918,0.46891534 0 0 1 0.28112,0.46922 0.28134918,0.46891534 0 0 1 -0.28112,0.4687 0.28134918,0.46891534 0 0 1 -0.28163,-0.4687 0.28134918,0.46891534 0 0 1 0.28163,-0.46922 z m 0.94465,0 a 0.28134918,0.46891534 0 0 1 0.28164,0.46922 0.28134918,0.46891534 0 0 1 -0.28164,0.4687 0.28134918,0.46891534 0 0 1 -0.28112,-0.4687 0.28134918,0.46891534 0 0 1 0.28112,-0.46922 z m 0.94516,0 a 0.28134918,0.46891534 0 0 1 0.28112,0.46922 0.28134918,0.46891534 0 0 1 -0.28112,0.4687 0.28134918,0.46891534 0 0 1 -0.28164,-0.4687 0.28134918,0.46891534 0 0 1 0.28164,-0.46922 z m 0.94465,0 a 0.28134918,0.46891534 0 0 1 0.28163,0.46922 0.28134918,0.46891534 0 0 1 -0.28163,0.4687 0.28134918,0.46891534 0 0 1 -0.28112,-0.4687 0.28134918,0.46891534 0 0 1 0.28112,-0.46922 z m 0.94516,0 a 0.28134918,0.46891534 0 0 1 0.28112,0.46922 0.28134918,0.46891534 0 0 1 -0.28112,0.4687 0.28134918,0.46891534 0 0 1 -0.28164,-0.4687 0.28134918,0.46891534 0 0 1 0.28164,-0.46922 z m 0.94464,0 a 0.28134918,0.46891534 0 0 1 0.28112,0.46922 0.28134918,0.46891534 0 0 1 -0.28112,0.4687 0.28134918,0.46891534 0 0 1 -0.28163,-0.4687 0.28134918,0.46891534 0 0 1 0.28163,-0.46922 z m 0.94465,0 a 0.28134918,0.46891534 0 0 1 0.28164,0.46922 0.28134918,0.46891534 0 0 1 -0.28164,0.4687 0.28134918,0.46891534 0 0 1 -0.28112,-0.4687 0.28134918,0.46891534 0 0 1 0.28112,-0.46922 z m 0.94516,0 a 0.28134918,0.46891534 0 0 1 0.28112,0.46922 0.28134918,0.46891534 0 0 1 -0.28112,0.4687 0.28134918,0.46891534 0 0 1 -0.28164,-0.4687 0.28134918,0.46891534 0 0 1 0.28164,-0.46922 z m 0.94465,0 a 0.28134918,0.46891534 0 0 1 0.28163,0.46922 0.28134918,0.46891534 0 0 1 -0.28163,0.4687 0.28134918,0.46891534 0 0 1 -0.28112,-0.4687 0.28134918,0.46891534 0 0 1 0.28112,-0.46922 z m 0.94516,0 a 0.28134918,0.46891534 0 0 1 0.28112,0.46922 0.28134918,0.46891534 0 0 1 -0.28112,0.4687 0.28134918,0.46891534 0 0 1 -0.28164,-0.4687 0.28134918,0.46891534 0 0 1 0.28164,-0.46922 z m 0.94464,0 a 0.28134918,0.46891534 0 0 1 0.28164,0.46922 0.28134918,0.46891534 0 0 1 -0.28164,0.4687 0.28134918,0.46891534 0 0 1 -0.28112,-0.4687 0.28134918,0.46891534 0 0 1 0.28112,-0.46922 z m 0.94465,0 a 0.28134918,0.46891534 0 0 1 0.28163,0.46922 0.28134918,0.46891534 0 0 1 -0.28163,0.4687 0.28134918,0.46891534 0 0 1 -0.28112,-0.4687 0.28134918,0.46891534 0 0 1 0.28112,-0.46922 z m 0.94516,0 a 0.28134918,0.46891534 0 0 1 0.28112,0.46922 0.28134918,0.46891534 0 0 1 -0.28112,0.4687 0.28134918,0.46891534 0 0 1 -0.28164,-0.4687 0.28134918,0.46891534 0 0 1 0.28164,-0.46922 z m 0.94465,0 a 0.28134918,0.46891534 0 0 1 0.28163,0.46922 0.28134918,0.46891534 0 0 1 -0.28163,0.4687 0.28134918,0.46891534 0 0 1 -0.28112,-0.4687 0.28134918,0.46891534 0 0 1 0.28112,-0.46922 z m 0.94516,0 a 0.28134918,0.46891534 0 0 1 0.28112,0.46922 0.28134918,0.46891534 0 0 1 -0.28112,0.4687 0.28134918,0.46891534 0 0 1 -0.28164,-0.4687 0.28134918,0.46891534 0 0 1 0.28164,-0.46922 z m 0.94464,0 a 0.28134918,0.46891534 0 0 1 0.28164,0.46922 0.28134918,0.46891534 0 0 1 -0.28164,0.4687 0.28134918,0.46891534 0 0 1 -0.28112,-0.4687 0.28134918,0.46891534 0 0 1 0.28112,-0.46922 z" /><path
       id="path15710"
       style="fill:#ffffff;stroke-width:1.35335;stroke-linecap:round;stroke-linejoin:round;paint-order:stroke fill markers"
       d="m 20.691866,12.05238 v 0.84697 c -0.81254,0.46753 -1.46573,1.17604 -1.86707,2.0283 a 1.5877565,0.74498063 0 0 1 0.2806,0.41755 1.5877565,0.74498063 0 0 1 -0.6196,0.58653 c -0.0157,0.0749 -0.0277,0.15115 -0.0398,0.22737 a 1.5877565,0.74498063 0 0 1 0.65939,0.60358 1.5877565,0.74498063 0 0 1 -0.71881,0.61805 v 0.17674 a 1.5877565,0.74498063 0 0 1 0.71881,0.62218 1.5877565,0.74498063 0 0 1 -0.71881,0.61857 v 0.18087 a 1.5877565,0.74498063 0 0 1 0.71881,0.61805 1.5877565,0.74498063 0 0 1 -0.71881,0.61805 v 0.18086 a 1.5877565,0.74498063 0 0 1 0.71881,0.61805 1.5877565,0.74498063 0 0 1 -0.71881,0.61857 v 0.18035 a 1.5877565,0.74498063 0 0 1 0.71881,0.61857 1.5877565,0.74498063 0 0 1 -0.71881,0.61805 v 0.18087 a 1.5877565,0.74498063 0 0 1 0.71881,0.61805 1.5877565,0.74498063 0 0 1 -0.71881,0.61856 v 0.18035 a 1.5877565,0.74498063 0 0 1 0.71881,0.61857 1.5877565,0.74498063 0 0 1 -0.71881,0.61805 v 0.18087 a 1.5877565,0.74498063 0 0 1 0.71881,0.61805 1.5877565,0.74498063 0 0 1 -0.71881,0.61805 v 0.18087 a 1.5877565,0.74498063 0 0 1 0.71881,0.61856 1.5877565,0.74498063 0 0 1 -0.71881,0.61805 v 0.18087 a 1.5877565,0.74498063 0 0 1 0.71881,0.61805 1.5877565,0.74498063 0 0 1 -0.71881,0.61805 v 0.18087 a 1.5877565,0.74498063 0 0 1 0.71881,0.61805 1.5877565,0.74498063 0 0 1 -0.71881,0.61856 v 0.18087 a 1.5877565,0.74498063 0 0 1 0.71881,0.61805 1.5877565,0.74498063 0 0 1 -0.71881,0.61805 v 0.18087 a 1.5877565,0.74498063 0 0 1 0.71881,0.61805 1.5877565,0.74498063 0 0 1 -0.71881,0.61857 v 0.18086 a 1.5877565,0.74498063 0 0 1 0.71881,0.61805 1.5877565,0.74498063 0 0 1 -0.71881,0.61805 v 0.18087 a 1.5877565,0.74498063 0 0 1 0.71881,0.61805 1.5877565,0.74498063 0 0 1 -0.71881,0.61857 v 0.17622 a 1.5877565,0.74498063 0 0 1 0.71881,0.6227 1.5877565,0.74498063 0 0 1 -0.71881,0.61805 v 0.18086 a 1.5877565,0.74498063 0 0 1 0.71881,0.61805 1.5877565,0.74498063 0 0 1 -0.71881,0.61805 v 0.18087 a 1.5877565,0.74498063 0 0 1 0.71881,0.61857 1.5877565,0.74498063 0 0 1 -0.71881,0.61805 v 0.18087 a 1.5877565,0.74498063 0 0 1 0.71881,0.61805 1.5877565,0.74498063 0 0 1 -0.71881,0.61805 v 0.18086 a 1.5877565,0.74498063 0 0 1 0.71881,0.61857 1.5877565,0.74498063 0 0 1 -0.71881,0.61805 v 0.18087 a 1.5877565,0.74498063 0 0 1 0.71881,0.61805 1.5877565,0.74498063 0 0 1 -0.71881,0.6227 v 0.17622 a 1.5877565,0.74498063 0 0 1 0.71881,0.61805 1.5877565,0.74498063 0 0 1 -0.71881,0.61856 v 0.17622 a 1.5877565,0.74498063 0 0 1 0.71881,0.6227 1.5877565,0.74498063 0 0 1 -0.71881,0.61805 v 0.18087 a 1.5877565,0.74498063 0 0 1 0.71881,0.61805 1.5877565,0.74498063 0 0 1 -0.71881,0.61857 v 0.18035 a 1.5877565,0.74498063 0 0 1 0.71881,0.61856 1.5877565,0.74498063 0 0 1 -0.71881,0.61805 v 0.18087 a 1.5877565,0.74498063 0 0 1 0.71881,0.61805 1.5877565,0.74498063 0 0 1 -0.71881,0.61857 v 0.18035 a 1.5877565,0.74498063 0 0 1 0.71881,0.61857 1.5877565,0.74498063 0 0 1 -0.71881,0.61805 v 0.18086 a 1.5877565,0.74498063 0 0 1 0.71881,0.61805 1.5877565,0.74498063 0 0 1 -0.71881,0.6227 v 0.17622 a 1.5877565,0.74498063 0 0 1 0.71881,0.61857 1.5877565,0.74498063 0 0 1 -0.71881,0.61805 v 0.18087 a 1.5877565,0.74498063 0 0 1 0.71881,0.61805 1.5877565,0.74498063 0 0 1 -0.71881,0.61805 v 0.18086 a 1.5877565,0.74498063 0 0 1 0.71881,0.61805 1.5877565,0.74498063 0 0 1 -0.71881,0.61857 v 0.18087 a 1.5877565,0.74498063 0 0 1 0.71881,0.61805 1.5877565,0.74498063 0 0 1 -0.71881,0.61805 v 0.18087 a 1.5877565,0.74498063 0 0 1 0.71881,0.61805 1.5877565,0.74498063 0 0 1 -0.71881,0.61856 v 0.18087 a 1.5877565,0.74498063 0 0 1 0.71881,0.61805 1.5877565,0.74498063 0 0 1 -0.71881,0.61805 v 0.18087 a 1.5877565,0.74498063 0 0 1 0.71881,0.61805 1.5877565,0.74498063 0 0 1 -0.71881,0.61856 v 0.18036 a 1.5877565,0.74498063 0 0 1 0.71881,0.61856 1.5877565,0.74498063 0 0 1 -0.71881,0.61805 v 0.18087 a 1.5877565,0.74498063 0 0 1 0.71881,0.61805 1.5877565,0.74498063 0 0 1 -0.71881,0.61805 v 0.18087 a 1.5877565,0.74498063 0 0 1 0.71881,0.61856 1.5877565,0.74498063 0 0 1 -0.71881,0.61805 v 0.18087 a 1.5877565,0.74498063 0 0 1 0.71881,0.61805 1.5877565,0.74498063 0 0 1 -0.71881,0.61805 v 0.18087 a 1.5877565,0.74498063 0 0 1 0.71881,0.61857 1.5877565,0.74498063 0 0 1 -0.71881,0.61805 v 0.18086 a 1.5877565,0.74498063 0 0 1 0.71881,0.61805 1.5877565,0.74498063 0 0 1 -0.71881,0.61805 v 0.18087 a 1.5877565,0.74498063 0 0 1 0.71881,0.61805 1.5877565,0.74498063 0 0 1 -0.71881,0.62322 v 0.17622 a 1.5877565,0.74498063 0 0 1 0.71881,0.61805 1.5877565,0.74498063 0 0 1 -0.71881,0.61805 v 0.18086 a 1.5877565,0.74498063 0 0 1 0.71881,0.61805 1.5877565,0.74498063 0 0 1 -0.71881,0.61857 v 0.18087 a 1.5877565,0.74498063 0 0 1 0.71881,0.61805 1.5877565,0.74498063 0 0 1 -0.71881,0.61805 v 0.18087 a 1.5877565,0.74498063 0 0 1 0.71881,0.61805 1.5877565,0.74498063 0 0 1 -0.71881,0.61856 v 0.18035 a 1.5877565,0.74498063 0 0 1 0.71881,0.61857 1.5877565,0.74498063 0 0 1 -0.71881,0.61805 v 0.18087 a 1.5877565,0.74498063 0 0 1 0.71881,0.61805 1.5877565,0.74498063 0 0 1 -0.71881,0.61805 v 0.18087 a 1.5877565,0.74498063 0 0 1 0.71881,0.61856 1.5877565,0.74498063 0 0 1 -0.71881,0.62219 v 0.17673 a 1.5877565,0.74498063 0 0 1 0.71881,0.61805 1.5877565,0.74498063 0 0 1 -0.71881,0.61805 v 0.18087 a 1.5877565,0.74498063 0 0 1 0.71881,0.61857 1.5877565,0.74498063 0 0 1 -0.71881,0.61805 v 0.18086 a 1.5877565,0.74498063 0 0 1 0.71881,0.61805 1.5877565,0.74498063 0 0 1 -0.71881,0.61805 v 0.18087 a 1.5877565,0.74498063 0 0 1 0.71881,0.61805 1.5877565,0.74498063 0 0 1 -0.71881,0.61857 v 0.18087 a 1.5877565,0.74498063 0 0 1 0.71881,0.61805 1.5877565,0.74498063 0 0 1 -0.71881,0.61805 v 0.18086 a 1.5877565,0.74498063 0 0 1 0.71881,0.61805 1.5877565,0.74498063 0 0 1 -0.71881,0.61857 v 0.18035 a 1.5877565,0.74498063 0 0 1 0.71881,0.61857 1.5877565,0.74498063 0 0 1 -0.71881,0.6227 v 0.17622 a 1.5877565,0.74498063 0 0 1 0.71881,0.61805 1.5877565,0.74498063 0 0 1 -0.71881,0.61856 v 0.18035 a 1.5877565,0.74498063 0 0 1 0.71881,0.61857 1.5877565,0.74498063 0 0 1 -0.71881,0.61805 v 0.18087 a 1.5877565,0.74498063 0 0 1 0.71881,0.61805 1.5877565,0.74498063 0 0 1 -0.71881,0.61805 v 0.18087 a 1.5877565,0.74498063 0 0 1 0.71881,0.61856 1.5877565,0.74498063 0 0 1 -0.71881,0.61805 v 0.18087 a 1.5877565,0.74498063 0 0 1 0.71881,0.61805 1.5877565,0.74498063 0 0 1 -0.71881,0.61805 v 0.18087 a 1.5877565,0.74498063 0 0 1 0.71881,0.61805 1.5877565,0.74498063 0 0 1 -0.71881,0.61857 v 0.18086 a 1.5877565,0.74498063 0 0 1 0.71881,0.61805 1.5877565,0.74498063 0 0 1 -0.60771,0.57464 4.4735904,3.4220095 0 0 1 2.01073,2.85668 4.4735904,3.4220095 0 0 1 -1.78904,2.70371 1.5877565,0.74498063 0 0 1 0.38602,0.48679 1.5877565,0.74498063 0 0 1 -0.71881,0.62322 v 0.17105 a 1.5877565,0.74498063 0 0 1 0.71881,0.6227 1.5877565,0.74498063 0 0 1 -0.71881,0.62322 v 0.17105 a 1.5877565,0.74498063 0 0 1 0.71881,0.62321 1.5877565,0.74498063 0 0 1 -0.71881,0.62322 v 0.17053 a 1.5877565,0.74498063 0 0 1 0.71881,0.62322 1.5877565,0.74498063 0 0 1 -0.71881,0.62322 v 0.17105 a 1.5877565,0.74498063 0 0 1 0.71881,0.62322 1.5877565,0.74498063 0 0 1 -0.71881,0.6227 v 0.17105 a 1.5877565,0.74498063 0 0 1 0.71881,0.62321 1.5877565,0.74498063 0 0 1 -0.71881,0.62322 v 0.17105 a 1.5877565,0.74498063 0 0 1 0.71881,0.62322 1.5877565,0.74498063 0 0 1 -0.71881,0.6227 v 0.17105 a 1.5877565,0.74498063 0 0 1 0.71881,0.62322 1.5877565,0.74498063 0 0 1 -0.71881,0.62321 v 0.17105 a 1.5877565,0.74498063 0 0 1 0.71881,0.6227 1.5877565,0.74498063 0 0 1 -0.71881,0.62322 v 0.17105 a 1.5877565,0.74498063 0 0 1 0.71881,0.62322 1.5877565,0.74498063 0 0 1 -0.71881,0.62322 v 0.17104 a 1.5877565,0.74498063 0 0 1 0.71881,0.62271 1.5877565,0.74498063 0 0 1 -0.69453,0.61495 c 0.006,0.0654 0.0122,0.13081 0.0212,0.19533 a 1.5877565,0.74498063 0 0 1 0.67334,0.6072 1.5877565,0.74498063 0 0 1 -0.38033,0.48317 c 0.37454,0.92043 1.03764,1.69039 1.87843,2.19987 v 0.71469 H 53.2258 85.8481 v -0.71469 c 0.8408,-0.50948 1.5039,-1.27944 1.87844,-2.19987 a 1.5877565,0.74498063 0 0 1 -0.38034,-0.48317 1.5877565,0.74498063 0 0 1 0.67334,-0.6072 c 0.009,-0.0645 0.0152,-0.12993 0.0212,-0.19533 a 1.5877565,0.74498063 0 0 1 -0.69453,-0.61495 1.5877565,0.74498063 0 0 1 0.71882,-0.62271 v -0.17104 a 1.5877565,0.74498063 0 0 1 -0.71882,-0.62322 1.5877565,0.74498063 0 0 1 0.71882,-0.62322 v -0.17105 a 1.5877565,0.74498063 0 0 1 -0.71882,-0.62322 1.5877565,0.74498063 0 0 1 0.71882,-0.6227 v -0.17105 a 1.5877565,0.74498063 0 0 1 -0.71882,-0.62321 1.5877565,0.74498063 0 0 1 0.71882,-0.62322 v -0.17105 a 1.5877565,0.74498063 0 0 1 -0.71882,-0.6227 1.5877565,0.74498063 0 0 1 0.71882,-0.62322 v -0.17105 a 1.5877565,0.74498063 0 0 1 -0.71882,-0.62322 1.5877565,0.74498063 0 0 1 0.71882,-0.62321 v -0.17105 a 1.5877565,0.74498063 0 0 1 -0.71882,-0.6227 1.5877565,0.74498063 0 0 1 0.71882,-0.62322 v -0.17105 a 1.5877565,0.74498063 0 0 1 -0.71882,-0.62322 1.5877565,0.74498063 0 0 1 0.71882,-0.62322 v -0.17053 a 1.5877565,0.74498063 0 0 1 -0.71882,-0.62322 1.5877565,0.74498063 0 0 1 0.71882,-0.62321 v -0.17105 a 1.5877565,0.74498063 0 0 1 -0.71882,-0.62322 1.5877565,0.74498063 0 0 1 0.71882,-0.6227 v -0.17105 a 1.5877565,0.74498063 0 0 1 -0.71882,-0.62322 1.5877565,0.74498063 0 0 1 0.38602,-0.48679 4.4735904,3.4220095 0 0 1 -1.78904,-2.70371 4.4735904,3.4220095 0 0 1 2.01073,-2.85668 1.5877565,0.74498063 0 0 1 -0.60771,-0.57464 1.5877565,0.74498063 0 0 1 0.71882,-0.61805 v -0.18086 a 1.5877565,0.74498063 0 0 1 -0.71882,-0.61857 1.5877565,0.74498063 0 0 1 0.71882,-0.61805 v -0.18087 a 1.5877565,0.74498063 0 0 1 -0.71882,-0.61805 1.5877565,0.74498063 0 0 1 0.71882,-0.61805 v -0.18087 a 1.5877565,0.74498063 0 0 1 -0.71882,-0.61805 1.5877565,0.74498063 0 0 1 0.71882,-0.61856 V 99.5783 a 1.5877565,0.74498063 0 0 1 -0.71882,-0.61805 1.5877565,0.74498063 0 0 1 0.71882,-0.61805 v -0.18087 a 1.5877565,0.74498063 0 0 1 -0.71882,-0.61805 1.5877565,0.74498063 0 0 1 0.71882,-0.61857 v -0.18035 a 1.5877565,0.74498063 0 0 1 -0.71882,-0.61856 1.5877565,0.74498063 0 0 1 0.71882,-0.61805 v -0.17622 a 1.5877565,0.74498063 0 0 1 -0.71882,-0.6227 1.5877565,0.74498063 0 0 1 0.71882,-0.61857 v -0.18035 a 1.5877565,0.74498063 0 0 1 -0.71882,-0.61857 1.5877565,0.74498063 0 0 1 0.71882,-0.61805 v -0.18086 a 1.5877565,0.74498063 0 0 1 -0.71882,-0.61805 1.5877565,0.74498063 0 0 1 0.71882,-0.61805 v -0.18087 a 1.5877565,0.74498063 0 0 1 -0.71882,-0.61857 1.5877565,0.74498063 0 0 1 0.71882,-0.61805 v -0.18087 a 1.5877565,0.74498063 0 0 1 -0.71882,-0.61805 1.5877565,0.74498063 0 0 1 0.71882,-0.61805 v -0.18086 a 1.5877565,0.74498063 0 0 1 -0.71882,-0.61805 1.5877565,0.74498063 0 0 1 0.71882,-0.61857 v -0.18087 a 1.5877565,0.74498063 0 0 1 -0.71882,-0.61805 1.5877565,0.74498063 0 0 1 0.71882,-0.61805 v -0.17673 a 1.5877565,0.74498063 0 0 1 -0.71882,-0.62219 1.5877565,0.74498063 0 0 1 0.71882,-0.61856 v -0.18087 a 1.5877565,0.74498063 0 0 1 -0.71882,-0.61805 1.5877565,0.74498063 0 0 1 0.71882,-0.61805 V 82.5721 a 1.5877565,0.74498063 0 0 1 -0.71882,-0.61805 1.5877565,0.74498063 0 0 1 0.71882,-0.61857 v -0.18035 a 1.5877565,0.74498063 0 0 1 -0.71882,-0.61856 1.5877565,0.74498063 0 0 1 0.71882,-0.61805 v -0.18087 a 1.5877565,0.74498063 0 0 1 -0.71882,-0.61805 1.5877565,0.74498063 0 0 1 0.71882,-0.61805 v -0.18087 a 1.5877565,0.74498063 0 0 1 -0.71882,-0.61857 1.5877565,0.74498063 0 0 1 0.71882,-0.61805 V 76.9032 a 1.5877565,0.74498063 0 0 1 -0.71882,-0.61805 1.5877565,0.74498063 0 0 1 0.71882,-0.61805 v -0.17622 a 1.5877565,0.74498063 0 0 1 -0.71882,-0.62322 1.5877565,0.74498063 0 0 1 0.71882,-0.61805 v -0.18087 a 1.5877565,0.74498063 0 0 1 -0.71882,-0.61805 1.5877565,0.74498063 0 0 1 0.71882,-0.61805 v -0.18086 a 1.5877565,0.74498063 0 0 1 -0.71882,-0.61805 1.5877565,0.74498063 0 0 1 0.71882,-0.61857 v -0.18087 a 1.5877565,0.74498063 0 0 1 -0.71882,-0.61805 1.5877565,0.74498063 0 0 1 0.71882,-0.61805 v -0.18087 a 1.5877565,0.74498063 0 0 1 -0.71882,-0.61805 1.5877565,0.74498063 0 0 1 0.71882,-0.61856 v -0.18087 a 1.5877565,0.74498063 0 0 1 -0.71882,-0.61805 1.5877565,0.74498063 0 0 1 0.71882,-0.61805 v -0.18087 a 1.5877565,0.74498063 0 0 1 -0.71882,-0.61805 1.5877565,0.74498063 0 0 1 0.71882,-0.61856 V 65.5659 a 1.5877565,0.74498063 0 0 1 -0.71882,-0.61856 1.5877565,0.74498063 0 0 1 0.71882,-0.61805 v -0.18087 a 1.5877565,0.74498063 0 0 1 -0.71882,-0.61805 1.5877565,0.74498063 0 0 1 0.71882,-0.61805 v -0.18087 a 1.5877565,0.74498063 0 0 1 -0.71882,-0.61856 1.5877565,0.74498063 0 0 1 0.71882,-0.61805 v -0.18087 a 1.5877565,0.74498063 0 0 1 -0.71882,-0.61805 1.5877565,0.74498063 0 0 1 0.71882,-0.61805 V 59.897 a 1.5877565,0.74498063 0 0 1 -0.71882,-0.61857 1.5877565,0.74498063 0 0 1 0.71882,-0.61805 v -0.18086 a 1.5877565,0.74498063 0 0 1 -0.71882,-0.61805 1.5877565,0.74498063 0 0 1 0.71882,-0.61805 v -0.18087 a 1.5877565,0.74498063 0 0 1 -0.71882,-0.61805 1.5877565,0.74498063 0 0 1 0.71882,-0.61857 v -0.17622 a 1.5877565,0.74498063 0 0 1 -0.71882,-0.6227 1.5877565,0.74498063 0 0 1 0.71882,-0.61805 V 54.2281 a 1.5877565,0.74498063 0 0 1 -0.71882,-0.61805 1.5877565,0.74498063 0 0 1 0.71882,-0.61857 v -0.18035 a 1.5877565,0.74498063 0 0 1 -0.71882,-0.61857 1.5877565,0.74498063 0 0 1 0.71882,-0.61805 v -0.18087 a 1.5877565,0.74498063 0 0 1 -0.71882,-0.61805 1.5877565,0.74498063 0 0 1 0.71882,-0.61856 v -0.18035 a 1.5877565,0.74498063 0 0 1 -0.71882,-0.61857 1.5877565,0.74498063 0 0 1 0.71882,-0.61805 v -0.18087 a 1.5877565,0.74498063 0 0 1 -0.71882,-0.61805 1.5877565,0.74498063 0 0 1 0.71882,-0.6227 v -0.17622 a 1.5877565,0.74498063 0 0 1 -0.71882,-0.61856 1.5877565,0.74498063 0 0 1 0.71882,-0.61805 v -0.17622 a 1.5877565,0.74498063 0 0 1 -0.71882,-0.6227 1.5877565,0.74498063 0 0 1 0.71882,-0.61805 v -0.18087 a 1.5877565,0.74498063 0 0 1 -0.71882,-0.61805 1.5877565,0.74498063 0 0 1 0.71882,-0.61857 v -0.18086 a 1.5877565,0.74498063 0 0 1 -0.71882,-0.61805 1.5877565,0.74498063 0 0 1 0.71882,-0.61805 v -0.18087 a 1.5877565,0.74498063 0 0 1 -0.71882,-0.61805 1.5877565,0.74498063 0 0 1 0.71882,-0.61857 v -0.18087 a 1.5877565,0.74498063 0 0 1 -0.71882,-0.61805 1.5877565,0.74498063 0 0 1 0.71882,-0.61805 v -0.18086 a 1.5877565,0.74498063 0 0 1 -0.71882,-0.61805 1.5877565,0.74498063 0 0 1 0.71882,-0.6227 V 37.2219 a 1.5877565,0.74498063 0 0 1 -0.71882,-0.61857 1.5877565,0.74498063 0 0 1 0.71882,-0.61805 v -0.18087 a 1.5877565,0.74498063 0 0 1 -0.71882,-0.61805 1.5877565,0.74498063 0 0 1 0.71882,-0.61805 v -0.18086 a 1.5877565,0.74498063 0 0 1 -0.71882,-0.61857 1.5877565,0.74498063 0 0 1 0.71882,-0.61805 v -0.18087 a 1.5877565,0.74498063 0 0 1 -0.71882,-0.61805 1.5877565,0.74498063 0 0 1 0.71882,-0.61805 v -0.18087 a 1.5877565,0.74498063 0 0 1 -0.71882,-0.61856 1.5877565,0.74498063 0 0 1 0.71882,-0.61805 v -0.18087 a 1.5877565,0.74498063 0 0 1 -0.71882,-0.61805 1.5877565,0.74498063 0 0 1 0.71882,-0.61805 v -0.18087 a 1.5877565,0.74498063 0 0 1 -0.71882,-0.61805 1.5877565,0.74498063 0 0 1 0.71882,-0.61856 v -0.18087 a 1.5877565,0.74498063 0 0 1 -0.71882,-0.61805 1.5877565,0.74498063 0 0 1 0.71882,-0.61805 v -0.18087 a 1.5877565,0.74498063 0 0 1 -0.71882,-0.61805 1.5877565,0.74498063 0 0 1 0.71882,-0.61857 v -0.18035 a 1.5877565,0.74498063 0 0 1 -0.71882,-0.61856 1.5877565,0.74498063 0 0 1 0.71882,-0.61805 v -0.18087 a 1.5877565,0.74498063 0 0 1 -0.71882,-0.61805 1.5877565,0.74498063 0 0 1 0.71882,-0.61857 v -0.18035 a 1.5877565,0.74498063 0 0 1 -0.71882,-0.61857 1.5877565,0.74498063 0 0 1 0.71882,-0.61805 v -0.18086 a 1.5877565,0.74498063 0 0 1 -0.71882,-0.61805 1.5877565,0.74498063 0 0 1 0.71882,-0.61805 v -0.18087 a 1.5877565,0.74498063 0 0 1 -0.71882,-0.61857 1.5877565,0.74498063 0 0 1 0.71882,-0.62218 V 17.38073 A 1.5877565,0.74498063 0 0 1 87.34621,16.76268 1.5877565,0.74498063 0 0 1 88.0056,16.1591 c -0.0121,-0.0762 -0.0241,-0.15247 -0.0398,-0.22737 a 1.5877565,0.74498063 0 0 1 -0.6196,-0.58653 1.5877565,0.74498063 0 0 1 0.2806,-0.41755 c -0.40134,-0.85226 -1.05453,-1.56077 -1.86707,-2.0283 V 12.05238 H 53.2258 Z m 0.40876,95.53887 a 0.28134918,0.46891534 0 0 1 0.28112,0.46922 0.28134918,0.46891534 0 0 1 -0.28112,0.4687 0.28134918,0.46891534 0 0 1 -0.28163,-0.4687 0.28134918,0.46891534 0 0 1 0.28163,-0.46922 z m 0.94465,0 a 0.28134918,0.46891534 0 0 1 0.28163,0.46922 0.28134918,0.46891534 0 0 1 -0.28163,0.4687 0.28134918,0.46891534 0 0 1 -0.28112,-0.4687 0.28134918,0.46891534 0 0 1 0.28112,-0.46922 z m 0.94516,0 a 0.28134918,0.46891534 0 0 1 0.28112,0.46922 0.28134918,0.46891534 0 0 1 -0.28112,0.4687 0.28134918,0.46891534 0 0 1 -0.28164,-0.4687 0.28134918,0.46891534 0 0 1 0.28164,-0.46922 z m 0.94464,0 a 0.28134918,0.46891534 0 0 1 0.28164,0.46922 0.28134918,0.46891534 0 0 1 -0.28164,0.4687 0.28134918,0.46891534 0 0 1 -0.28112,-0.4687 0.28134918,0.46891534 0 0 1 0.28112,-0.46922 z m 0.94517,0 a 0.28134918,0.46891534 0 0 1 0.28112,0.46922 0.28134918,0.46891534 0 0 1 -0.28112,0.4687 0.28134918,0.46891534 0 0 1 -0.28164,-0.4687 0.28134918,0.46891534 0 0 1 0.28164,-0.46922 z m 0.94464,0 a 0.28134918,0.46891534 0 0 1 0.28112,0.46922 0.28134918,0.46891534 0 0 1 -0.28112,0.4687 0.28134918,0.46891534 0 0 1 -0.28164,-0.4687 0.28134918,0.46891534 0 0 1 0.28164,-0.46922 z m 0.94465,0 a 0.28134918,0.46891534 0 0 1 0.28163,0.46922 0.28134918,0.46891534 0 0 1 -0.28163,0.4687 0.28134918,0.46891534 0 0 1 -0.28112,-0.4687 0.28134918,0.46891534 0 0 1 0.28112,-0.46922 z m 0.94516,0 a 0.28134918,0.46891534 0 0 1 0.28112,0.46922 0.28134918,0.46891534 0 0 1 -0.28112,0.4687 0.28134918,0.46891534 0 0 1 -0.28164,-0.4687 0.28134918,0.46891534 0 0 1 0.28164,-0.46922 z m 0.94464,0 a 0.28134918,0.46891534 0 0 1 0.28164,0.46922 0.28134918,0.46891534 0 0 1 -0.28164,0.4687 0.28134918,0.46891534 0 0 1 -0.28112,-0.4687 0.28134918,0.46891534 0 0 1 0.28112,-0.46922 z m 0.94517,0 a 0.28134918,0.46891534 0 0 1 0.28111,0.46922 0.28134918,0.46891534 0 0 1 -0.28111,0.4687 0.28134918,0.46891534 0 0 1 -0.28164,-0.4687 0.28134918,0.46891534 0 0 1 0.28164,-0.46922 z m 0.94464,0 a 0.28134918,0.46891534 0 0 1 0.28164,0.46922 0.28134918,0.46891534 0 0 1 -0.28164,0.4687 0.28134918,0.46891534 0 0 1 -0.28112,-0.4687 0.28134918,0.46891534 0 0 1 0.28112,-0.46922 z m 0.94465,0 a 0.28134918,0.46891534 0 0 1 0.28163,0.46922 0.28134918,0.46891534 0 0 1 -0.28163,0.4687 0.28134918,0.46891534 0 0 1 -0.28112,-0.4687 0.28134918,0.46891534 0 0 1 0.28112,-0.46922 z m 0.94516,0 a 0.28134918,0.46891534 0 0 1 0.28112,0.46922 0.28134918,0.46891534 0 0 1 -0.28112,0.4687 0.28134918,0.46891534 0 0 1 -0.28164,-0.4687 0.28134918,0.46891534 0 0 1 0.28164,-0.46922 z m 0.94464,0 a 0.28134918,0.46891534 0 0 1 0.28164,0.46922 0.28134918,0.46891534 0 0 1 -0.28164,0.4687 0.28134918,0.46891534 0 0 1 -0.28112,-0.4687 0.28134918,0.46891534 0 0 1 0.28112,-0.46922 z m 0.94516,0 a 0.28134918,0.46891534 0 0 1 0.28112,0.46922 0.28134918,0.46891534 0 0 1 -0.28112,0.4687 0.28134918,0.46891534 0 0 1 -0.28163,-0.4687 0.28134918,0.46891534 0 0 1 0.28163,-0.46922 z m 0.94465,0 a 0.28134918,0.46891534 0 0 1 0.28164,0.46922 0.28134918,0.46891534 0 0 1 -0.28164,0.4687 0.28134918,0.46891534 0 0 1 -0.28112,-0.4687 0.28134918,0.46891534 0 0 1 0.28112,-0.46922 z m 0.94516,0 a 0.28134918,0.46891534 0 0 1 0.28112,0.46922 0.28134918,0.46891534 0 0 1 -0.28112,0.4687 0.28134918,0.46891534 0 0 1 -0.28163,-0.4687 0.28134918,0.46891534 0 0 1 0.28163,-0.46922 z m 0.94465,0 a 0.28134918,0.46891534 0 0 1 0.28112,0.46922 0.28134918,0.46891534 0 0 1 -0.28112,0.4687 0.28134918,0.46891534 0 0 1 -0.28112,-0.4687 0.28134918,0.46891534 0 0 1 0.28112,-0.46922 z m 0.94464,0 a 0.28134918,0.46891534 0 0 1 0.28164,0.46922 0.28134918,0.46891534 0 0 1 -0.28164,0.4687 0.28134918,0.46891534 0 0 1 -0.28112,-0.4687 0.28134918,0.46891534 0 0 1 0.28112,-0.46922 z m 0.94516,0 a 0.28134918,0.46891534 0 0 1 0.28112,0.46922 0.28134918,0.46891534 0 0 1 -0.28112,0.4687 0.28134918,0.46891534 0 0 1 -0.28163,-0.4687 0.28134918,0.46891534 0 0 1 0.28163,-0.46922 z m 0.94465,0 a 0.28134918,0.46891534 0 0 1 0.28164,0.46922 0.28134918,0.46891534 0 0 1 -0.28164,0.4687 0.28134918,0.46891534 0 0 1 -0.28112,-0.4687 0.28134918,0.46891534 0 0 1 0.28112,-0.46922 z m 0.94516,0 a 0.28134918,0.46891534 0 0 1 0.28112,0.46922 0.28134918,0.46891534 0 0 1 -0.28112,0.4687 0.28134918,0.46891534 0 0 1 -0.28164,-0.4687 0.28134918,0.46891534 0 0 1 0.28164,-0.46922 z m 0.94465,0 a 0.28134918,0.46891534 0 0 1 0.28112,0.46922 0.28134918,0.46891534 0 0 1 -0.28112,0.4687 0.28134918,0.46891534 0 0 1 -0.28112,-0.4687 0.28134918,0.46891534 0 0 1 0.28112,-0.46922 z m 0.94516,0 a 0.28134918,0.46891534 0 0 1 0.28112,0.46922 0.28134918,0.46891534 0 0 1 -0.28112,0.4687 0.28134918,0.46891534 0 0 1 -0.28164,-0.4687 0.28134918,0.46891534 0 0 1 0.28164,-0.46922 z m 0.94464,0 a 0.28134918,0.46891534 0 0 1 0.28112,0.46922 0.28134918,0.46891534 0 0 1 -0.28112,0.4687 0.28134918,0.46891534 0 0 1 -0.28163,-0.4687 0.28134918,0.46891534 0 0 1 0.28163,-0.46922 z m 0.94465,0 a 0.28134918,0.46891534 0 0 1 0.28163,0.46922 0.28134918,0.46891534 0 0 1 -0.28163,0.4687 0.28134918,0.46891534 0 0 1 -0.28112,-0.4687 0.28134918,0.46891534 0 0 1 0.28112,-0.46922 z m 0.94516,0 a 0.28134918,0.46891534 0 0 1 0.28112,0.46922 0.28134918,0.46891534 0 0 1 -0.28112,0.4687 0.28134918,0.46891534 0 0 1 -0.28164,-0.4687 0.28134918,0.46891534 0 0 1 0.28164,-0.46922 z m 0.94465,0 a 0.28134918,0.46891534 0 0 1 0.28163,0.46922 0.28134918,0.46891534 0 0 1 -0.28163,0.4687 0.28134918,0.46891534 0 0 1 -0.28112,-0.4687 0.28134918,0.46891534 0 0 1 0.28112,-0.46922 z m 0.94516,0 a 0.28134918,0.46891534 0 0 1 0.28112,0.46922 0.28134918,0.46891534 0 0 1 -0.28112,0.4687 0.28134918,0.46891534 0 0 1 -0.28164,-0.4687 0.28134918,0.46891534 0 0 1 0.28164,-0.46922 z m 0.94464,0 a 0.28134918,0.46891534 0 0 1 0.28112,0.46922 0.28134918,0.46891534 0 0 1 -0.28112,0.4687 0.28134918,0.46891534 0 0 1 -0.28112,-0.4687 0.28134918,0.46891534 0 0 1 0.28112,-0.46922 z m 0.94465,0 a 0.28134918,0.46891534 0 0 1 0.281634,0.46922 0.28134918,0.46891534 0 0 1 -0.281634,0.4687 0.28134918,0.46891534 0 0 1 -0.28112,-0.4687 0.28134918,0.46891534 0 0 1 0.28112,-0.46922 z m 0.945164,0 a 0.28134918,0.46891534 0 0 1 0.28112,0.46922 0.28134918,0.46891534 0 0 1 -0.28112,0.4687 0.28134918,0.46891534 0 0 1 -0.28164,-0.4687 0.28134918,0.46891534 0 0 1 0.28164,-0.46922 z m 0.94464,0 a 0.28134918,0.46891534 0 0 1 0.28164,0.46922 0.28134918,0.46891534 0 0 1 -0.28164,0.4687 0.28134918,0.46891534 0 0 1 -0.28111,-0.4687 0.28134918,0.46891534 0 0 1 0.28111,-0.46922 z m 0.94517,0 a 0.28134918,0.46891534 0 0 1 0.28112,0.46922 0.28134918,0.46891534 0 0 1 -0.28112,0.4687 0.28134918,0.46891534 0 0 1 -0.28164,-0.4687 0.28134918,0.46891534 0 0 1 0.28164,-0.46922 z m 0.94464,0 a 0.28134918,0.46891534 0 0 1 0.28112,0.46922 0.28134918,0.46891534 0 0 1 -0.28112,0.4687 0.28134918,0.46891534 0 0 1 -0.28112,-0.4687 0.28134918,0.46891534 0 0 1 0.28112,-0.46922 z m 0.94465,0 a 0.28134918,0.46891534 0 0 1 0.28163,0.46922 0.28134918,0.46891534 0 0 1 -0.28163,0.4687 0.28134918,0.46891534 0 0 1 -0.28112,-0.4687 0.28134918,0.46891534 0 0 1 0.28112,-0.46922 z m 0.94516,0 a 0.28134918,0.46891534 0 0 1 0.28112,0.46922 0.28134918,0.46891534 0 0 1 -0.28112,0.4687 0.28134918,0.46891534 0 0 1 -0.28164,-0.4687 0.28134918,0.46891534 0 0 1 0.28164,-0.46922 z m 0.94464,0 a 0.28134918,0.46891534 0 0 1 0.28164,0.46922 0.28134918,0.46891534 0 0 1 -0.28164,0.4687 0.28134918,0.46891534 0 0 1 -0.28112,-0.4687 0.28134918,0.46891534 0 0 1 0.28112,-0.46922 z m 0.94517,0 a 0.28134918,0.46891534 0 0 1 0.28112,0.46922 0.28134918,0.46891534 0 0 1 -0.28112,0.4687 0.28134918,0.46891534 0 0 1 -0.28164,-0.4687 0.28134918,0.46891534 0 0 1 0.28164,-0.46922 z m 0.94464,0 a 0.28134918,0.46891534 0 0 1 0.28112,0.46922 0.28134918,0.46891534 0 0 1 -0.28112,0.4687 0.28134918,0.46891534 0 0 1 -0.28112,-0.4687 0.28134918,0.46891534 0 0 1 0.28112,-0.46922 z m 0.94465,0 a 0.28134918,0.46891534 0 0 1 0.28163,0.46922 0.28134918,0.46891534 0 0 1 -0.28163,0.4687 0.28134918,0.46891534 0 0 1 -0.28112,-0.4687 0.28134918,0.46891534 0 0 1 0.28112,-0.46922 z m 0.94516,0 a 0.28134918,0.46891534 0 0 1 0.28112,0.46922 0.28134918,0.46891534 0 0 1 -0.28112,0.4687 0.28134918,0.46891534 0 0 1 -0.28164,-0.4687 0.28134918,0.46891534 0 0 1 0.28164,-0.46922 z m 0.94464,0 a 0.28134918,0.46891534 0 0 1 0.28164,0.46922 0.28134918,0.46891534 0 0 1 -0.28164,0.4687 0.28134918,0.46891534 0 0 1 -0.28112,-0.4687 0.28134918,0.46891534 0 0 1 0.28112,-0.46922 z m 0.94517,0 a 0.28134918,0.46891534 0 0 1 0.28112,0.46922 0.28134918,0.46891534 0 0 1 -0.28112,0.4687 0.28134918,0.46891534 0 0 1 -0.28164,-0.4687 0.28134918,0.46891534 0 0 1 0.28164,-0.46922 z m 0.94464,0 a 0.28134918,0.46891534 0 0 1 0.28164,0.46922 0.28134918,0.46891534 0 0 1 -0.28164,0.4687 0.28134918,0.46891534 0 0 1 -0.28112,-0.4687 0.28134918,0.46891534 0 0 1 0.28112,-0.46922 z m 0.94465,0 a 0.28134918,0.46891534 0 0 1 0.28163,0.46922 0.28134918,0.46891534 0 0 1 -0.28163,0.4687 0.28134918,0.46891534 0 0 1 -0.28112,-0.4687 0.28134918,0.46891534 0 0 1 0.28112,-0.46922 z m 0.94516,0 a 0.28134918,0.46891534 0 0 1 0.28112,0.46922 0.28134918,0.46891534 0 0 1 -0.28112,0.4687 0.28134918,0.46891534 0 0 1 -0.28112,-0.4687 0.28134918,0.46891534 0 0 1 0.28112,-0.46922 z m 0.94464,0 a 0.28134918,0.46891534 0 0 1 0.28164,0.46922 0.28134918,0.46891534 0 0 1 -0.28164,0.4687 0.28134918,0.46891534 0 0 1 -0.28112,-0.4687 0.28134918,0.46891534 0 0 1 0.28112,-0.46922 z m 0.94516,0 a 0.28134918,0.46891534 0 0 1 0.28112,0.46922 0.28134918,0.46891534 0 0 1 -0.28112,0.4687 0.28134918,0.46891534 0 0 1 -0.28163,-0.4687 0.28134918,0.46891534 0 0 1 0.28163,-0.46922 z m 0.94465,0 a 0.28134918,0.46891534 0 0 1 0.28164,0.46922 0.28134918,0.46891534 0 0 1 -0.28164,0.4687 0.28134918,0.46891534 0 0 1 -0.28112,-0.4687 0.28134918,0.46891534 0 0 1 0.28112,-0.46922 z m 0.94516,0 a 0.28134918,0.46891534 0 0 1 0.28112,0.46922 0.28134918,0.46891534 0 0 1 -0.28112,0.4687 0.28134918,0.46891534 0 0 1 -0.28163,-0.4687 0.28134918,0.46891534 0 0 1 0.28163,-0.46922 z m 0.94465,0 a 0.28134918,0.46891534 0 0 1 0.28112,0.46922 0.28134918,0.46891534 0 0 1 -0.28112,0.4687 0.28134918,0.46891534 0 0 1 -0.28112,-0.4687 0.28134918,0.46891534 0 0 1 0.28112,-0.46922 z m 0.94464,0 a 0.28134918,0.46891534 0 0 1 0.28164,0.46922 0.28134918,0.46891534 0 0 1 -0.28164,0.4687 0.28134918,0.46891534 0 0 1 -0.28112,-0.4687 0.28134918,0.46891534 0 0 1 0.28112,-0.46922 z m 0.94516,0 a 0.28134918,0.46891534 0 0 1 0.28112,0.46922 0.28134918,0.46891534 0 0 1 -0.28112,0.4687 0.28134918,0.46891534 0 0 1 -0.28163,-0.4687 0.28134918,0.46891534 0 0 1 0.28163,-0.46922 z m 0.94465,0 a 0.28134918,0.46891534 0 0 1 0.28164,0.46922 0.28134918,0.46891534 0 0 1 -0.28164,0.4687 0.28134918,0.46891534 0 0 1 -0.28112,-0.4687 0.28134918,0.46891534 0 0 1 0.28112,-0.46922 z m 0.94516,0 a 0.28134918,0.46891534 0 0 1 0.28112,0.46922 0.28134918,0.46891534 0 0 1 -0.28112,0.4687 0.28134918,0.46891534 0 0 1 -0.28164,-0.4687 0.28134918,0.46891534 0 0 1 0.28164,-0.46922 z m 0.94465,0 a 0.28134918,0.46891534 0 0 1 0.28163,0.46922 0.28134918,0.46891534 0 0 1 -0.28163,0.4687 0.28134918,0.46891534 0 0 1 -0.28112,-0.4687 0.28134918,0.46891534 0 0 1 0.28112,-0.46922 z m 0.94516,0 a 0.28134918,0.46891534 0 0 1 0.28112,0.46922 0.28134918,0.46891534 0 0 1 -0.28112,0.4687 0.28134918,0.46891534 0 0 1 -0.28164,-0.4687 0.28134918,0.46891534 0 0 1 0.28164,-0.46922 z m 0.94464,0 a 0.28134918,0.46891534 0 0 1 0.28112,0.46922 0.28134918,0.46891534 0 0 1 -0.28112,0.4687 0.28134918,0.46891534 0 0 1 -0.28163,-0.4687 0.28134918,0.46891534 0 0 1 0.28163,-0.46922 z m 0.94465,0 a 0.28134918,0.46891534 0 0 1 0.28164,0.46922 0.28134918,0.46891534 0 0 1 -0.28164,0.4687 0.28134918,0.46891534 0 0 1 -0.28112,-0.4687 0.28134918,0.46891534 0 0 1 0.28112,-0.46922 z m 0.94516,0 a 0.28134918,0.46891534 0 0 1 0.28112,0.46922 0.28134918,0.46891534 0 0 1 -0.28112,0.4687 0.28134918,0.46891534 0 0 1 -0.28164,-0.4687 0.28134918,0.46891534 0 0 1 0.28164,-0.46922 z m 0.94465,0 a 0.28134918,0.46891534 0 0 1 0.28163,0.46922 0.28134918,0.46891534 0 0 1 -0.28163,0.4687 0.28134918,0.46891534 0 0 1 -0.28112,-0.4687 0.28134918,0.46891534 0 0 1 0.28112,-0.46922 z m 0.94516,0 a 0.28134918,0.46891534 0 0 1 0.28112,0.46922 0.28134918,0.46891534 0 0 1 -0.28112,0.4687 0.28134918,0.46891534 0 0 1 -0.28164,-0.4687 0.28134918,0.46891534 0 0 1 0.28164,-0.46922 z m 0.94464,0 a 0.28134918,0.46891534 0 0 1 0.28164,0.46922 0.28134918,0.46891534 0 0 1 -0.28164,0.4687 0.28134918,0.46891534 0 0 1 -0.28112,-0.4687 0.28134918,0.46891534 0 0 1 0.28112,-0.46922 z m 0.94465,0 a 0.28134918,0.46891534 0 0 1 0.28163,0.46922 0.28134918,0.46891534 0 0 1 -0.28163,0.4687 0.28134918,0.46891534 0 0 1 -0.28112,-0.4687 0.28134918,0.46891534 0 0 1 0.28112,-0.46922 z m 0.94516,0 a 0.28134918,0.46891534 0 0 1 0.28112,0.46922 0.28134918,0.46891534 0 0 1 -0.28112,0.4687 0.28134918,0.46891534 0 0 1 -0.28164,-0.4687 0.28134918,0.46891534 0 0 1 0.28164,-0.46922 z m 0.94465,0 a 0.28134918,0.46891534 0 0 1 0.28163,0.46922 0.28134918,0.46891534 0 0 1 -0.28163,0.4687 0.28134918,0.46891534 0 0 1 -0.28112,-0.4687 0.28134918,0.46891534 0 0 1 0.28112,-0.46922 z m 0.94516,0 a 0.28134918,0.46891534 0 0 1 0.28112,0.46922 0.28134918,0.46891534 0 0 1 -0.28112,0.4687 0.28134918,0.46891534 0 0 1 -0.28164,-0.4687 0.28134918,0.46891534 0 0 1 0.28164,-0.46922 z m 0.94464,0 a 0.28134918,0.46891534 0 0 1 0.28164,0.46922 0.28134918,0.46891534 0 0 1 -0.28164,0.4687 0.28134918,0.46891534 0 0 1 -0.28112,-0.4687 0.28134918,0.46891534 0 0 1 0.28112,-0.46922 z" /><path
       id="path15712"
       style="fill:url(#linearGradient15920);fill-opacity:1;stroke:none;stroke-width:1.36168;stroke-linecap:round;stroke-linejoin:round;stroke-dasharray:none;paint-order:stroke fill markers"
       d="m 23.071266,13.82919 c -1.48781,0 -2.68563,1.19781 -2.68563,2.68562 v 87.04637 c 0,0.0152 0.002,0.0298 0.002,0.045 a 6.8572245,5.2453365 0 0 1 2.13734,2.58537 c 0.17629,0.0362 0.35893,0.0553 0.54622,0.0553 H 83.38018 c 0.24543,0 0.48188,-0.0355 0.70745,-0.0966 a 6.8572245,5.2453365 0 0 1 1.97042,-2.4381 c 0.003,-0.0502 0.008,-0.0999 0.008,-0.15089 V 16.51489 c 0,-1.48781 -1.19781,-2.68562 -2.68562,-2.68562 z" /><g
       id="g15722"
       transform="matrix(2.2249945,0.55712565,-0.55712565,2.2249945,106.53367,-1408.4559)"
       style="fill:#ffffff;fill-opacity:0.0787671;stroke-width:0.0590334"><circle
         style="fill:#ffffff;fill-opacity:0.0787671;stroke:none;stroke-width:0.265031;stroke-linecap:round;stroke-linejoin:round;stroke-miterlimit:4;stroke-dasharray:none;paint-order:stroke fill markers"
         id="circle15714"
         cx="130.36272"
         cy="627.72162"
         r="4.1795764" /><circle
         style="fill:#ffffff;fill-opacity:0.0787671;stroke:none;stroke-width:0.2257;stroke-linecap:round;stroke-linejoin:round;stroke-miterlimit:4;stroke-dasharray:none;paint-order:stroke fill markers"
         id="circle15716"
         cx="124.78439"
         cy="633.51453"
         r="2.7866604" /><circle
         style="fill:#ffffff;fill-opacity:0.0787671;stroke:none;stroke-width:0.289122;stroke-linecap:round;stroke-linejoin:round;stroke-miterlimit:4;stroke-dasharray:none;paint-order:stroke fill markers"
         id="circle15718"
         cx="130.2018"
         cy="636.84003"
         r="2.7998781" /><circle
         style="fill:#ffffff;fill-opacity:0.0787671;stroke:none;stroke-width:0.320383;stroke-linecap:round;stroke-linejoin:round;stroke-miterlimit:4;stroke-dasharray:none;paint-order:stroke fill markers"
         id="circle15720"
         cx="126.41901"
         cy="640.81921"
         r="1.8839288" /></g><path
       id="path15724"
       style="color:#000000;fill:none;fill-opacity:0.09;stroke:#f2f2f2;stroke-width:1.32292;stroke-linecap:round;stroke-linejoin:round;stroke-dasharray:none;stroke-opacity:0.0616438"
       d="m -216.98144,394.42868 a 1.5171673,1.5171673 0 0 0 -1.51827,1.4826 l -0.0757,3.50814 a 1.5171673,1.5171673 0 0 0 0.39355,1.05716 l 1.64853,1.80975 v 7.45824 a 1.5170156,1.5170156 0 0 0 0.0252,0.25953 h -6.78859 a 1.5170156,1.5170156 0 0 0 -1.51826,1.51825 1.5170156,1.5170156 0 0 0 1.51826,1.51823 h 8.69421 v 30.71956 c -0.24494,0.42403 -0.54675,0.89838 -0.89238,1.41507 l -4.1197,-4.72527 a 1.5170156,1.5170156 0 0 0 -1.03939,-0.51554 v 0.001 a 1.5170156,1.5170156 0 0 0 -1.09742,0.36621 1.5170156,1.5170156 0 0 0 -0.14677,2.14159 l 4.60683,5.28705 c -0.69148,0.95864 -1.42561,1.96782 -2.20193,3.04473 -2.10515,2.91983 -4.29608,6.11588 -5.63568,9.23243 -0.66969,1.55828 -1.13663,3.10624 -1.21346,4.63993 -0.0757,1.53376 0.2775,3.09295 1.24901,4.3721 1.93864,2.55308 5.75997,3.70583 11.9869,3.66808 5.76915,0.26099 9.47558,-0.67548 11.52569,-2.9961 2.05767,-2.32929 1.8508,-5.57608 0.77518,-8.6766 -1.44417,-4.16298 -4.45982,-8.64783 -7.25691,-12.50471 l 5.51345,-6.32643 a 1.5170156,1.5170156 0 0 0 -0.1468,-2.1416 1.5170156,1.5170156 0 0 0 -2.13679,0.14817 l -5.07126,5.81449 c -0.59103,-0.79906 -1.15956,-1.56964 -1.66527,-2.2708 v -30.69343 h 8.50133 a 1.5170156,1.5170156 0 0 0 1.51826,-1.51824 1.5170156,1.5170156 0 0 0 -1.51826,-1.51823 h -6.73537 a 1.5170156,1.5170156 0 0 0 0.0229,-0.21925 v -7.34686 l 1.65793,-2.02423 a 1.5171673,1.5171673 0 0 0 0.34493,-0.99085 l -0.0711,-3.50686 a 1.5171673,1.5171673 0 0 0 -1.51825,-1.48739 z m 1.48385,3.0328 h 4.63619 l 0.0321,1.46489 -1.64854,2.01121 a 1.5171673,1.5171673 0 0 0 -0.34011,0.95881 v 7.88848 a 1.5170156,1.5170156 0 0 0 0.0229,0.21926 h -0.72519 a 1.5170156,1.5170156 0 0 0 0.0252,-0.25953 v -8.04612 a 1.5171673,1.5171673 0 0 0 -0.39332,-1.01568 l -1.63568,-1.80143 z m 2.43195,49.38955 c 3.31678,4.55099 7.77202,10.45958 9.40196,15.15832 0.91166,2.62784 0.8816,4.47482 -0.17887,5.67576 -1.06095,1.20093 -3.7663,2.22642 -9.16484,1.97448 a 1.5171673,1.5171673 0 0 0 -0.0803,0 c -5.84459,0.0399 -8.59351,-1.18284 -9.57626,-2.47697 -0.49148,-0.6471 -0.68665,-1.38139 -0.63642,-2.38692 0.0504,-1.00557 0.38828,-2.24077 0.96714,-3.58752 1.15774,-2.69367 3.23926,-5.78851 5.3084,-8.65888 1.55403,-2.15543 2.79709,-3.94078 3.95962,-5.69827 z"
       mask="url(#mask22535)"
       transform="translate(293.64803,-357.84287)" /><text
       xml:space="preserve"
       style="font-weight:bold;font-size:11.5162px;line-height:0.8;font-family:Nunito;-inkscape-font-specification:'Nunito Bold';fill:#f2f2f2;fill-opacity:1;stroke:none;stroke-width:2.15928;stroke-linecap:round;stroke-linejoin:round;stroke-dasharray:none;paint-order:stroke fill markers"
       x="53.243118"
       y="32.709827"
       id="text15730"><tspan
         id="tspan15726"
         style="font-style:normal;font-variant:normal;font-weight:bold;font-stretch:normal;font-family:'Montserrat Black';-inkscape-font-specification:'Montserrat Black,  Bold';text-align:center;text-anchor:middle;fill:#f2f2f2;stroke-width:2.15928"
         x="53.243118"
         y="32.709827">Event</tspan><tspan
         style="font-style:normal;font-variant:normal;font-weight:bold;font-stretch:normal;font-family:'Montserrat Black';-inkscape-font-specification:'Montserrat Black,  Bold';text-align:center;text-anchor:middle;fill:#f2f2f2;stroke-width:2.15928"
         x="53.243118"
         y="42.531895"
         id="tspan15728">Ticket</tspan></text><path
       style="fill:#f2f2f2;fill-opacity:1;stroke:#f2f2f2;stroke-width:0.427261;stroke-linecap:round;stroke-linejoin:round;stroke-dasharray:none;paint-order:stroke fill markers"
       d="M 21.743116,51.24184 H 84.70857"
       id="path15732" /><text
       xml:space="preserve"
       style="font-style:normal;font-variant:normal;font-weight:bold;font-stretch:normal;font-size:4.45188px;font-family:'Montserrat Black';-inkscape-font-specification:'Montserrat Black,  Bold';text-align:center;letter-spacing:0.264583px;text-anchor:middle;fill:none;fill-opacity:1;stroke:#f2f2f2;stroke-width:0.238494;stroke-linecap:round;stroke-linejoin:round;stroke-dasharray:none;paint-order:stroke fill markers"
       x="59.963593"
       y="25.455097"
       id="text15736"><tspan
         id="tspan15734"
         style="stroke-width:0.238494"
         x="60.095882"
         y="25.455097">2023</tspan></text><path
       style="fill:#f2f2f2;fill-opacity:1;stroke:#f2f2f2;stroke-width:0.427261;stroke-linecap:round;stroke-linejoin:round;stroke-dasharray:none;paint-order:stroke fill markers"
       d="M 21.743116,62.14921 H 84.70857"
       id="path15738" /><path
       style="fill:#f2f2f2;fill-opacity:1;stroke:#f2f2f2;stroke-width:0.412614;stroke-linecap:round;stroke-linejoin:round;stroke-dasharray:none;paint-order:stroke fill markers"
       d="m 53.22584,51.95613 v 9.47879"
       id="path15740" /><text
       xml:space="preserve"
       style="font-style:normal;font-variant:normal;font-weight:bold;font-stretch:normal;font-size:3.52778px;line-height:0.9;font-family:'Montserrat Black';-inkscape-font-specification:'Montserrat Black,  Bold';text-align:end;text-anchor:end;fill:#f2f2f2;fill-opacity:1;stroke:none;stroke-width:0.164584;stroke-linecap:round;stroke-linejoin:round;stroke-dasharray:none;paint-order:stroke fill markers"
       x="49.617065"
       y="56.292255"
       id="text15746"><tspan
         id="tspan15742"
         style="font-style:normal;font-variant:normal;font-weight:bold;font-stretch:normal;font-size:3.52778px;font-family:'Montserrat Light';-inkscape-font-specification:'Montserrat Light,  Bold';text-align:end;text-anchor:end;fill:#f2f2f2;fill-opacity:1;stroke:none;stroke-width:0.164584"
         x="49.617065"
         y="56.292255">Vorname</tspan><tspan
         style="font-style:normal;font-variant:normal;font-weight:bold;font-stretch:normal;font-size:3.52778px;font-family:'Montserrat Light';-inkscape-font-specification:'Montserrat Light,  Bold';text-align:end;text-anchor:end;fill:#f2f2f2;fill-opacity:1;stroke:none;stroke-width:0.164584"
         x="49.617065"
         y="59.467258"
         id="tspan15744">Nachname</tspan></text><text
       xml:space="preserve"
       style="font-style:normal;font-variant:normal;font-weight:bold;font-stretch:normal;font-size:4.89754px;line-height:0.9;font-family:'Montserrat Light';-inkscape-font-specification:'Montserrat Light,  Bold';text-align:center;text-anchor:middle;fill:#f2f2f2;fill-opacity:1;stroke:none;stroke-width:0.587705;stroke-linecap:round;stroke-linejoin:round;stroke-dasharray:none;paint-order:stroke fill markers"
       x="53.218498"
       y="67.656029"
       id="text15750"><tspan
         style="font-style:normal;font-variant:normal;font-weight:bold;font-stretch:normal;font-family:Nunito;-inkscape-font-specification:'Nunito Bold';text-align:center;text-anchor:middle;fill:#f2f2f2;stroke-width:0.587705"
         x="53.218498"
         y="67.656029"
         id="tspan15748">Party:</tspan><tspan
         style="font-style:normal;font-variant:normal;font-weight:bold;font-stretch:normal;font-family:Nunito;-inkscape-font-specification:'Nunito Bold';text-align:center;text-anchor:middle;fill:#f2f2f2;stroke-width:0.587705"
         x="53.218498"
         y="72.322853"
         id="tspan100991">ganz wildes Besufniss</tspan></text><text
       xml:space="preserve"
       style="font-style:normal;font-variant:normal;font-weight:bold;font-stretch:normal;font-size:3.175px;font-family:Nunito;-inkscape-font-specification:'Nunito Bold';text-align:start;text-anchor:start;fill:#333333;fill-opacity:1;stroke:none;stroke-width:1.32292;stroke-linecap:round;stroke-linejoin:round;stroke-dasharray:none;stroke-opacity:0.0616438;paint-order:stroke fill markers"
       x="27.349203"
       y="88.075005"
       id="text15754"><tspan
         id="tspan15752"
         style="font-size:3.175px;fill:#333333;fill-opacity:1;stroke-width:1.32292"
         x="27.349203"
         y="88.075005">Wo</tspan></text><text
       xml:space="preserve"
       style="font-style:normal;font-variant:normal;font-weight:bold;font-stretch:normal;font-size:3.175px;font-family:Nunito;-inkscape-font-specification:'Nunito Bold';text-align:start;text-anchor:start;fill:#f9f9f9;fill-opacity:1;stroke:none;stroke-width:1.32292;stroke-linecap:round;stroke-linejoin:round;stroke-dasharray:none;stroke-opacity:0.0616438;paint-order:stroke fill markers"
       x="34.08152"
       y="88.075005"
       id="text15758"><tspan
         id="tspan15756"
         style="font-size:3.175px;fill:#f9f9f9;stroke-width:1.32292"
         x="34.08152"
         y="88.075005">BlubberLounge</tspan></text><text
       xml:space="preserve"
       style="font-style:normal;font-variant:normal;font-weight:bold;font-stretch:normal;font-size:3.175px;font-family:Nunito;-inkscape-font-specification:'Nunito Bold';text-align:start;text-anchor:start;fill:#f9f9f9;fill-opacity:1;stroke:none;stroke-width:1.32292;stroke-linecap:round;stroke-linejoin:round;stroke-dasharray:none;stroke-opacity:0.0616438;paint-order:stroke fill markers"
       x="34.189476"
       y="91.783714"
       id="text15762"><tspan
         id="tspan15760"
         style="fill:#f9f9f9;stroke-width:1.32292"
         x="34.189476"
         y="91.783714">09.03.2023</tspan></text><text
       xml:space="preserve"
       style="font-style:normal;font-variant:normal;font-weight:bold;font-stretch:normal;font-size:3.175px;font-family:Nunito;-inkscape-font-specification:'Nunito Bold';text-align:start;text-anchor:start;fill:#333333;fill-opacity:1;stroke:none;stroke-width:1.32292;stroke-linecap:round;stroke-linejoin:round;stroke-dasharray:none;stroke-opacity:0.0616438;paint-order:stroke fill markers"
       x="23.793203"
       y="91.69503"
       id="text15766"><tspan
         id="tspan15764"
         style="fill:#333333;stroke-width:1.32292"
         x="23.793203"
         y="91.69503">Wann</tspan></text><text
       xml:space="preserve"
       style="font-style:normal;font-variant:normal;font-weight:bold;font-stretch:normal;font-size:3.175px;font-family:Nunito;-inkscape-font-specification:'Nunito Bold';text-align:start;text-anchor:start;fill:#f9f9f9;fill-opacity:1;stroke:none;stroke-width:1.32292;stroke-linecap:round;stroke-linejoin:round;stroke-dasharray:none;stroke-opacity:0.0616438;paint-order:stroke fill markers"
       x="34.005333"
       y="94.92791"
       id="text15770"><tspan
         id="tspan15768"
         style="fill:#f9f9f9;stroke-width:1.32292"
         x="34.005333"
         y="94.92791">18:00 Uhr</tspan></text><text
       xml:space="preserve"
       style="font-style:normal;font-variant:normal;font-weight:bold;font-stretch:normal;font-size:3.175px;font-family:Nunito;-inkscape-font-specification:'Nunito Bold';text-align:start;text-anchor:start;fill:#333333;fill-opacity:1;stroke:none;stroke-width:1.32292;stroke-linecap:round;stroke-linejoin:round;stroke-dasharray:none;stroke-opacity:0.0616438;paint-order:stroke fill markers"
       x="25.120352"
       y="98.469566"
       id="text15774"><tspan
         id="tspan15772"
         style="fill:#333333;stroke-width:1.32292"
         x="25.120352"
         y="98.469566">Ende</tspan></text><text
       xml:space="preserve"
       style="font-style:normal;font-variant:normal;font-weight:bold;font-stretch:normal;font-size:3.175px;font-family:Nunito;-inkscape-font-specification:'Nunito Bold';text-align:start;text-anchor:start;fill:#f9f9f9;fill-opacity:1;stroke:none;stroke-width:1.32292;stroke-linecap:round;stroke-linejoin:round;stroke-dasharray:none;stroke-opacity:0.0616438;paint-order:stroke fill markers"
       x="34.08152"
       y="98.469566"
       id="text15778"><tspan
         id="tspan15776"
         style="font-size:3.175px;fill:#f9f9f9;stroke-width:1.32292"
         x="34.08152"
         y="98.469566">22:00 Uhr</tspan></text><g
       id="g15788"
       transform="translate(293.38345,-357.84287)"
       style="fill:#ffffff;fill-opacity:0.5"><text
         xml:space="preserve"
         style="font-style:normal;font-variant:normal;font-weight:bold;font-stretch:normal;font-size:1.41111px;font-family:Nunito;-inkscape-font-specification:'Nunito Bold';text-align:start;text-anchor:start;fill:#ffffff;fill-opacity:0.5;stroke:none;stroke-width:1.32292;stroke-linecap:round;stroke-linejoin:round;stroke-dasharray:none;stroke-opacity:0.0616438;paint-order:stroke fill markers"
         x="-256.34818"
         y="462.92685"
         id="text15782"><tspan
           id="tspan15780"
           style="font-size:1.41111px;fill:#ffffff;fill-opacity:0.5;stroke-width:1.32292"
           x="-256.34818"
           y="462.92685">Ticket-ID</tspan></text><text
         xml:space="preserve"
         style="font-style:normal;font-variant:normal;font-weight:bold;font-stretch:normal;font-size:1.41111px;font-family:Nunito;-inkscape-font-specification:'Nunito Bold';text-align:start;text-anchor:start;fill:#ffffff;fill-opacity:0.5;stroke:none;stroke-width:1.32292;stroke-linecap:round;stroke-linejoin:round;stroke-dasharray:none;stroke-opacity:0.0616438;paint-order:stroke fill markers"
         x="-249.35008"
         y="462.92685"
         id="text15786"><tspan
           id="tspan15784"
           style="font-size:1.41111px;fill:#ffffff;fill-opacity:0.5;stroke-width:1.32292"
           x="-249.35008"
           y="462.92685">87e782aaf85352ee523e146f257fe08e</tspan></text></g><path
       id="path15790"
       style="fill:#cccccc;fill-opacity:1;stroke:none;stroke-width:0.550689;stroke-linecap:round;stroke-linejoin:round;stroke-dasharray:none;stroke-opacity:0.164384;paint-order:stroke fill markers"
       d="m 23.536866,110.01952 c -0.25528,0 -0.50105,0.0363 -0.73639,0.0982 a 7.0976939,5.4292803 0 0 1 -2.06654,2.13888 c -0.0464,0.20566 -0.0729,0.41918 -0.0729,0.63924 v 12.67778 c 0,1.59332 1.28247,2.87631 2.87579,2.87631 H 82.9146 c 1.59332,0 2.87631,-1.28299 2.87631,-2.87631 v -12.67779 c 0,-0.2308 -0.0297,-0.45387 -0.0806,-0.66869 a 7.0976939,5.4292803 0 0 1 -2.01228,-2.09755 c -0.24919,-0.07 -0.51127,-0.11007 -0.78342,-0.11007 z" /><g
       id="g15888"
       transform="matrix(1.7814207,0,0,1.7118547,578.67326,-692.9196)"
       style="stroke:#1a1a1a"><line
         fill="none"
         style="stroke:#1a1a1a;stroke-width:0.264583"
         x1="-311.23154"
         y1="470.23001"
         x2="-311.23154"
         y2="478.16751"
         id="line15792" /><line
         fill="none"
         style="stroke:#1a1a1a;stroke-width:0.529167"
         x1="-310.57007"
         y1="470.23001"
         x2="-310.57007"
         y2="478.16751"
         id="line15794" /><line
         fill="none"
         style="stroke:#1a1a1a;stroke-width:0.264583"
         x1="-309.64404"
         y1="470.23001"
         x2="-309.64404"
         y2="478.16751"
         id="line15796" /><line
         fill="none"
         style="stroke:#1a1a1a;stroke-width:0.529167"
         x1="-308.98257"
         y1="470.23001"
         x2="-308.98257"
         y2="478.16751"
         id="line15798" /><line
         fill="none"
         style="stroke:#1a1a1a;stroke-width:0.264583"
         x1="-308.32111"
         y1="470.23001"
         x2="-308.32111"
         y2="478.16751"
         id="line15800" /><line
         fill="none"
         style="stroke:#1a1a1a;stroke-width:0.529167"
         x1="-307.65967"
         y1="470.23001"
         x2="-307.65967"
         y2="478.16751"
         id="line15802" /><line
         fill="none"
         style="stroke:#1a1a1a;stroke-width:0.264583"
         x1="-306.9982"
         y1="470.23001"
         x2="-306.9982"
         y2="478.16751"
         id="line15804" /><line
         fill="none"
         style="stroke:#1a1a1a;stroke-width:0.264583"
         x1="-306.20447"
         y1="470.23001"
         x2="-306.20447"
         y2="478.16751"
         id="line15806" /><line
         fill="none"
         style="stroke:#1a1a1a;stroke-width:0.529167"
         x1="-305.543"
         y1="470.23001"
         x2="-305.543"
         y2="478.16751"
         id="line15808" /><line
         fill="none"
         style="stroke:#1a1a1a;stroke-width:0.529167"
         x1="-304.74924"
         y1="470.23001"
         x2="-304.74924"
         y2="478.16751"
         id="line15810" /><line
         fill="none"
         style="stroke:#1a1a1a;stroke-width:0.264583"
         x1="-303.82321"
         y1="470.23001"
         x2="-303.82321"
         y2="478.16751"
         id="line15812" /><line
         fill="none"
         style="stroke:#1a1a1a;stroke-width:0.264583"
         x1="-303.29404"
         y1="470.23001"
         x2="-303.29404"
         y2="478.16751"
         id="line15814" /><line
         fill="none"
         style="stroke:#1a1a1a;stroke-width:0.264583"
         x1="-302.76486"
         y1="470.23001"
         x2="-302.76486"
         y2="478.16751"
         id="line15816" /><line
         fill="none"
         style="stroke:#1a1a1a;stroke-width:0.529167"
         x1="-302.10342"
         y1="470.23001"
         x2="-302.10342"
         y2="478.16751"
         id="line15818" /><line
         fill="none"
         style="stroke:#1a1a1a;stroke-width:0.529167"
         x1="-301.30966"
         y1="470.23001"
         x2="-301.30966"
         y2="478.16751"
         id="line15820" /><line
         fill="none"
         style="stroke:#1a1a1a;stroke-width:0.529167"
         x1="-300.5159"
         y1="470.23001"
         x2="-300.5159"
         y2="478.16751"
         id="line15822" /><line
         fill="none"
         style="stroke:#1a1a1a;stroke-width:0.529167"
         x1="-299.72217"
         y1="470.23001"
         x2="-299.72217"
         y2="478.16751"
         id="line15824" /><line
         fill="none"
         style="stroke:#1a1a1a;stroke-width:0.264583"
         x1="-299.0607"
         y1="470.23001"
         x2="-299.0607"
         y2="478.16751"
         id="line15826" /><line
         fill="none"
         style="stroke:#1a1a1a;stroke-width:0.264583"
         x1="-298.53152"
         y1="470.23001"
         x2="-298.53152"
         y2="478.16751"
         id="line15828" /><line
         fill="none"
         style="stroke:#1a1a1a;stroke-width:0.529167"
         x1="-297.6055"
         y1="470.23001"
         x2="-297.6055"
         y2="478.16751"
         id="line15830" /><line
         fill="none"
         style="stroke:#1a1a1a;stroke-width:0.264583"
         x1="-296.94403"
         y1="470.23001"
         x2="-296.94403"
         y2="478.16751"
         id="line15832" /><line
         fill="none"
         style="stroke:#1a1a1a;stroke-width:0.264583"
         x1="-296.41486"
         y1="470.23001"
         x2="-296.41486"
         y2="478.16751"
         id="line15834" /><line
         fill="none"
         style="stroke:#1a1a1a;stroke-width:0.264583"
         x1="-295.88571"
         y1="470.23001"
         x2="-295.88571"
         y2="478.16751"
         id="line15836" /><line
         fill="none"
         style="stroke:#1a1a1a;stroke-width:0.529167"
         x1="-294.95966"
         y1="470.23001"
         x2="-294.95966"
         y2="478.16751"
         id="line15838" /><line
         fill="none"
         style="stroke:#1a1a1a;stroke-width:0.529167"
         x1="-294.16592"
         y1="470.23001"
         x2="-294.16592"
         y2="478.16751"
         id="line15840" /><line
         fill="none"
         style="stroke:#1a1a1a;stroke-width:0.264583"
         x1="-293.50446"
         y1="470.23001"
         x2="-293.50446"
         y2="478.16751"
         id="line15842" /><line
         fill="none"
         style="stroke:#1a1a1a;stroke-width:0.264583"
         x1="-292.71072"
         y1="470.23001"
         x2="-292.71072"
         y2="478.16751"
         id="line15844" /><line
         fill="none"
         style="stroke:#1a1a1a;stroke-width:0.529167"
         x1="-292.04926"
         y1="470.23001"
         x2="-292.04926"
         y2="478.16751"
         id="line15846" /><line
         fill="none"
         style="stroke:#1a1a1a;stroke-width:0.264583"
         x1="-291.38779"
         y1="470.23001"
         x2="-291.38779"
         y2="478.16751"
         id="line15848" /><line
         fill="none"
         style="stroke:#1a1a1a;stroke-width:0.264583"
         x1="-290.85864"
         y1="470.23001"
         x2="-290.85864"
         y2="478.16751"
         id="line15850" /><line
         fill="none"
         style="stroke:#1a1a1a;stroke-width:0.264583"
         x1="-290.32947"
         y1="470.23001"
         x2="-290.32947"
         y2="478.16751"
         id="line15852" /><line
         fill="none"
         style="stroke:#1a1a1a;stroke-width:0.264583"
         x1="-289.80029"
         y1="470.23001"
         x2="-289.80029"
         y2="478.16751"
         id="line15854" /><line
         fill="none"
         style="stroke:#1a1a1a;stroke-width:0.529167"
         x1="-289.13882"
         y1="470.23001"
         x2="-289.13882"
         y2="478.16751"
         id="line15856" /><line
         fill="none"
         style="stroke:#1a1a1a;stroke-width:0.529167"
         x1="-288.34509"
         y1="470.23001"
         x2="-288.34509"
         y2="478.16751"
         id="line15858" /><line
         fill="none"
         style="stroke:#1a1a1a;stroke-width:0.264583"
         x1="-287.68362"
         y1="470.23001"
         x2="-287.68362"
         y2="478.16751"
         id="line15860" /><line
         fill="none"
         style="stroke:#1a1a1a;stroke-width:0.529167"
         x1="-287.02216"
         y1="470.23001"
         x2="-287.02216"
         y2="478.16751"
         id="line15862" /><line
         fill="none"
         style="stroke:#1a1a1a;stroke-width:0.529167"
         x1="-286.22842"
         y1="470.23001"
         x2="-286.22842"
         y2="478.16751"
         id="line15864" /><line
         fill="none"
         style="stroke:#1a1a1a;stroke-width:0.264583"
         x1="-285.56696"
         y1="470.23001"
         x2="-285.56696"
         y2="478.16751"
         id="line15866" /><line
         fill="none"
         style="stroke:#1a1a1a;stroke-width:0.529167"
         x1="-284.90552"
         y1="470.23001"
         x2="-284.90552"
         y2="478.16751"
         id="line15868" /><line
         fill="none"
         style="stroke:#1a1a1a;stroke-width:0.529167"
         x1="-284.11176"
         y1="470.23001"
         x2="-284.11176"
         y2="478.16751"
         id="line15870" /><line
         fill="none"
         style="stroke:#1a1a1a;stroke-width:0.264583"
         x1="-283.45029"
         y1="470.23001"
         x2="-283.45029"
         y2="478.16751"
         id="line15872" /><line
         fill="none"
         style="stroke:#1a1a1a;stroke-width:0.264583"
         x1="-282.92114"
         y1="470.23001"
         x2="-282.92114"
         y2="478.16751"
         id="line15874" /><line
         fill="none"
         style="stroke:#1a1a1a;stroke-width:0.529167"
         x1="-282.25967"
         y1="470.23001"
         x2="-282.25967"
         y2="478.16751"
         id="line15876" /><line
         fill="none"
         style="stroke:#1a1a1a;stroke-width:0.529167"
         x1="-281.46591"
         y1="470.23001"
         x2="-281.46591"
         y2="478.16751"
         id="line15878" /><line
         fill="none"
         style="stroke:#1a1a1a;stroke-width:0.264583"
         x1="-280.80447"
         y1="470.23001"
         x2="-280.80447"
         y2="478.16751"
         id="line15880" /><line
         fill="none"
         style="stroke:#1a1a1a;stroke-width:0.264583"
         x1="-280.2753"
         y1="470.23001"
         x2="-280.2753"
         y2="478.16751"
         id="line15882" /><line
         fill="none"
         style="stroke:#1a1a1a;stroke-width:0.529167"
         x1="-279.61383"
         y1="470.23001"
         x2="-279.61383"
         y2="478.16751"
         id="line15884" /><line
         fill="none"
         style="stroke:#1a1a1a;stroke-width:0.264583"
         x1="-278.68781"
         y1="470.23001"
         x2="-278.68781"
         y2="478.16751"
         id="line15886" /></g><text
       x="53.205894"
       y="127.16073"
       text-anchor="middle"
       style="font-size:1.16417px;font-family:Tahoma;fill:#b3b3b3;fill-opacity:1;stroke:none;stroke-width:0.152695"
       id="text15894">BlubberLounge super <tspan
   style="font-size:1.16417px;fill:#999999"
   id="tspan15890">special code</tspan> for special tickets to verify on certain <tspan
   style="font-size:1.16417px;fill:#999999"
   id="tspan15892">special events</tspan></text><path
       fill="#ff0066"
       d="m 36.984266,113.50273 c 2.93019,0.0264 8.12552,-0.002 10.3524,2.28078 2.249524,2.30069 1.51045,6.91555 -1.2649,7.97526 -2.77537,1.0597 -7.6022,-1.39293 -11.61581,-1.40812 -4.01361,-0.0152 -7.2115,2.4272 -8.24877,1.81866 -1.03478,-0.58837 0.091,-4.22767 0.99866,-6.65283 0.88994,-2.4025 1.56166,-3.59087 2.46177,-4.09111 0.90261,-0.48008 2.03361,-0.27212 2.91024,-0.13487 0.87663,0.13718 1.49887,0.20348 4.40641,0.21223 z"
       id="path15896"
       style="fill:#307316;fill-opacity:1;stroke-width:0.203131" /><path
       fill="#ff0066"
       d="m 36.643276,113.09902 c 2.93019,0.0264 8.12552,-0.002 10.3524,2.28078 2.24953,2.30069 1.51047,6.91555 -1.2649,7.97526 -2.77536,1.0597 -7.60219,-1.39293 -11.6158,-1.40812 -4.01361,-0.0152 -7.2115,2.4272 -8.24878,1.81866 -1.03478,-0.58837 0.091,-4.22767 0.99866,-6.65283 0.88995,-2.4025 1.56166,-3.59087 2.46177,-4.09111 0.90261,-0.48008 2.03361,-0.27212 2.91024,-0.13487 0.87663,0.13718 1.49887,0.20348 4.40641,0.21223 z"
       id="path15898"
       style="fill:#3d941c;fill-opacity:1;stroke-width:0.203131" /><path
       fill="#ff0066"
       d="m 36.643276,113.09902 c 2.93019,0.0264 8.12552,-0.002 10.3524,2.28078 2.24953,2.30069 1.51047,6.91555 -1.2649,7.97526 -2.77536,1.0597 -7.60219,-1.39293 -11.6158,-1.40812 -4.01361,-0.0152 -7.2115,2.4272 -8.24878,1.81866 -1.03478,-0.58837 0.091,-4.22767 0.99866,-6.65283 0.88995,-2.4025 1.56166,-3.59087 2.46177,-4.09111 0.90261,-0.48008 2.03361,-0.27212 2.91024,-0.13487 0.87663,0.13718 1.49887,0.20348 4.40641,0.21223 z"
       id="path15900"
       style="fill:url(#linearGradient15918);fill-opacity:1;stroke-width:0.203131" /><text
       xml:space="preserve"
       style="font-style:normal;font-variant:normal;font-weight:bold;font-stretch:normal;font-size:4.23333px;font-family:Montserrat;-inkscape-font-specification:'Montserrat Bold';text-align:start;text-anchor:start;fill:#ffffff;fill-opacity:1;stroke:none;stroke-width:0.264583;stroke-linecap:round;stroke-linejoin:round;stroke-dasharray:none;stroke-opacity:1;paint-order:stroke fill markers"
       x="27.862585"
       y="119.80544"
       id="text15904"><tspan
         id="tspan15902"
         style="font-style:normal;font-variant:normal;font-weight:bold;font-stretch:normal;font-size:4.23333px;font-family:Montserrat;-inkscape-font-specification:'Montserrat Bold';fill:#ffffff;fill-opacity:1;stroke:none;stroke-width:0.264583;stroke-dasharray:none;stroke-opacity:1"
         x="27.862585"
         y="119.80544">Zusagen</tspan></text><path
       fill="#ff0066"
       d="m 77.87845,122.81086 c -2.4602,0.44361 -4.87324,-0.58037 -7.99902,-0.54557 -3.1258,0.0348 -6.92943,1.13127 -9.57055,0.28019 -2.65859,-0.85247 -3.25011,-3.29622 -2.34785,-5.01242 0.90227,-1.71619 3.29585,-2.69487 6.26968,-3.19905 2.97627,-0.51417 5.57689,-0.29628 7.93853,0.0244 2.3466,0.30935 4.47411,0.71297 6.6016,1.62464 2.12505,0.92162 3.73283,2.36262 3.59474,3.72327 -0.14053,1.37062 -2.00946,2.66228 -4.48713,3.10449 z"
       id="path15906"
       style="fill:#7f1d1d;fill-opacity:1;stroke-width:0.133232" /><path
       fill="#ff0066"
       d="m 77.62754,122.52859 c -2.4602,0.44361 -4.87324,-0.58037 -7.99902,-0.54557 -3.1258,0.0348 -6.92943,1.13127 -9.57055,0.28019 -2.65859,-0.85247 -3.25011,-3.29622 -2.34785,-5.01242 0.90227,-1.71619 3.29585,-2.69487 6.26968,-3.19905 2.97627,-0.51417 5.57689,-0.29628 7.93853,0.0244 2.3466,0.30935 4.47411,0.71297 6.6016,1.62464 2.12505,0.92162 3.73283,2.36262 3.59474,3.72327 -0.14053,1.37062 -2.00946,2.66228 -4.48713,3.10449 z"
       id="path15908"
       style="fill:#b52a2a;fill-opacity:1;stroke-width:0.133232" /><path
       fill="#ff0066"
       d="m 77.62754,122.52859 c -2.4602,0.44361 -4.87324,-0.58037 -7.99902,-0.54557 -3.1258,0.0348 -6.92943,1.13127 -9.57055,0.28019 -2.65859,-0.85247 -3.25011,-3.29622 -2.34785,-5.01242 0.90227,-1.71619 3.29585,-2.69487 6.26968,-3.19905 2.97627,-0.51417 5.57689,-0.29628 7.93853,0.0244 2.3466,0.30935 4.47411,0.71297 6.6016,1.62464 2.12505,0.92162 3.73283,2.36262 3.59474,3.72327 -0.14053,1.37062 -2.00946,2.66228 -4.48713,3.10449 z"
       id="path15910"
       style="fill:url(#linearGradient15916);fill-opacity:1;stroke-width:0.133232" /><text
       xml:space="preserve"
       style="font-style:normal;font-variant:normal;font-weight:bold;font-stretch:normal;font-size:4.23333px;font-family:Montserrat;-inkscape-font-specification:'Montserrat Bold';text-align:start;text-anchor:start;fill:#580707;fill-opacity:1;stroke:none;stroke-width:0.185208;stroke-linecap:round;stroke-linejoin:round;stroke-dasharray:none;stroke-opacity:1;paint-order:stroke fill markers"
       x="58.586464"
       y="119.80544"
       id="text15914"><tspan
         id="tspan15912"
         style="font-style:normal;font-variant:normal;font-weight:bold;font-stretch:normal;font-size:4.23333px;font-family:Montserrat;-inkscape-font-specification:'Montserrat Bold';fill:#580707;fill-opacity:1;stroke:none;stroke-width:0.185208;stroke-dasharray:none;stroke-opacity:1"
         x="58.586464"
         y="119.80544">Ablehnen</tspan></text><text
       xml:space="preserve"
       style="font-style:normal;font-variant:normal;font-weight:bold;font-stretch:normal;font-size:4.43246px;font-family:Montserrat;-inkscape-font-specification:'Montserrat Bold';fill:#1a1a1a;fill-opacity:1;stroke:none;stroke-width:0.38784;stroke-linecap:round;stroke-linejoin:round;stroke-dasharray:none;stroke-opacity:1;paint-order:stroke fill markers"
       x="56.194984"
       y="59.488392"
       id="text17108-7"><tspan
         id="tspan17106-4"
         style="font-style:normal;font-variant:normal;font-weight:bold;font-stretch:normal;font-family:Montserrat;-inkscape-font-specification:'Montserrat Bold';fill:#1a1a1a;fill-opacity:1;stroke:none;stroke-width:0.38784"
         x="56.194984"
         y="59.488392">Unbekannt</tspan></text><text
       xml:space="preserve"
       style="font-style:normal;font-variant:normal;font-weight:bold;font-stretch:normal;font-size:2.11667px;font-family:'Montserrat Light';-inkscape-font-specification:'Montserrat Light,  Bold';fill:#ececec;fill-opacity:1;stroke:none;stroke-width:0.185208;stroke-linecap:round;stroke-linejoin:round;stroke-dasharray:none;stroke-opacity:1;paint-order:stroke fill markers"
       x="54.561043"
       y="54.320789"
       id="text17112-5"><tspan
         id="tspan17110-4"
         style="font-style:normal;font-variant:normal;font-weight:bold;font-stretch:normal;font-family:'Montserrat Light';-inkscape-font-specification:'Montserrat Light,  Bold';fill:#ececec;fill-opacity:1;stroke-width:0.185208"
         x="54.561043"
         y="54.320789">Status</tspan></text></g></svg>
