<?xml version="1.0" encoding="UTF-8" standalone="no"?>
<!-- Created with Inkscape (http://www.inkscape.org/) -->

<svg
   width="263.35162"
   height="446.68555"
   viewBox="0 0 69.678449 118.18555"
   version="1.1"
   id="svg5"
   xml:space="preserve"
   xmlns="http://www.w3.org/2000/svg"
   xmlns:svg="http://www.w3.org/2000/svg"><defs
     id="defs2" /><g
     id="layer1"
     transform="translate(-73.20916,-39.55238)"><path
       id="rect4593"
       style="fill:#ffffff;stroke-width:1.35335;stroke-linecap:round;stroke-linejoin:round;paint-order:stroke fill markers"
       d="m 75.51445,39.55238 v 0.84697 c -0.81254,0.46753 -1.46573,1.17604 -1.86707,2.0283 a 1.5877565,0.74498063 0 0 1 0.2806,0.41755 1.5877565,0.74498063 0 0 1 -0.6196,0.58653 c -0.0157,0.0749 -0.0277,0.15115 -0.0398,0.22737 a 1.5877565,0.74498063 0 0 1 0.65939,0.60358 1.5877565,0.74498063 0 0 1 -0.71881,0.61805 v 0.17674 a 1.5877565,0.74498063 0 0 1 0.71881,0.62218 1.5877565,0.74498063 0 0 1 -0.71881,0.61857 v 0.18087 a 1.5877565,0.74498063 0 0 1 0.71881,0.61805 1.5877565,0.74498063 0 0 1 -0.71881,0.61805 v 0.18086 a 1.5877565,0.74498063 0 0 1 0.71881,0.61805 1.5877565,0.74498063 0 0 1 -0.71881,0.61857 v 0.18035 a 1.5877565,0.74498063 0 0 1 0.71881,0.61857 1.5877565,0.74498063 0 0 1 -0.71881,0.61805 v 0.18087 a 1.5877565,0.74498063 0 0 1 0.71881,0.61805 1.5877565,0.74498063 0 0 1 -0.71881,0.61856 v 0.18035 a 1.5877565,0.74498063 0 0 1 0.71881,0.61857 1.5877565,0.74498063 0 0 1 -0.71881,0.61805 v 0.18087 a 1.5877565,0.74498063 0 0 1 0.71881,0.61805 1.5877565,0.74498063 0 0 1 -0.71881,0.61805 v 0.18087 a 1.5877565,0.74498063 0 0 1 0.71881,0.61856 1.5877565,0.74498063 0 0 1 -0.71881,0.61805 v 0.18087 a 1.5877565,0.74498063 0 0 1 0.71881,0.61805 1.5877565,0.74498063 0 0 1 -0.71881,0.61805 v 0.18087 a 1.5877565,0.74498063 0 0 1 0.71881,0.61805 1.5877565,0.74498063 0 0 1 -0.71881,0.61856 v 0.18087 a 1.5877565,0.74498063 0 0 1 0.71881,0.61805 1.5877565,0.74498063 0 0 1 -0.71881,0.61805 v 0.18087 a 1.5877565,0.74498063 0 0 1 0.71881,0.61805 1.5877565,0.74498063 0 0 1 -0.71881,0.61857 v 0.18086 a 1.5877565,0.74498063 0 0 1 0.71881,0.61805 1.5877565,0.74498063 0 0 1 -0.71881,0.61805 v 0.18087 a 1.5877565,0.74498063 0 0 1 0.71881,0.61805 1.5877565,0.74498063 0 0 1 -0.71881,0.61857 v 0.17622 a 1.5877565,0.74498063 0 0 1 0.71881,0.6227 1.5877565,0.74498063 0 0 1 -0.71881,0.61805 v 0.18086 a 1.5877565,0.74498063 0 0 1 0.71881,0.61805 1.5877565,0.74498063 0 0 1 -0.71881,0.61805 v 0.18087 a 1.5877565,0.74498063 0 0 1 0.71881,0.61857 1.5877565,0.74498063 0 0 1 -0.71881,0.61805 v 0.18087 a 1.5877565,0.74498063 0 0 1 0.71881,0.61805 1.5877565,0.74498063 0 0 1 -0.71881,0.61805 v 0.18086 a 1.5877565,0.74498063 0 0 1 0.71881,0.61857 1.5877565,0.74498063 0 0 1 -0.71881,0.61805 v 0.18087 a 1.5877565,0.74498063 0 0 1 0.71881,0.61805 1.5877565,0.74498063 0 0 1 -0.71881,0.6227 v 0.17622 a 1.5877565,0.74498063 0 0 1 0.71881,0.61805 1.5877565,0.74498063 0 0 1 -0.71881,0.61856 v 0.17622 a 1.5877565,0.74498063 0 0 1 0.71881,0.6227 1.5877565,0.74498063 0 0 1 -0.71881,0.61805 v 0.18087 a 1.5877565,0.74498063 0 0 1 0.71881,0.61805 1.5877565,0.74498063 0 0 1 -0.71881,0.61857 v 0.18035 a 1.5877565,0.74498063 0 0 1 0.71881,0.61856 1.5877565,0.74498063 0 0 1 -0.71881,0.61805 v 0.18087 a 1.5877565,0.74498063 0 0 1 0.71881,0.61805 1.5877565,0.74498063 0 0 1 -0.71881,0.61857 v 0.18035 a 1.5877565,0.74498063 0 0 1 0.71881,0.61857 1.5877565,0.74498063 0 0 1 -0.71881,0.61805 v 0.18086 a 1.5877565,0.74498063 0 0 1 0.71881,0.61805 1.5877565,0.74498063 0 0 1 -0.71881,0.6227 v 0.17622 a 1.5877565,0.74498063 0 0 1 0.71881,0.61857 1.5877565,0.74498063 0 0 1 -0.71881,0.61805 v 0.18087 a 1.5877565,0.74498063 0 0 1 0.71881,0.61805 1.5877565,0.74498063 0 0 1 -0.71881,0.61805 v 0.18086 a 1.5877565,0.74498063 0 0 1 0.71881,0.61805 1.5877565,0.74498063 0 0 1 -0.71881,0.61857 v 0.18087 a 1.5877565,0.74498063 0 0 1 0.71881,0.61805 1.5877565,0.74498063 0 0 1 -0.71881,0.61805 v 0.18087 a 1.5877565,0.74498063 0 0 1 0.71881,0.61805 1.5877565,0.74498063 0 0 1 -0.71881,0.61856 v 0.18087 a 1.5877565,0.74498063 0 0 1 0.71881,0.61805 1.5877565,0.74498063 0 0 1 -0.71881,0.61805 v 0.18087 a 1.5877565,0.74498063 0 0 1 0.71881,0.61805 1.5877565,0.74498063 0 0 1 -0.71881,0.61856 v 0.18036 a 1.5877565,0.74498063 0 0 1 0.71881,0.61856 1.5877565,0.74498063 0 0 1 -0.71881,0.61805 v 0.18087 a 1.5877565,0.74498063 0 0 1 0.71881,0.61805 1.5877565,0.74498063 0 0 1 -0.71881,0.61805 v 0.18087 a 1.5877565,0.74498063 0 0 1 0.71881,0.61856 1.5877565,0.74498063 0 0 1 -0.71881,0.61805 v 0.18087 a 1.5877565,0.74498063 0 0 1 0.71881,0.61805 1.5877565,0.74498063 0 0 1 -0.71881,0.61805 v 0.18087 a 1.5877565,0.74498063 0 0 1 0.71881,0.61857 1.5877565,0.74498063 0 0 1 -0.71881,0.61805 v 0.18086 a 1.5877565,0.74498063 0 0 1 0.71881,0.61805 1.5877565,0.74498063 0 0 1 -0.71881,0.61805 v 0.18087 a 1.5877565,0.74498063 0 0 1 0.71881,0.61805 1.5877565,0.74498063 0 0 1 -0.71881,0.62322 v 0.17622 a 1.5877565,0.74498063 0 0 1 0.71881,0.61805 1.5877565,0.74498063 0 0 1 -0.71881,0.61805 v 0.18086 a 1.5877565,0.74498063 0 0 1 0.71881,0.61805 1.5877565,0.74498063 0 0 1 -0.71881,0.61857 v 0.18087 a 1.5877565,0.74498063 0 0 1 0.71881,0.61805 1.5877565,0.74498063 0 0 1 -0.71881,0.61805 v 0.18087 a 1.5877565,0.74498063 0 0 1 0.71881,0.61805 1.5877565,0.74498063 0 0 1 -0.71881,0.61856 v 0.18035 a 1.5877565,0.74498063 0 0 1 0.71881,0.61857 1.5877565,0.74498063 0 0 1 -0.71881,0.61805 v 0.18087 a 1.5877565,0.74498063 0 0 1 0.71881,0.61805 1.5877565,0.74498063 0 0 1 -0.71881,0.61805 v 0.18087 a 1.5877565,0.74498063 0 0 1 0.71881,0.61856 1.5877565,0.74498063 0 0 1 -0.71881,0.62219 v 0.17673 a 1.5877565,0.74498063 0 0 1 0.71881,0.61805 1.5877565,0.74498063 0 0 1 -0.71881,0.61805 v 0.18087 a 1.5877565,0.74498063 0 0 1 0.71881,0.61857 1.5877565,0.74498063 0 0 1 -0.71881,0.61805 v 0.18086 a 1.5877565,0.74498063 0 0 1 0.71881,0.61805 1.5877565,0.74498063 0 0 1 -0.71881,0.61805 v 0.18087 a 1.5877565,0.74498063 0 0 1 0.71881,0.61805 1.5877565,0.74498063 0 0 1 -0.71881,0.61857 v 0.18087 a 1.5877565,0.74498063 0 0 1 0.71881,0.61805 1.5877565,0.74498063 0 0 1 -0.71881,0.61805 v 0.18086 a 1.5877565,0.74498063 0 0 1 0.71881,0.61805 1.5877565,0.74498063 0 0 1 -0.71881,0.61857 v 0.18035 a 1.5877565,0.74498063 0 0 1 0.71881,0.61857 1.5877565,0.74498063 0 0 1 -0.71881,0.6227 v 0.17622 a 1.5877565,0.74498063 0 0 1 0.71881,0.61805 1.5877565,0.74498063 0 0 1 -0.71881,0.61856 v 0.18035 a 1.5877565,0.74498063 0 0 1 0.71881,0.61857 1.5877565,0.74498063 0 0 1 -0.71881,0.61805 v 0.18087 a 1.5877565,0.74498063 0 0 1 0.71881,0.61805 1.5877565,0.74498063 0 0 1 -0.71881,0.61805 v 0.18087 a 1.5877565,0.74498063 0 0 1 0.71881,0.61856 1.5877565,0.74498063 0 0 1 -0.71881,0.61805 v 0.18087 a 1.5877565,0.74498063 0 0 1 0.71881,0.61805 1.5877565,0.74498063 0 0 1 -0.71881,0.61805 v 0.18087 a 1.5877565,0.74498063 0 0 1 0.71881,0.61805 1.5877565,0.74498063 0 0 1 -0.71881,0.61857 v 0.18086 a 1.5877565,0.74498063 0 0 1 0.71881,0.61805 1.5877565,0.74498063 0 0 1 -0.60771,0.57464 4.4735904,3.4220095 0 0 1 2.01073,2.85668 4.4735904,3.4220095 0 0 1 -1.78904,2.70371 1.5877565,0.74498063 0 0 1 0.38602,0.48679 1.5877565,0.74498063 0 0 1 -0.71881,0.62322 v 0.17105 a 1.5877565,0.74498063 0 0 1 0.71881,0.6227 1.5877565,0.74498063 0 0 1 -0.71881,0.62322 v 0.17105 a 1.5877565,0.74498063 0 0 1 0.71881,0.62321 1.5877565,0.74498063 0 0 1 -0.71881,0.62322 v 0.17053 a 1.5877565,0.74498063 0 0 1 0.71881,0.62322 1.5877565,0.74498063 0 0 1 -0.71881,0.62322 v 0.17105 a 1.5877565,0.74498063 0 0 1 0.71881,0.62322 1.5877565,0.74498063 0 0 1 -0.71881,0.6227 v 0.17105 a 1.5877565,0.74498063 0 0 1 0.71881,0.62321 1.5877565,0.74498063 0 0 1 -0.71881,0.62322 v 0.17105 a 1.5877565,0.74498063 0 0 1 0.71881,0.62322 1.5877565,0.74498063 0 0 1 -0.71881,0.6227 v 0.17105 a 1.5877565,0.74498063 0 0 1 0.71881,0.62322 1.5877565,0.74498063 0 0 1 -0.71881,0.62321 v 0.17105 a 1.5877565,0.74498063 0 0 1 0.71881,0.6227 1.5877565,0.74498063 0 0 1 -0.71881,0.62322 v 0.17105 a 1.5877565,0.74498063 0 0 1 0.71881,0.62322 1.5877565,0.74498063 0 0 1 -0.71881,0.62322 v 0.17104 a 1.5877565,0.74498063 0 0 1 0.71881,0.62271 1.5877565,0.74498063 0 0 1 -0.69453,0.61495 c 0.006,0.0654 0.0122,0.13081 0.0212,0.19533 a 1.5877565,0.74498063 0 0 1 0.67334,0.6072 1.5877565,0.74498063 0 0 1 -0.38033,0.48317 c 0.37454,0.92043 1.03764,1.69039 1.87843,2.19987 v 0.71469 h 32.6223 32.6223 v -0.71469 c 0.8408,-0.50948 1.5039,-1.27944 1.87844,-2.19987 a 1.5877565,0.74498063 0 0 1 -0.38034,-0.48317 1.5877565,0.74498063 0 0 1 0.67334,-0.6072 c 0.009,-0.0645 0.0152,-0.12993 0.0212,-0.19533 a 1.5877565,0.74498063 0 0 1 -0.69453,-0.61495 1.5877565,0.74498063 0 0 1 0.71882,-0.62271 v -0.17104 a 1.5877565,0.74498063 0 0 1 -0.71882,-0.62322 1.5877565,0.74498063 0 0 1 0.71882,-0.62322 v -0.17105 a 1.5877565,0.74498063 0 0 1 -0.71882,-0.62322 1.5877565,0.74498063 0 0 1 0.71882,-0.6227 v -0.17105 a 1.5877565,0.74498063 0 0 1 -0.71882,-0.62321 1.5877565,0.74498063 0 0 1 0.71882,-0.62322 v -0.17105 a 1.5877565,0.74498063 0 0 1 -0.71882,-0.6227 1.5877565,0.74498063 0 0 1 0.71882,-0.62322 v -0.17105 a 1.5877565,0.74498063 0 0 1 -0.71882,-0.62322 1.5877565,0.74498063 0 0 1 0.71882,-0.62321 v -0.17105 a 1.5877565,0.74498063 0 0 1 -0.71882,-0.6227 1.5877565,0.74498063 0 0 1 0.71882,-0.62322 v -0.17105 a 1.5877565,0.74498063 0 0 1 -0.71882,-0.62322 1.5877565,0.74498063 0 0 1 0.71882,-0.62322 v -0.17053 a 1.5877565,0.74498063 0 0 1 -0.71882,-0.62322 1.5877565,0.74498063 0 0 1 0.71882,-0.62321 v -0.17105 a 1.5877565,0.74498063 0 0 1 -0.71882,-0.62322 1.5877565,0.74498063 0 0 1 0.71882,-0.6227 v -0.17105 a 1.5877565,0.74498063 0 0 1 -0.71882,-0.62322 1.5877565,0.74498063 0 0 1 0.38602,-0.48679 4.4735904,3.4220095 0 0 1 -1.78904,-2.70371 4.4735904,3.4220095 0 0 1 2.01073,-2.85668 1.5877565,0.74498063 0 0 1 -0.60771,-0.57464 1.5877565,0.74498063 0 0 1 0.71882,-0.61805 v -0.18086 a 1.5877565,0.74498063 0 0 1 -0.71882,-0.61857 1.5877565,0.74498063 0 0 1 0.71882,-0.61805 v -0.18087 a 1.5877565,0.74498063 0 0 1 -0.71882,-0.61805 1.5877565,0.74498063 0 0 1 0.71882,-0.61805 v -0.18087 a 1.5877565,0.74498063 0 0 1 -0.71882,-0.61805 1.5877565,0.74498063 0 0 1 0.71882,-0.61856 v -0.18087 a 1.5877565,0.74498063 0 0 1 -0.71882,-0.61805 1.5877565,0.74498063 0 0 1 0.71882,-0.61805 v -0.18087 a 1.5877565,0.74498063 0 0 1 -0.71882,-0.61805 1.5877565,0.74498063 0 0 1 0.71882,-0.61857 v -0.18035 a 1.5877565,0.74498063 0 0 1 -0.71882,-0.61856 1.5877565,0.74498063 0 0 1 0.71882,-0.61805 v -0.17622 a 1.5877565,0.74498063 0 0 1 -0.71882,-0.6227 1.5877565,0.74498063 0 0 1 0.71882,-0.61857 v -0.18035 a 1.5877565,0.74498063 0 0 1 -0.71882,-0.61857 1.5877565,0.74498063 0 0 1 0.71882,-0.61805 v -0.18086 a 1.5877565,0.74498063 0 0 1 -0.71882,-0.61805 1.5877565,0.74498063 0 0 1 0.71882,-0.61805 v -0.18087 a 1.5877565,0.74498063 0 0 1 -0.71882,-0.61857 1.5877565,0.74498063 0 0 1 0.71882,-0.61805 v -0.18087 a 1.5877565,0.74498063 0 0 1 -0.71882,-0.61805 1.5877565,0.74498063 0 0 1 0.71882,-0.61805 v -0.18086 a 1.5877565,0.74498063 0 0 1 -0.71882,-0.61805 1.5877565,0.74498063 0 0 1 0.71882,-0.61857 v -0.18087 a 1.5877565,0.74498063 0 0 1 -0.71882,-0.61805 1.5877565,0.74498063 0 0 1 0.71882,-0.61805 v -0.17673 a 1.5877565,0.74498063 0 0 1 -0.71882,-0.62219 1.5877565,0.74498063 0 0 1 0.71882,-0.61856 v -0.18087 a 1.5877565,0.74498063 0 0 1 -0.71882,-0.61805 1.5877565,0.74498063 0 0 1 0.71882,-0.61805 v -0.18087 a 1.5877565,0.74498063 0 0 1 -0.71882,-0.61805 1.5877565,0.74498063 0 0 1 0.71882,-0.61857 v -0.18035 a 1.5877565,0.74498063 0 0 1 -0.71882,-0.61856 1.5877565,0.74498063 0 0 1 0.71882,-0.61805 v -0.18087 a 1.5877565,0.74498063 0 0 1 -0.71882,-0.61805 1.5877565,0.74498063 0 0 1 0.71882,-0.61805 v -0.18087 a 1.5877565,0.74498063 0 0 1 -0.71882,-0.61857 1.5877565,0.74498063 0 0 1 0.71882,-0.61805 v -0.18086 a 1.5877565,0.74498063 0 0 1 -0.71882,-0.61805 1.5877565,0.74498063 0 0 1 0.71882,-0.61805 v -0.17622 a 1.5877565,0.74498063 0 0 1 -0.71882,-0.62322 1.5877565,0.74498063 0 0 1 0.71882,-0.61805 v -0.18087 a 1.5877565,0.74498063 0 0 1 -0.71882,-0.61805 1.5877565,0.74498063 0 0 1 0.71882,-0.61805 v -0.18086 a 1.5877565,0.74498063 0 0 1 -0.71882,-0.61805 1.5877565,0.74498063 0 0 1 0.71882,-0.61857 v -0.18087 a 1.5877565,0.74498063 0 0 1 -0.71882,-0.61805 1.5877565,0.74498063 0 0 1 0.71882,-0.61805 v -0.18087 a 1.5877565,0.74498063 0 0 1 -0.71882,-0.61805 1.5877565,0.74498063 0 0 1 0.71882,-0.61856 v -0.18087 a 1.5877565,0.74498063 0 0 1 -0.71882,-0.61805 1.5877565,0.74498063 0 0 1 0.71882,-0.61805 v -0.18087 a 1.5877565,0.74498063 0 0 1 -0.71882,-0.61805 1.5877565,0.74498063 0 0 1 0.71882,-0.61856 V 93.0659 a 1.5877565,0.74498063 0 0 1 -0.71882,-0.61856 1.5877565,0.74498063 0 0 1 0.71882,-0.61805 v -0.18087 a 1.5877565,0.74498063 0 0 1 -0.71882,-0.61805 1.5877565,0.74498063 0 0 1 0.71882,-0.61805 v -0.18087 a 1.5877565,0.74498063 0 0 1 -0.71882,-0.61856 1.5877565,0.74498063 0 0 1 0.71882,-0.61805 v -0.18087 a 1.5877565,0.74498063 0 0 1 -0.71882,-0.61805 1.5877565,0.74498063 0 0 1 0.71882,-0.61805 V 87.397 a 1.5877565,0.74498063 0 0 1 -0.71882,-0.61857 1.5877565,0.74498063 0 0 1 0.71882,-0.61805 v -0.18086 a 1.5877565,0.74498063 0 0 1 -0.71882,-0.61805 1.5877565,0.74498063 0 0 1 0.71882,-0.61805 v -0.18087 a 1.5877565,0.74498063 0 0 1 -0.71882,-0.61805 1.5877565,0.74498063 0 0 1 0.71882,-0.61857 v -0.17622 a 1.5877565,0.74498063 0 0 1 -0.71882,-0.6227 1.5877565,0.74498063 0 0 1 0.71882,-0.61805 V 81.7281 a 1.5877565,0.74498063 0 0 1 -0.71882,-0.61805 1.5877565,0.74498063 0 0 1 0.71882,-0.61857 v -0.18035 a 1.5877565,0.74498063 0 0 1 -0.71882,-0.61857 1.5877565,0.74498063 0 0 1 0.71882,-0.61805 v -0.18087 a 1.5877565,0.74498063 0 0 1 -0.71882,-0.61805 1.5877565,0.74498063 0 0 1 0.71882,-0.61856 v -0.18035 a 1.5877565,0.74498063 0 0 1 -0.71882,-0.61857 1.5877565,0.74498063 0 0 1 0.71882,-0.61805 v -0.18087 a 1.5877565,0.74498063 0 0 1 -0.71882,-0.61805 1.5877565,0.74498063 0 0 1 0.71882,-0.6227 v -0.17622 a 1.5877565,0.74498063 0 0 1 -0.71882,-0.61856 1.5877565,0.74498063 0 0 1 0.71882,-0.61805 v -0.17622 a 1.5877565,0.74498063 0 0 1 -0.71882,-0.6227 1.5877565,0.74498063 0 0 1 0.71882,-0.61805 v -0.18087 a 1.5877565,0.74498063 0 0 1 -0.71882,-0.61805 1.5877565,0.74498063 0 0 1 0.71882,-0.61857 v -0.18086 a 1.5877565,0.74498063 0 0 1 -0.71882,-0.61805 1.5877565,0.74498063 0 0 1 0.71882,-0.61805 v -0.18087 a 1.5877565,0.74498063 0 0 1 -0.71882,-0.61805 1.5877565,0.74498063 0 0 1 0.71882,-0.61857 v -0.18087 a 1.5877565,0.74498063 0 0 1 -0.71882,-0.61805 1.5877565,0.74498063 0 0 1 0.71882,-0.61805 v -0.18086 a 1.5877565,0.74498063 0 0 1 -0.71882,-0.61805 1.5877565,0.74498063 0 0 1 0.71882,-0.6227 V 64.7219 a 1.5877565,0.74498063 0 0 1 -0.71882,-0.61857 1.5877565,0.74498063 0 0 1 0.71882,-0.61805 v -0.18087 a 1.5877565,0.74498063 0 0 1 -0.71882,-0.61805 1.5877565,0.74498063 0 0 1 0.71882,-0.61805 v -0.18086 a 1.5877565,0.74498063 0 0 1 -0.71882,-0.61857 1.5877565,0.74498063 0 0 1 0.71882,-0.61805 v -0.18087 a 1.5877565,0.74498063 0 0 1 -0.71882,-0.61805 1.5877565,0.74498063 0 0 1 0.71882,-0.61805 v -0.18087 a 1.5877565,0.74498063 0 0 1 -0.71882,-0.61856 1.5877565,0.74498063 0 0 1 0.71882,-0.61805 v -0.18087 a 1.5877565,0.74498063 0 0 1 -0.71882,-0.61805 1.5877565,0.74498063 0 0 1 0.71882,-0.61805 v -0.18087 a 1.5877565,0.74498063 0 0 1 -0.71882,-0.61805 1.5877565,0.74498063 0 0 1 0.71882,-0.61856 v -0.18087 a 1.5877565,0.74498063 0 0 1 -0.71882,-0.61805 1.5877565,0.74498063 0 0 1 0.71882,-0.61805 v -0.18087 a 1.5877565,0.74498063 0 0 1 -0.71882,-0.61805 1.5877565,0.74498063 0 0 1 0.71882,-0.61857 v -0.18035 a 1.5877565,0.74498063 0 0 1 -0.71882,-0.61856 1.5877565,0.74498063 0 0 1 0.71882,-0.61805 v -0.18087 a 1.5877565,0.74498063 0 0 1 -0.71882,-0.61805 1.5877565,0.74498063 0 0 1 0.71882,-0.61857 v -0.18035 a 1.5877565,0.74498063 0 0 1 -0.71882,-0.61857 1.5877565,0.74498063 0 0 1 0.71882,-0.61805 v -0.18086 a 1.5877565,0.74498063 0 0 1 -0.71882,-0.61805 1.5877565,0.74498063 0 0 1 0.71882,-0.61805 v -0.18087 a 1.5877565,0.74498063 0 0 1 -0.71882,-0.61857 1.5877565,0.74498063 0 0 1 0.71882,-0.62218 v -0.17674 a 1.5877565,0.74498063 0 0 1 -0.71882,-0.61805 1.5877565,0.74498063 0 0 1 0.65939,-0.60358 c -0.0121,-0.0762 -0.0241,-0.15247 -0.0398,-0.22737 a 1.5877565,0.74498063 0 0 1 -0.6196,-0.58653 1.5877565,0.74498063 0 0 1 0.2806,-0.41755 c -0.40134,-0.85226 -1.05453,-1.56077 -1.86707,-2.0283 v -0.84697 h -32.53393 z m 0.40876,95.53887 a 0.28134918,0.46891534 0 0 1 0.28112,0.46922 0.28134918,0.46891534 0 0 1 -0.28112,0.4687 0.28134918,0.46891534 0 0 1 -0.28163,-0.4687 0.28134918,0.46891534 0 0 1 0.28163,-0.46922 z m 0.94465,0 a 0.28134918,0.46891534 0 0 1 0.28163,0.46922 0.28134918,0.46891534 0 0 1 -0.28163,0.4687 0.28134918,0.46891534 0 0 1 -0.28112,-0.4687 0.28134918,0.46891534 0 0 1 0.28112,-0.46922 z m 0.94516,0 a 0.28134918,0.46891534 0 0 1 0.28112,0.46922 0.28134918,0.46891534 0 0 1 -0.28112,0.4687 0.28134918,0.46891534 0 0 1 -0.28164,-0.4687 0.28134918,0.46891534 0 0 1 0.28164,-0.46922 z m 0.94464,0 a 0.28134918,0.46891534 0 0 1 0.28164,0.46922 0.28134918,0.46891534 0 0 1 -0.28164,0.4687 0.28134918,0.46891534 0 0 1 -0.28112,-0.4687 0.28134918,0.46891534 0 0 1 0.28112,-0.46922 z m 0.94517,0 a 0.28134918,0.46891534 0 0 1 0.28112,0.46922 0.28134918,0.46891534 0 0 1 -0.28112,0.4687 0.28134918,0.46891534 0 0 1 -0.28164,-0.4687 0.28134918,0.46891534 0 0 1 0.28164,-0.46922 z m 0.94464,0 a 0.28134918,0.46891534 0 0 1 0.28112,0.46922 0.28134918,0.46891534 0 0 1 -0.28112,0.4687 0.28134918,0.46891534 0 0 1 -0.28164,-0.4687 0.28134918,0.46891534 0 0 1 0.28164,-0.46922 z m 0.94465,0 a 0.28134918,0.46891534 0 0 1 0.28163,0.46922 0.28134918,0.46891534 0 0 1 -0.28163,0.4687 0.28134918,0.46891534 0 0 1 -0.28112,-0.4687 0.28134918,0.46891534 0 0 1 0.28112,-0.46922 z m 0.94516,0 a 0.28134918,0.46891534 0 0 1 0.28112,0.46922 0.28134918,0.46891534 0 0 1 -0.28112,0.4687 0.28134918,0.46891534 0 0 1 -0.28164,-0.4687 0.28134918,0.46891534 0 0 1 0.28164,-0.46922 z m 0.94464,0 a 0.28134918,0.46891534 0 0 1 0.28164,0.46922 0.28134918,0.46891534 0 0 1 -0.28164,0.4687 0.28134918,0.46891534 0 0 1 -0.28112,-0.4687 0.28134918,0.46891534 0 0 1 0.28112,-0.46922 z m 0.94517,0 a 0.28134918,0.46891534 0 0 1 0.28111,0.46922 0.28134918,0.46891534 0 0 1 -0.28111,0.4687 0.28134918,0.46891534 0 0 1 -0.28164,-0.4687 0.28134918,0.46891534 0 0 1 0.28164,-0.46922 z m 0.94464,0 a 0.28134918,0.46891534 0 0 1 0.28164,0.46922 0.28134918,0.46891534 0 0 1 -0.28164,0.4687 0.28134918,0.46891534 0 0 1 -0.28112,-0.4687 0.28134918,0.46891534 0 0 1 0.28112,-0.46922 z m 0.94465,0 a 0.28134918,0.46891534 0 0 1 0.28163,0.46922 0.28134918,0.46891534 0 0 1 -0.28163,0.4687 0.28134918,0.46891534 0 0 1 -0.28112,-0.4687 0.28134918,0.46891534 0 0 1 0.28112,-0.46922 z m 0.94516,0 a 0.28134918,0.46891534 0 0 1 0.28112,0.46922 0.28134918,0.46891534 0 0 1 -0.28112,0.4687 0.28134918,0.46891534 0 0 1 -0.28164,-0.4687 0.28134918,0.46891534 0 0 1 0.28164,-0.46922 z m 0.94464,0 a 0.28134918,0.46891534 0 0 1 0.28164,0.46922 0.28134918,0.46891534 0 0 1 -0.28164,0.4687 0.28134918,0.46891534 0 0 1 -0.28112,-0.4687 0.28134918,0.46891534 0 0 1 0.28112,-0.46922 z m 0.94516,0 a 0.28134918,0.46891534 0 0 1 0.28112,0.46922 0.28134918,0.46891534 0 0 1 -0.28112,0.4687 0.28134918,0.46891534 0 0 1 -0.28163,-0.4687 0.28134918,0.46891534 0 0 1 0.28163,-0.46922 z m 0.94465,0 a 0.28134918,0.46891534 0 0 1 0.28164,0.46922 0.28134918,0.46891534 0 0 1 -0.28164,0.4687 0.28134918,0.46891534 0 0 1 -0.28112,-0.4687 0.28134918,0.46891534 0 0 1 0.28112,-0.46922 z m 0.94516,0 a 0.28134918,0.46891534 0 0 1 0.28112,0.46922 0.28134918,0.46891534 0 0 1 -0.28112,0.4687 0.28134918,0.46891534 0 0 1 -0.28163,-0.4687 0.28134918,0.46891534 0 0 1 0.28163,-0.46922 z m 0.94465,0 a 0.28134918,0.46891534 0 0 1 0.28112,0.46922 0.28134918,0.46891534 0 0 1 -0.28112,0.4687 0.28134918,0.46891534 0 0 1 -0.28112,-0.4687 0.28134918,0.46891534 0 0 1 0.28112,-0.46922 z m 0.94464,0 a 0.28134918,0.46891534 0 0 1 0.28164,0.46922 0.28134918,0.46891534 0 0 1 -0.28164,0.4687 0.28134918,0.46891534 0 0 1 -0.28112,-0.4687 0.28134918,0.46891534 0 0 1 0.28112,-0.46922 z m 0.94516,0 a 0.28134918,0.46891534 0 0 1 0.28112,0.46922 0.28134918,0.46891534 0 0 1 -0.28112,0.4687 0.28134918,0.46891534 0 0 1 -0.28163,-0.4687 0.28134918,0.46891534 0 0 1 0.28163,-0.46922 z m 0.94465,0 a 0.28134918,0.46891534 0 0 1 0.28164,0.46922 0.28134918,0.46891534 0 0 1 -0.28164,0.4687 0.28134918,0.46891534 0 0 1 -0.28112,-0.4687 0.28134918,0.46891534 0 0 1 0.28112,-0.46922 z m 0.94516,0 a 0.28134918,0.46891534 0 0 1 0.28112,0.46922 0.28134918,0.46891534 0 0 1 -0.28112,0.4687 0.28134918,0.46891534 0 0 1 -0.28164,-0.4687 0.28134918,0.46891534 0 0 1 0.28164,-0.46922 z m 0.94465,0 a 0.28134918,0.46891534 0 0 1 0.28112,0.46922 0.28134918,0.46891534 0 0 1 -0.28112,0.4687 0.28134918,0.46891534 0 0 1 -0.28112,-0.4687 0.28134918,0.46891534 0 0 1 0.28112,-0.46922 z m 0.94516,0 a 0.28134918,0.46891534 0 0 1 0.28112,0.46922 0.28134918,0.46891534 0 0 1 -0.28112,0.4687 0.28134918,0.46891534 0 0 1 -0.28164,-0.4687 0.28134918,0.46891534 0 0 1 0.28164,-0.46922 z m 0.94464,0 a 0.28134918,0.46891534 0 0 1 0.28112,0.46922 0.28134918,0.46891534 0 0 1 -0.28112,0.4687 0.28134918,0.46891534 0 0 1 -0.28163,-0.4687 0.28134918,0.46891534 0 0 1 0.28163,-0.46922 z m 0.94465,0 a 0.28134918,0.46891534 0 0 1 0.28163,0.46922 0.28134918,0.46891534 0 0 1 -0.28163,0.4687 0.28134918,0.46891534 0 0 1 -0.28112,-0.4687 0.28134918,0.46891534 0 0 1 0.28112,-0.46922 z m 0.94516,0 a 0.28134918,0.46891534 0 0 1 0.28112,0.46922 0.28134918,0.46891534 0 0 1 -0.28112,0.4687 0.28134918,0.46891534 0 0 1 -0.28164,-0.4687 0.28134918,0.46891534 0 0 1 0.28164,-0.46922 z m 0.94465,0 a 0.28134918,0.46891534 0 0 1 0.28163,0.46922 0.28134918,0.46891534 0 0 1 -0.28163,0.4687 0.28134918,0.46891534 0 0 1 -0.28112,-0.4687 0.28134918,0.46891534 0 0 1 0.28112,-0.46922 z m 0.94516,0 a 0.28134918,0.46891534 0 0 1 0.28112,0.46922 0.28134918,0.46891534 0 0 1 -0.28112,0.4687 0.28134918,0.46891534 0 0 1 -0.28164,-0.4687 0.28134918,0.46891534 0 0 1 0.28164,-0.46922 z m 0.94464,0 a 0.28134918,0.46891534 0 0 1 0.28112,0.46922 0.28134918,0.46891534 0 0 1 -0.28112,0.4687 0.28134918,0.46891534 0 0 1 -0.28112,-0.4687 0.28134918,0.46891534 0 0 1 0.28112,-0.46922 z m 0.94465,0 a 0.28134918,0.46891534 0 0 1 0.28163,0.46922 0.28134918,0.46891534 0 0 1 -0.28163,0.4687 0.28134918,0.46891534 0 0 1 -0.28112,-0.4687 0.28134918,0.46891534 0 0 1 0.28112,-0.46922 z m 0.94516,0 a 0.28134918,0.46891534 0 0 1 0.28112,0.46922 0.28134918,0.46891534 0 0 1 -0.28112,0.4687 0.28134918,0.46891534 0 0 1 -0.28164,-0.4687 0.28134918,0.46891534 0 0 1 0.28164,-0.46922 z m 0.94464,0 a 0.28134918,0.46891534 0 0 1 0.28164,0.46922 0.28134918,0.46891534 0 0 1 -0.28164,0.4687 0.28134918,0.46891534 0 0 1 -0.28111,-0.4687 0.28134918,0.46891534 0 0 1 0.28111,-0.46922 z m 0.94517,0 a 0.28134918,0.46891534 0 0 1 0.28112,0.46922 0.28134918,0.46891534 0 0 1 -0.28112,0.4687 0.28134918,0.46891534 0 0 1 -0.28164,-0.4687 0.28134918,0.46891534 0 0 1 0.28164,-0.46922 z m 0.94464,0 a 0.28134918,0.46891534 0 0 1 0.28112,0.46922 0.28134918,0.46891534 0 0 1 -0.28112,0.4687 0.28134918,0.46891534 0 0 1 -0.28112,-0.4687 0.28134918,0.46891534 0 0 1 0.28112,-0.46922 z m 0.94465,0 a 0.28134918,0.46891534 0 0 1 0.28163,0.46922 0.28134918,0.46891534 0 0 1 -0.28163,0.4687 0.28134918,0.46891534 0 0 1 -0.28112,-0.4687 0.28134918,0.46891534 0 0 1 0.28112,-0.46922 z m 0.94516,0 a 0.28134918,0.46891534 0 0 1 0.28112,0.46922 0.28134918,0.46891534 0 0 1 -0.28112,0.4687 0.28134918,0.46891534 0 0 1 -0.28164,-0.4687 0.28134918,0.46891534 0 0 1 0.28164,-0.46922 z m 0.94464,0 a 0.28134918,0.46891534 0 0 1 0.28164,0.46922 0.28134918,0.46891534 0 0 1 -0.28164,0.4687 0.28134918,0.46891534 0 0 1 -0.28112,-0.4687 0.28134918,0.46891534 0 0 1 0.28112,-0.46922 z m 0.94517,0 a 0.28134918,0.46891534 0 0 1 0.28112,0.46922 0.28134918,0.46891534 0 0 1 -0.28112,0.4687 0.28134918,0.46891534 0 0 1 -0.28164,-0.4687 0.28134918,0.46891534 0 0 1 0.28164,-0.46922 z m 0.94464,0 a 0.28134918,0.46891534 0 0 1 0.28112,0.46922 0.28134918,0.46891534 0 0 1 -0.28112,0.4687 0.28134918,0.46891534 0 0 1 -0.28112,-0.4687 0.28134918,0.46891534 0 0 1 0.28112,-0.46922 z m 0.94465,0 a 0.28134918,0.46891534 0 0 1 0.28163,0.46922 0.28134918,0.46891534 0 0 1 -0.28163,0.4687 0.28134918,0.46891534 0 0 1 -0.28112,-0.4687 0.28134918,0.46891534 0 0 1 0.28112,-0.46922 z m 0.94516,0 a 0.28134918,0.46891534 0 0 1 0.28112,0.46922 0.28134918,0.46891534 0 0 1 -0.28112,0.4687 0.28134918,0.46891534 0 0 1 -0.28164,-0.4687 0.28134918,0.46891534 0 0 1 0.28164,-0.46922 z m 0.94464,0 a 0.28134918,0.46891534 0 0 1 0.28164,0.46922 0.28134918,0.46891534 0 0 1 -0.28164,0.4687 0.28134918,0.46891534 0 0 1 -0.28112,-0.4687 0.28134918,0.46891534 0 0 1 0.28112,-0.46922 z m 0.94517,0 a 0.28134918,0.46891534 0 0 1 0.28112,0.46922 0.28134918,0.46891534 0 0 1 -0.28112,0.4687 0.28134918,0.46891534 0 0 1 -0.28164,-0.4687 0.28134918,0.46891534 0 0 1 0.28164,-0.46922 z m 0.94464,0 a 0.28134918,0.46891534 0 0 1 0.28164,0.46922 0.28134918,0.46891534 0 0 1 -0.28164,0.4687 0.28134918,0.46891534 0 0 1 -0.28112,-0.4687 0.28134918,0.46891534 0 0 1 0.28112,-0.46922 z m 0.94465,0 a 0.28134918,0.46891534 0 0 1 0.28163,0.46922 0.28134918,0.46891534 0 0 1 -0.28163,0.4687 0.28134918,0.46891534 0 0 1 -0.28112,-0.4687 0.28134918,0.46891534 0 0 1 0.28112,-0.46922 z m 0.94516,0 a 0.28134918,0.46891534 0 0 1 0.28112,0.46922 0.28134918,0.46891534 0 0 1 -0.28112,0.4687 0.28134918,0.46891534 0 0 1 -0.28112,-0.4687 0.28134918,0.46891534 0 0 1 0.28112,-0.46922 z m 0.94464,0 a 0.28134918,0.46891534 0 0 1 0.28164,0.46922 0.28134918,0.46891534 0 0 1 -0.28164,0.4687 0.28134918,0.46891534 0 0 1 -0.28112,-0.4687 0.28134918,0.46891534 0 0 1 0.28112,-0.46922 z m 0.94516,0 a 0.28134918,0.46891534 0 0 1 0.28112,0.46922 0.28134918,0.46891534 0 0 1 -0.28112,0.4687 0.28134918,0.46891534 0 0 1 -0.28163,-0.4687 0.28134918,0.46891534 0 0 1 0.28163,-0.46922 z m 0.94465,0 a 0.28134918,0.46891534 0 0 1 0.28164,0.46922 0.28134918,0.46891534 0 0 1 -0.28164,0.4687 0.28134918,0.46891534 0 0 1 -0.28112,-0.4687 0.28134918,0.46891534 0 0 1 0.28112,-0.46922 z m 0.94516,0 a 0.28134918,0.46891534 0 0 1 0.28112,0.46922 0.28134918,0.46891534 0 0 1 -0.28112,0.4687 0.28134918,0.46891534 0 0 1 -0.28163,-0.4687 0.28134918,0.46891534 0 0 1 0.28163,-0.46922 z m 0.94465,0 a 0.28134918,0.46891534 0 0 1 0.28112,0.46922 0.28134918,0.46891534 0 0 1 -0.28112,0.4687 0.28134918,0.46891534 0 0 1 -0.28112,-0.4687 0.28134918,0.46891534 0 0 1 0.28112,-0.46922 z m 0.94464,0 a 0.28134918,0.46891534 0 0 1 0.28164,0.46922 0.28134918,0.46891534 0 0 1 -0.28164,0.4687 0.28134918,0.46891534 0 0 1 -0.28112,-0.4687 0.28134918,0.46891534 0 0 1 0.28112,-0.46922 z m 0.94516,0 a 0.28134918,0.46891534 0 0 1 0.28112,0.46922 0.28134918,0.46891534 0 0 1 -0.28112,0.4687 0.28134918,0.46891534 0 0 1 -0.28163,-0.4687 0.28134918,0.46891534 0 0 1 0.28163,-0.46922 z m 0.94465,0 a 0.28134918,0.46891534 0 0 1 0.28164,0.46922 0.28134918,0.46891534 0 0 1 -0.28164,0.4687 0.28134918,0.46891534 0 0 1 -0.28112,-0.4687 0.28134918,0.46891534 0 0 1 0.28112,-0.46922 z m 0.94516,0 a 0.28134918,0.46891534 0 0 1 0.28112,0.46922 0.28134918,0.46891534 0 0 1 -0.28112,0.4687 0.28134918,0.46891534 0 0 1 -0.28164,-0.4687 0.28134918,0.46891534 0 0 1 0.28164,-0.46922 z m 0.94465,0 a 0.28134918,0.46891534 0 0 1 0.28163,0.46922 0.28134918,0.46891534 0 0 1 -0.28163,0.4687 0.28134918,0.46891534 0 0 1 -0.28112,-0.4687 0.28134918,0.46891534 0 0 1 0.28112,-0.46922 z m 0.94516,0 a 0.28134918,0.46891534 0 0 1 0.28112,0.46922 0.28134918,0.46891534 0 0 1 -0.28112,0.4687 0.28134918,0.46891534 0 0 1 -0.28164,-0.4687 0.28134918,0.46891534 0 0 1 0.28164,-0.46922 z m 0.94464,0 a 0.28134918,0.46891534 0 0 1 0.28112,0.46922 0.28134918,0.46891534 0 0 1 -0.28112,0.4687 0.28134918,0.46891534 0 0 1 -0.28163,-0.4687 0.28134918,0.46891534 0 0 1 0.28163,-0.46922 z m 0.94465,0 a 0.28134918,0.46891534 0 0 1 0.28164,0.46922 0.28134918,0.46891534 0 0 1 -0.28164,0.4687 0.28134918,0.46891534 0 0 1 -0.28112,-0.4687 0.28134918,0.46891534 0 0 1 0.28112,-0.46922 z m 0.94516,0 a 0.28134918,0.46891534 0 0 1 0.28112,0.46922 0.28134918,0.46891534 0 0 1 -0.28112,0.4687 0.28134918,0.46891534 0 0 1 -0.28164,-0.4687 0.28134918,0.46891534 0 0 1 0.28164,-0.46922 z m 0.94465,0 a 0.28134918,0.46891534 0 0 1 0.28163,0.46922 0.28134918,0.46891534 0 0 1 -0.28163,0.4687 0.28134918,0.46891534 0 0 1 -0.28112,-0.4687 0.28134918,0.46891534 0 0 1 0.28112,-0.46922 z m 0.94516,0 a 0.28134918,0.46891534 0 0 1 0.28112,0.46922 0.28134918,0.46891534 0 0 1 -0.28112,0.4687 0.28134918,0.46891534 0 0 1 -0.28164,-0.4687 0.28134918,0.46891534 0 0 1 0.28164,-0.46922 z m 0.94464,0 a 0.28134918,0.46891534 0 0 1 0.28164,0.46922 0.28134918,0.46891534 0 0 1 -0.28164,0.4687 0.28134918,0.46891534 0 0 1 -0.28112,-0.4687 0.28134918,0.46891534 0 0 1 0.28112,-0.46922 z m 0.94465,0 a 0.28134918,0.46891534 0 0 1 0.28163,0.46922 0.28134918,0.46891534 0 0 1 -0.28163,0.4687 0.28134918,0.46891534 0 0 1 -0.28112,-0.4687 0.28134918,0.46891534 0 0 1 0.28112,-0.46922 z m 0.94516,0 a 0.28134918,0.46891534 0 0 1 0.28112,0.46922 0.28134918,0.46891534 0 0 1 -0.28112,0.4687 0.28134918,0.46891534 0 0 1 -0.28164,-0.4687 0.28134918,0.46891534 0 0 1 0.28164,-0.46922 z m 0.94465,0 a 0.28134918,0.46891534 0 0 1 0.28163,0.46922 0.28134918,0.46891534 0 0 1 -0.28163,0.4687 0.28134918,0.46891534 0 0 1 -0.28112,-0.4687 0.28134918,0.46891534 0 0 1 0.28112,-0.46922 z m 0.94516,0 a 0.28134918,0.46891534 0 0 1 0.28112,0.46922 0.28134918,0.46891534 0 0 1 -0.28112,0.4687 0.28134918,0.46891534 0 0 1 -0.28164,-0.4687 0.28134918,0.46891534 0 0 1 0.28164,-0.46922 z m 0.94464,0 a 0.28134918,0.46891534 0 0 1 0.28164,0.46922 0.28134918,0.46891534 0 0 1 -0.28164,0.4687 0.28134918,0.46891534 0 0 1 -0.28112,-0.4687 0.28134918,0.46891534 0 0 1 0.28112,-0.46922 z" /></g></svg>
